<svg class="main-svg" xmlns="http://www.w3.org/2000/svg" xmlns:xlink="http://www.w3.org/1999/xlink" width="700" height="500" style="" viewBox="0 0 700 500"><rect x="0" y="0" width="700" height="500" style="fill: rgb(255, 255, 255); fill-opacity: 1;"/><defs id="defs-86b6e7"><g class="clips"><clipPath id="clip86b6e7xyplot" class="plotclip"><rect width="423" height="360"/></clipPath><clipPath class="axesclip" id="clip86b6e7x"><rect x="80" y="0" width="423" height="500"/></clipPath><clipPath class="axesclip" id="clip86b6e7y"><rect x="0" y="60" width="700" height="360"/></clipPath><clipPath class="axesclip" id="clip86b6e7xy"><rect x="80" y="60" width="423" height="360"/></clipPath></g><g class="gradients"/></defs><g class="bglayer"><rect class="bg" x="80" y="60" width="423" height="360" style="fill: rgb(229, 236, 246); fill-opacity: 1; stroke-width: 0;"/></g><g class="layer-below"><g class="imagelayer"/><g class="shapelayer"/></g><g class="cartesianlayer"><g class="subplot xy"><g class="layer-subplot"><g class="shapelayer"/><g class="imagelayer"/></g><g class="gridlayer"><g class="x"><path class="xgrid crisp" transform="translate(231.07,0)" d="M0,60v360" style="stroke: rgb(255, 255, 255); stroke-opacity: 1; stroke-width: 1px;"/><path class="xgrid crisp" transform="translate(382.14,0)" d="M0,60v360" style="stroke: rgb(255, 255, 255); stroke-opacity: 1; stroke-width: 1px;"/></g><g class="y"><path class="ygrid crisp" transform="translate(0,351.6)" d="M80,0h423" style="stroke: rgb(255, 255, 255); stroke-opacity: 1; stroke-width: 1px;"/><path class="ygrid crisp" transform="translate(0,283.2)" d="M80,0h423" style="stroke: rgb(255, 255, 255); stroke-opacity: 1; stroke-width: 1px;"/><path class="ygrid crisp" transform="translate(0,214.8)" d="M80,0h423" style="stroke: rgb(255, 255, 255); stroke-opacity: 1; stroke-width: 1px;"/><path class="ygrid crisp" transform="translate(0,146.4)" d="M80,0h423" style="stroke: rgb(255, 255, 255); stroke-opacity: 1; stroke-width: 1px;"/><path class="ygrid crisp" transform="translate(0,78)" d="M80,0h423" style="stroke: rgb(255, 255, 255); stroke-opacity: 1; stroke-width: 1px;"/></g></g><g class="zerolinelayer"><path class="yzl zl crisp" transform="translate(0,420)" d="M80,0h423" style="stroke: rgb(255, 255, 255); stroke-opacity: 1; stroke-width: 2px;"/></g><path class="xlines-below"/><path class="ylines-below"/><g class="overlines-below"/><g class="xaxislayer-below"/><g class="yaxislayer-below"/><g class="overaxes-below"/><g class="plot" transform="translate(80,60)" clip-path="url('#clip86b6e7xyplot')"><g class="scatterlayer mlayer"><g class="trace scatter tracefbd63c" style="stroke-miterlimit: 2;"><g class="fills"><g><path class="js-fill" d="M423,360L0,360L0,267.11L30.21,316.51L60.43,322.43L90.64,315.44L120.86,336.2L181.29,320.61L211.5,323.66L241.71,317.14L271.93,307.94L302.14,309.13L332.36,306.87L362.57,298.64L392.79,295.9L423,295.64" style="fill: rgb(255, 0, 0); fill-opacity: 0.5; stroke-width: 0;"/></g><g><path class="js-fill" d="M0,78.16L30.21,214.67L60.43,254.83L90.64,253.81L120.86,203.69L151.07,233.8L181.29,228.38L211.5,257.58L241.71,268.87L271.93,271.66L302.14,278.79L332.36,279.82L362.57,269.72L392.79,265.42L423,269.07L423,295.64L392.79,295.9L362.57,298.64L332.36,306.87L302.14,309.13L271.93,307.94L241.71,317.14L211.5,323.66L181.29,320.61L120.86,336.2L90.64,315.44L60.43,322.43L30.21,316.51L0,267.11Z" style="fill: rgb(0, 0, 255); fill-opacity: 0.5; stroke-width: 0;"/></g></g><g class="errorbars"/><g class="lines"><path class="js-line" d="M0,267.11L30.21,316.51L60.43,322.43L90.64,315.44L120.86,336.2L181.29,320.61L211.5,323.66L241.71,317.14L271.93,307.94L302.14,309.13L332.36,306.87L362.57,298.64L392.79,295.9L423,295.64" style="vector-effect: non-scaling-stroke; fill: none; stroke: rgb(255, 0, 0); stroke-opacity: 1; stroke-width: 2px; opacity: 1;"/></g><g class="points"/><g class="text"/></g><g class="trace scatter tracec7102f" style="stroke-miterlimit: 2;"><g class="fills"><g><path class="js-fill" d="M0,42.59L30.21,193.5L60.43,229.67L90.64,232.42L120.86,185.91L151.07,233.8L181.29,228.38L211.5,257.58L241.71,268.87L271.93,271.66L302.14,278.79L332.36,279.82L362.57,269.72L392.79,265.42L423,269.07L423,269.07L392.79,265.42L362.57,269.72L332.36,279.82L302.14,278.79L271.93,271.66L241.71,268.87L211.5,257.58L181.29,228.38L151.07,233.8L120.86,203.69L90.64,253.81L60.43,254.83L30.21,214.67L0,78.16Z" style="fill: rgb(0, 128, 0); fill-opacity: 0.5; stroke-width: 0;"/></g></g><g class="errorbars"/><g class="lines"><path class="js-line" d="M0,78.16L30.21,214.67L60.43,254.83L90.64,253.81L120.86,203.69L151.07,233.8L181.29,228.38L211.5,257.58L241.71,268.87L271.93,271.66L302.14,278.79L332.36,279.82L362.57,269.72L392.79,265.42L423,269.07" style="vector-effect: non-scaling-stroke; fill: none; stroke: rgb(0, 0, 255); stroke-opacity: 1; stroke-width: 2px; opacity: 1;"/></g><g class="points"/><g class="text"/></g><g class="trace scatter trace336c46" style="stroke-miterlimit: 2;"><g class="fills"><g><path class="js-fill" d="M0,18L30.21,111.87L60.43,175.28L90.64,131.51L120.86,108.95L151.07,146.62L181.29,149.14L211.5,170.72L241.71,180.5L271.93,193.85L302.14,197.54L332.36,199.86L362.57,190.92L392.79,199.96L423,205.29L423,269.07L392.79,265.42L362.57,269.72L332.36,279.82L302.14,278.79L271.93,271.66L241.71,268.87L211.5,257.58L181.29,228.38L151.07,233.8L120.86,185.91L90.64,232.42L60.43,229.67L30.21,193.5L0,42.59Z" style="fill: rgb(255, 165, 0); fill-opacity: 0.5; stroke-width: 0;"/></g></g><g class="errorbars"/><g class="lines"><path class="js-line" d="M0,42.59L30.21,193.5L60.43,229.67L90.64,232.42L120.86,185.91L151.07,233.8L181.29,228.38L211.5,257.58L241.71,268.87L271.93,271.66L302.14,278.79L332.36,279.82L362.57,269.72L392.79,265.42L423,269.07" style="vector-effect: non-scaling-stroke; fill: none; stroke: rgb(0, 128, 0); stroke-opacity: 1; stroke-width: 2px; opacity: 1;"/></g><g class="points"/><g class="text"/></g><g class="trace scatter trace76a215" style="stroke-miterlimit: 2;"><g class="fills"><g><path class="js-fill" d="M0,18L30.21,89.65L60.43,175.28L90.64,131.51L120.86,108.95L151.07,126.45L181.29,108.01L211.5,129.74L241.71,118.37L271.93,118.02L302.14,113.12L332.36,112.58L362.57,128.75L392.79,146.18L423,154.94L423,205.29L392.79,199.96L362.57,190.92L332.36,199.86L302.14,197.54L271.93,193.85L241.71,180.5L211.5,170.72L181.29,149.14L151.07,146.62L120.86,108.95L90.64,131.51L60.43,175.28L30.21,111.87L0,18Z" style="fill: rgb(0, 255, 255); fill-opacity: 0.5; stroke-width: 0;"/></g></g><g class="errorbars"/><g class="lines"><path class="js-line" d="M0,18L30.21,111.87L60.43,175.28L90.64,131.51L120.86,108.95L151.07,146.62L181.29,149.14L211.5,170.72L241.71,180.5L271.93,193.85L302.14,197.54L332.36,199.86L362.57,190.92L392.79,199.96L423,205.29" style="vector-effect: non-scaling-stroke; fill: none; stroke: rgb(255, 165, 0); stroke-opacity: 1; stroke-width: 2px; opacity: 1;"/></g><g class="points"/><g class="text"/></g><g class="trace scatter trace003211" style="stroke-miterlimit: 2;"><g class="fills"><g><path class="js-fill" d="M0,18L30.21,18L60.43,97.73L90.64,62.4L120.86,72.07L151.07,95.44L181.29,77.51L211.5,104.64L241.71,88.87L271.93,118.02L302.14,113.12L332.36,112.58L362.57,128.75L392.79,123.31L423,111.99L423,154.94L392.79,146.18L362.57,128.75L332.36,112.58L302.14,113.12L271.93,118.02L241.71,118.37L211.5,129.74L181.29,108.01L151.07,126.45L120.86,108.95L90.64,131.51L60.43,175.28L30.21,89.65L0,18Z" style="fill: rgb(0, 255, 0); fill-opacity: 0.5; stroke-width: 0;"/></g></g><g class="errorbars"/><g class="lines"><path class="js-line" d="M0,18L30.21,89.65L60.43,175.28L90.64,131.51L120.86,108.95L151.07,126.45L181.29,108.01L211.5,129.74L241.71,118.37L271.93,118.02L302.14,113.12L332.36,112.58L362.57,128.75L392.79,146.18L423,154.94" style="vector-effect: non-scaling-stroke; fill: none; stroke: rgb(0, 255, 255); stroke-opacity: 1; stroke-width: 2px; opacity: 1;"/></g><g class="points"/><g class="text"/></g><g class="trace scatter trace7807b7" style="stroke-miterlimit: 2;"><g class="fills"><g><path class="js-fill" d="M0,18L30.21,18L60.43,52.52L120.86,72.07L151.07,95.44L181.29,77.51L211.5,104.64L241.71,88.87L271.93,91.95L302.14,80.17L332.36,75.39L362.57,78.28L392.79,78.48L423,68.72L423,111.99L392.79,123.31L362.57,128.75L332.36,112.58L302.14,113.12L271.93,118.02L241.71,88.87L211.5,104.64L181.29,77.51L151.07,95.44L120.86,72.07L90.64,62.4L60.43,97.73L30.21,18L0,18Z" style="fill: rgb(255, 255, 0); fill-opacity: 0.5; stroke-width: 0;"/></g></g><g class="errorbars"/><g class="lines"><path class="js-line" d="M0,18L30.21,18L60.43,97.73L90.64,62.4L120.86,72.07L151.07,95.44L181.29,77.51L211.5,104.64L241.71,88.87L271.93,118.02L302.14,113.12L332.36,112.58L362.57,128.75L392.79,123.31L423,111.99" style="vector-effect: non-scaling-stroke; fill: none; stroke: rgb(0, 255, 0); stroke-opacity: 1; stroke-width: 2px; opacity: 1;"/></g><g class="points"/><g class="text"/></g><g class="trace scatter trace33657d" style="stroke-miterlimit: 2;"><g class="fills"><g><path class="js-fill" d="M0,18L60.43,18L90.64,62.4L120.86,41.93L151.07,37.72L181.29,42.42L211.5,18L241.71,18L271.93,39.61L302.14,36.75L332.36,36.36L362.57,37.93L392.79,42.19L423,40.11L423,68.72L392.79,78.48L362.57,78.28L332.36,75.39L302.14,80.17L271.93,91.95L241.71,88.87L211.5,104.64L181.29,77.51L151.07,95.44L120.86,72.07L60.43,52.52L30.21,18L0,18Z" style="fill: rgb(173, 216, 230); fill-opacity: 0.5; stroke-width: 0;"/></g></g><g class="errorbars"/><g class="lines"><path class="js-line" d="M0,18L30.21,18L60.43,52.52L120.86,72.07L151.07,95.44L181.29,77.51L211.5,104.64L241.71,88.87L271.93,91.95L302.14,80.17L332.36,75.39L362.57,78.28L392.79,78.48L423,68.72" style="vector-effect: non-scaling-stroke; fill: none; stroke: rgb(255, 255, 0); stroke-opacity: 1; stroke-width: 2px; opacity: 1;"/></g><g class="points"/><g class="text"/></g><g class="trace scatter tracee71083" style="stroke-miterlimit: 2;"><g class="fills"><g><path class="js-fill" d="M0,18L60.43,18L90.64,36.48L120.86,41.93L151.07,37.72L181.29,18L211.5,18L423,18L423,40.11L392.79,42.19L362.57,37.93L332.36,36.36L302.14,36.75L271.93,39.61L241.71,18L211.5,18L181.29,42.42L151.07,37.72L120.86,41.93L90.64,62.4L60.43,18L0,18Z" style="fill: rgb(144, 238, 144); fill-opacity: 0.5; stroke-width: 0;"/></g></g><g class="errorbars"/><g class="lines"><path class="js-line" d="M0,18L60.43,18L90.64,62.4L120.86,41.93L151.07,37.72L181.29,42.42L211.5,18L241.71,18L271.93,39.61L302.14,36.75L332.36,36.36L362.57,37.93L392.79,42.19L423,40.11" style="vector-effect: non-scaling-stroke; fill: none; stroke: rgb(173, 216, 230); stroke-opacity: 1; stroke-width: 2px; opacity: 1;"/></g><g class="points"/><g class="text"/></g><g class="trace scatter trace3553c2" style="stroke-miterlimit: 2;"><g class="fills"><g><path class="js-fill" d="M0,18L423,18L423,18L211.5,18L181.29,18L151.07,37.72L120.86,41.93L90.64,36.48L60.43,18L0,18Z" style="fill: rgb(165, 42, 42); fill-opacity: 0.5; stroke-width: 0;"/></g></g><g class="errorbars"/><g class="lines"><path class="js-line" d="M0,18L60.43,18L90.64,36.48L120.86,41.93L151.07,37.72L181.29,18L211.5,18L423,18" style="vector-effect: non-scaling-stroke; fill: none; stroke: rgb(144, 238, 144); stroke-opacity: 1; stroke-width: 2px; opacity: 1;"/></g><g class="points"/><g class="text"/></g><g class="trace scatter tracec3ccef" style="stroke-miterlimit: 2;"><g class="fills"/><g class="errorbars"/><g class="lines"><path class="js-line" d="M0,18L423,18" style="vector-effect: non-scaling-stroke; fill: none; stroke: rgb(165, 42, 42); stroke-opacity: 1; stroke-width: 2px; opacity: 1;"/></g><g class="points"/><g class="text"/></g></g></g><g class="overplot"/><path class="xlines-above crisp" d="M0,0" style="fill: none;"/><path class="ylines-above crisp" d="M0,0" style="fill: none;"/><g class="overlines-above"/><g class="xaxislayer-above"><g class="xtick"><text text-anchor="middle" x="0" y="433" transform="translate(80,0)" style="font-family: 'Open Sans', verdana, arial, sans-serif; font-size: 12px; fill: rgb(42, 63, 95); fill-opacity: 1; white-space: pre;">2005</text></g><g class="xtick"><text text-anchor="middle" x="0" y="433" transform="translate(231.07,0)" style="font-family: 'Open Sans', verdana, arial, sans-serif; font-size: 12px; fill: rgb(42, 63, 95); fill-opacity: 1; white-space: pre;">2010</text></g><g class="xtick"><text text-anchor="middle" x="0" y="433" transform="translate(382.14,0)" style="font-family: 'Open Sans', verdana, arial, sans-serif; font-size: 12px; fill: rgb(42, 63, 95); fill-opacity: 1; white-space: pre;">2015</text></g></g><g class="yaxislayer-above"><g class="ytick"><text text-anchor="end" x="79" y="4.199999999999999" transform="translate(0,420)" style="font-family: 'Open Sans', verdana, arial, sans-serif; font-size: 12px; fill: rgb(42, 63, 95); fill-opacity: 1; white-space: pre;">0</text></g><g class="ytick"><text text-anchor="end" x="79" y="4.199999999999999" transform="translate(0,351.6)" style="font-family: 'Open Sans', verdana, arial, sans-serif; font-size: 12px; fill: rgb(42, 63, 95); fill-opacity: 1; white-space: pre;">20</text></g><g class="ytick"><text text-anchor="end" x="79" y="4.199999999999999" transform="translate(0,283.2)" style="font-family: 'Open Sans', verdana, arial, sans-serif; font-size: 12px; fill: rgb(42, 63, 95); fill-opacity: 1; white-space: pre;">40</text></g><g class="ytick"><text text-anchor="end" x="79" y="4.199999999999999" transform="translate(0,214.8)" style="font-family: 'Open Sans', verdana, arial, sans-serif; font-size: 12px; fill: rgb(42, 63, 95); fill-opacity: 1; white-space: pre;">60</text></g><g class="ytick"><text text-anchor="end" x="79" y="4.199999999999999" transform="translate(0,146.4)" style="font-family: 'Open Sans', verdana, arial, sans-serif; font-size: 12px; fill: rgb(42, 63, 95); fill-opacity: 1; white-space: pre;">80</text></g><g class="ytick"><text text-anchor="end" x="79" y="4.199999999999999" transform="translate(0,78)" style="font-family: 'Open Sans', verdana, arial, sans-serif; font-size: 12px; fill: rgb(42, 63, 95); fill-opacity: 1; white-space: pre;">100</text></g></g><g class="overaxes-above"/></g></g><g class="polarlayer"/><g class="ternarylayer"/><g class="geolayer"/><g class="funnelarealayer"/><g class="pielayer"/><g class="treemaplayer"/><g class="sunburstlayer"/><g class="glimages"/><defs id="topdefs-86b6e7"><g class="clips"/><clipPath id="legend86b6e7"><rect width="177" height="216" x="0" y="0"/></clipPath></defs><g class="layer-above"><g class="imagelayer"/><g class="shapelayer"/></g><g class="infolayer"><g class="legend" pointer-events="all" transform="translate(511.46,60)"><rect class="bg" shape-rendering="crispEdges" style="stroke: rgb(68, 68, 68); stroke-opacity: 1; fill: rgb(255, 255, 255); fill-opacity: 1; stroke-width: 0px;" width="177" height="216" x="0" y="0"/><g class="scrollbox" transform="" clip-path="url('#legend86b6e7')"><text class="legendtitletext" text-anchor="start" x="2" y="15.600000000000001" style="font-family: 'Open Sans', verdana, arial, sans-serif; font-size: 12px; fill: rgb(42, 63, 95); fill-opacity: 1; white-space: pre;">Category</text><g class="groups" transform=""><g class="traces" transform="translate(0,30.1)" style="opacity: 1;"><text class="legendtext" text-anchor="start" x="40" y="4.680000000000001" style="font-family: 'Open Sans', verdana, arial, sans-serif; font-size: 12px; fill: rgb(42, 63, 95); fill-opacity: 1; white-space: pre;">Entertainment</text><g class="layers"><g class="legendfill"><path class="js-fill" d="M5,-2h30v6h-30z" style="stroke-width: 0; fill: rgb(255, 0, 0); fill-opacity: 0.5;"/></g><g class="legendlines"><path class="js-line" d="M5,-2h30" style="fill: none; stroke: rgb(255, 0, 0); stroke-opacity: 1; stroke-width: 2px;"/></g><g class="legendsymbols"><g class="legendpoints"/></g></g><rect class="legendtoggle" x="0" y="-9.5" width="171.078125" height="19" style="fill: rgb(0, 0, 0); fill-opacity: 0;"/></g></g><g class="groups" transform=""><g class="traces" transform="translate(0,49.1)" style="opacity: 1;"><text class="legendtext" text-anchor="start" x="40" y="4.680000000000001" style="font-family: 'Open Sans', verdana, arial, sans-serif; font-size: 12px; fill: rgb(42, 63, 95); fill-opacity: 1; white-space: pre;">Music</text><g class="layers"><g class="legendfill"><path class="js-fill" d="M5,-2h30v6h-30z" style="stroke-width: 0; fill: rgb(0, 0, 255); fill-opacity: 0.5;"/></g><g class="legendlines"><path class="js-line" d="M5,-2h30" style="fill: none; stroke: rgb(0, 0, 255); stroke-opacity: 1; stroke-width: 2px;"/></g><g class="legendsymbols"><g class="legendpoints"/></g></g><rect class="legendtoggle" x="0" y="-9.5" width="171.078125" height="19" style="fill: rgb(0, 0, 0); fill-opacity: 0;"/></g></g><g class="groups" transform=""><g class="traces" transform="translate(0,68.1)" style="opacity: 1;"><text class="legendtext" text-anchor="start" x="40" y="4.680000000000001" style="font-family: 'Open Sans', verdana, arial, sans-serif; font-size: 12px; fill: rgb(42, 63, 95); fill-opacity: 1; white-space: pre;">Comedy</text><g class="layers"><g class="legendfill"><path class="js-fill" d="M5,-2h30v6h-30z" style="stroke-width: 0; fill: rgb(0, 128, 0); fill-opacity: 0.5;"/></g><g class="legendlines"><path class="js-line" d="M5,-2h30" style="fill: none; stroke: rgb(0, 128, 0); stroke-opacity: 1; stroke-width: 2px;"/></g><g class="legendsymbols"><g class="legendpoints"/></g></g><rect class="legendtoggle" x="0" y="-9.5" width="171.078125" height="19" style="fill: rgb(0, 0, 0); fill-opacity: 0;"/></g></g><g class="groups" transform=""><g class="traces" transform="translate(0,87.1)" style="opacity: 1;"><text class="legendtext" text-anchor="start" x="40" y="4.680000000000001" style="font-family: 'Open Sans', verdana, arial, sans-serif; font-size: 12px; fill: rgb(42, 63, 95); fill-opacity: 1; white-space: pre;">Other</text><g class="layers"><g class="legendfill"><path class="js-fill" d="M5,-2h30v6h-30z" style="stroke-width: 0; fill: rgb(255, 165, 0); fill-opacity: 0.5;"/></g><g class="legendlines"><path class="js-line" d="M5,-2h30" style="fill: none; stroke: rgb(255, 165, 0); stroke-opacity: 1; stroke-width: 2px;"/></g><g class="legendsymbols"><g class="legendpoints"/></g></g><rect class="legendtoggle" x="0" y="-9.5" width="171.078125" height="19" style="fill: rgb(0, 0, 0); fill-opacity: 0;"/></g></g><g class="groups" transform=""><g class="traces" transform="translate(0,106.1)" style="opacity: 1;"><text class="legendtext" text-anchor="start" x="40" y="4.680000000000001" style="font-family: 'Open Sans', verdana, arial, sans-serif; font-size: 12px; fill: rgb(42, 63, 95); fill-opacity: 1; white-space: pre;">Gaming</text><g class="layers"><g class="legendfill"><path class="js-fill" d="M5,-2h30v6h-30z" style="stroke-width: 0; fill: rgb(0, 255, 255); fill-opacity: 0.5;"/></g><g class="legendlines"><path class="js-line" d="M5,-2h30" style="fill: none; stroke: rgb(0, 255, 255); stroke-opacity: 1; stroke-width: 2px;"/></g><g class="legendsymbols"><g class="legendpoints"/></g></g><rect class="legendtoggle" x="0" y="-9.5" width="171.078125" height="19" style="fill: rgb(0, 0, 0); fill-opacity: 0;"/></g></g><g class="groups" transform=""><g class="traces" transform="translate(0,125.1)" style="opacity: 1;"><text class="legendtext" text-anchor="start" x="40" y="4.680000000000001" style="font-family: 'Open Sans', verdana, arial, sans-serif; font-size: 12px; fill: rgb(42, 63, 95); fill-opacity: 1; white-space: pre;">News &amp; Politics</text><g class="layers"><g class="legendfill"><path class="js-fill" d="M5,-2h30v6h-30z" style="stroke-width: 0; fill: rgb(0, 255, 0); fill-opacity: 0.5;"/></g><g class="legendlines"><path class="js-line" d="M5,-2h30" style="fill: none; stroke: rgb(0, 255, 0); stroke-opacity: 1; stroke-width: 2px;"/></g><g class="legendsymbols"><g class="legendpoints"/></g></g><rect class="legendtoggle" x="0" y="-9.5" width="171.078125" height="19" style="fill: rgb(0, 0, 0); fill-opacity: 0;"/></g></g><g class="groups" transform=""><g class="traces" transform="translate(0,144.1)" style="opacity: 1;"><text class="legendtext" text-anchor="start" x="40" y="4.680000000000001" style="font-family: 'Open Sans', verdana, arial, sans-serif; font-size: 12px; fill: rgb(42, 63, 95); fill-opacity: 1; white-space: pre;">People &amp; Blogs</text><g class="layers"><g class="legendfill"><path class="js-fill" d="M5,-2h30v6h-30z" style="stroke-width: 0; fill: rgb(255, 255, 0); fill-opacity: 0.5;"/></g><g class="legendlines"><path class="js-line" d="M5,-2h30" style="fill: none; stroke: rgb(255, 255, 0); stroke-opacity: 1; stroke-width: 2px;"/></g><g class="legendsymbols"><g class="legendpoints"/></g></g><rect class="legendtoggle" x="0" y="-9.5" width="171.078125" height="19" style="fill: rgb(0, 0, 0); fill-opacity: 0;"/></g></g><g class="groups" transform=""><g class="traces" transform="translate(0,163.1)" style="opacity: 1;"><text class="legendtext" text-anchor="start" x="40" y="4.680000000000001" style="font-family: 'Open Sans', verdana, arial, sans-serif; font-size: 12px; fill: rgb(42, 63, 95); fill-opacity: 1; white-space: pre;">Howto &amp; Style</text><g class="layers"><g class="legendfill"><path class="js-fill" d="M5,-2h30v6h-30z" style="stroke-width: 0; fill: rgb(173, 216, 230); fill-opacity: 0.5;"/></g><g class="legendlines"><path class="js-line" d="M5,-2h30" style="fill: none; stroke: rgb(173, 216, 230); stroke-opacity: 1; stroke-width: 2px;"/></g><g class="legendsymbols"><g class="legendpoints"/></g></g><rect class="legendtoggle" x="0" y="-9.5" width="171.078125" height="19" style="fill: rgb(0, 0, 0); fill-opacity: 0;"/></g></g><g class="groups" transform=""><g class="traces" transform="translate(0,182.1)" style="opacity: 1;"><text class="legendtext" text-anchor="start" x="40" y="4.680000000000001" style="font-family: 'Open Sans', verdana, arial, sans-serif; font-size: 12px; fill: rgb(42, 63, 95); fill-opacity: 1; white-space: pre;">Education</text><g class="layers"><g class="legendfill"><path class="js-fill" d="M5,-2h30v6h-30z" style="stroke-width: 0; fill: rgb(144, 238, 144); fill-opacity: 0.5;"/></g><g class="legendlines"><path class="js-line" d="M5,-2h30" style="fill: none; stroke: rgb(144, 238, 144); stroke-opacity: 1; stroke-width: 2px;"/></g><g class="legendsymbols"><g class="legendpoints"/></g></g><rect class="legendtoggle" x="0" y="-9.5" width="171.078125" height="19" style="fill: rgb(0, 0, 0); fill-opacity: 0;"/></g></g><g class="groups" transform=""><g class="traces" transform="translate(0,201.1)" style="opacity: 1;"><text class="legendtext" text-anchor="start" x="40" y="4.680000000000001" style="font-family: 'Open Sans', verdana, arial, sans-serif; font-size: 12px; fill: rgb(42, 63, 95); fill-opacity: 1; white-space: pre;">Science &amp; Technology</text><g class="layers"><g class="legendfill"><path class="js-fill" d="M5,-2h30v6h-30z" style="stroke-width: 0; fill: rgb(165, 42, 42); fill-opacity: 0.5;"/></g><g class="legendlines"><path class="js-line" d="M5,-2h30" style="fill: none; stroke: rgb(165, 42, 42); stroke-opacity: 1; stroke-width: 2px;"/></g><g class="legendsymbols"><g class="legendpoints"/></g></g><rect class="legendtoggle" x="0" y="-9.5" width="171.078125" height="19" style="fill: rgb(0, 0, 0); fill-opacity: 0;"/></g></g></g><rect class="scrollbar" rx="20" ry="3" width="0" height="0" style="fill: rgb(128, 139, 164); fill-opacity: 1;" x="0" y="0"/></g><g class="g-gtitle"/><g class="g-xtitle"><text class="xtitle" x="291.5" y="460.8" text-anchor="middle" style="font-family: 'Open Sans', verdana, arial, sans-serif; font-size: 14px; fill: rgb(42, 63, 95); opacity: 1; font-weight: normal; white-space: pre;">Year</text></g><g class="g-ytitle"><text class="ytitle" transform="rotate(-90,31.309375000000003,240)" x="31.309375000000003" y="240" text-anchor="middle" style="font-family: 'Open Sans', verdana, arial, sans-serif; font-size: 14px; fill: rgb(42, 63, 95); opacity: 1; font-weight: normal; white-space: pre;">Proportion of Comments (%)</text></g></g></svg>