<svg class="main-svg" xmlns="http://www.w3.org/2000/svg" xmlns:xlink="http://www.w3.org/1999/xlink" width="700" height="500" style="" viewBox="0 0 700 500"><rect x="0" y="0" width="700" height="500" style="fill: rgb(255, 255, 255); fill-opacity: 1;"/><defs id="defs-fd4725"><g class="clips"><clipPath id="clipfd4725xyplot" class="plotclip"><rect width="450" height="360"/></clipPath><clipPath class="axesclip" id="clipfd4725x"><rect x="80" y="0" width="450" height="500"/></clipPath><clipPath class="axesclip" id="clipfd4725y"><rect x="0" y="60" width="700" height="360"/></clipPath><clipPath class="axesclip" id="clipfd4725xy"><rect x="80" y="60" width="450" height="360"/></clipPath></g><g class="gradients"/></defs><g class="bglayer"><rect class="bg" x="80" y="60" width="450" height="360" style="fill: rgb(229, 236, 246); fill-opacity: 1; stroke-width: 0;"/></g><g class="layer-below"><g class="imagelayer"/><g class="shapelayer"/></g><g class="cartesianlayer"><g class="subplot xy"><g class="layer-subplot"><g class="shapelayer"/><g class="imagelayer"/></g><g class="gridlayer"><g class="x"><path class="xgrid crisp" transform="translate(240.71,0)" d="M0,60v360" style="stroke: rgb(255, 255, 255); stroke-opacity: 1; stroke-width: 1px;"/><path class="xgrid crisp" transform="translate(401.43,0)" d="M0,60v360" style="stroke: rgb(255, 255, 255); stroke-opacity: 1; stroke-width: 1px;"/></g><g class="y"><path class="ygrid crisp" transform="translate(0,351.6)" d="M80,0h450" style="stroke: rgb(255, 255, 255); stroke-opacity: 1; stroke-width: 1px;"/><path class="ygrid crisp" transform="translate(0,283.2)" d="M80,0h450" style="stroke: rgb(255, 255, 255); stroke-opacity: 1; stroke-width: 1px;"/><path class="ygrid crisp" transform="translate(0,214.8)" d="M80,0h450" style="stroke: rgb(255, 255, 255); stroke-opacity: 1; stroke-width: 1px;"/><path class="ygrid crisp" transform="translate(0,146.4)" d="M80,0h450" style="stroke: rgb(255, 255, 255); stroke-opacity: 1; stroke-width: 1px;"/><path class="ygrid crisp" transform="translate(0,78)" d="M80,0h450" style="stroke: rgb(255, 255, 255); stroke-opacity: 1; stroke-width: 1px;"/></g></g><g class="zerolinelayer"><path class="yzl zl crisp" transform="translate(0,420)" d="M80,0h450" style="stroke: rgb(255, 255, 255); stroke-opacity: 1; stroke-width: 2px;"/></g><path class="xlines-below"/><path class="ylines-below"/><g class="overlines-below"/><g class="xaxislayer-below"/><g class="yaxislayer-below"/><g class="overaxes-below"/><g class="plot" transform="translate(80,60)" clip-path="url('#clipfd4725xyplot')"><g class="scatterlayer mlayer"><g class="trace scatter trace759222" style="stroke-miterlimit: 2;"><g class="fills"><g><path class="js-fill" d="M450,360L0,360L0,332.11L32.14,287.34L64.29,294.24L96.43,286.98L128.57,315.74L160.71,295.53L192.86,297.27L225,298.66L257.14,302.66L289.29,296.6L321.43,301.11L353.57,296.86L385.71,284.1L417.86,279.97L450,278.64" style="fill: rgb(255, 0, 0); fill-opacity: 0.5; stroke-width: 0;"/></g><g><path class="js-fill" d="M0,193.49L32.14,170.07L64.29,184.78L96.43,204.23L128.57,165.65L160.71,219.31L192.86,237.78L225,258.27L257.14,272.61L289.29,269.51L321.43,277.77L353.57,277.73L385.71,264.13L417.86,258.1L450,260.37L450,278.64L417.86,279.97L385.71,284.1L353.57,296.86L321.43,301.11L289.29,296.6L257.14,302.66L225,298.66L192.86,297.27L160.71,295.53L128.57,315.74L96.43,286.98L64.29,294.24L32.14,287.34L0,332.11Z" style="fill: rgb(0, 0, 255); fill-opacity: 0.5; stroke-width: 0;"/></g></g><g class="errorbars"/><g class="lines"><path class="js-line" d="M0,332.11L32.14,287.34L64.29,294.24L96.43,286.98L128.57,315.74L160.71,295.53L192.86,297.27L225,298.66L257.14,302.66L289.29,296.6L321.43,301.11L353.57,296.86L385.71,284.1L417.86,279.97L450,278.64" style="vector-effect: non-scaling-stroke; fill: none; stroke: rgb(255, 0, 0); stroke-opacity: 1; stroke-width: 2px; opacity: 1;"/></g><g class="points"/><g class="text"/></g><g class="trace scatter traced1825a" style="stroke-miterlimit: 2;"><g class="fills"><g><path class="js-fill" d="M0,38.94L32.14,118.67L64.29,128.19L96.43,146.53L128.57,118.9L160.71,180.96L192.86,207.62L225,229.91L257.14,249.23L289.29,247.86L321.43,251.74L353.57,255.69L385.71,240.21L417.86,237.08L450,241.52L450,260.37L417.86,258.1L385.71,264.13L353.57,277.73L321.43,277.77L289.29,269.51L257.14,272.61L225,258.27L192.86,237.78L160.71,219.31L128.57,165.65L96.43,204.23L64.29,184.78L32.14,170.07L0,193.49Z" style="fill: rgb(0, 128, 0); fill-opacity: 0.5; stroke-width: 0;"/></g></g><g class="errorbars"/><g class="lines"><path class="js-line" d="M0,193.49L32.14,170.07L64.29,184.78L96.43,204.23L128.57,165.65L160.71,219.31L192.86,237.78L225,258.27L257.14,272.61L289.29,269.51L321.43,277.77L353.57,277.73L385.71,264.13L417.86,258.1L450,260.37" style="vector-effect: non-scaling-stroke; fill: none; stroke: rgb(0, 0, 255); stroke-opacity: 1; stroke-width: 2px; opacity: 1;"/></g><g class="points"/><g class="text"/></g><g class="trace scatter traceebefd9" style="stroke-miterlimit: 2;"><g class="fills"><g><path class="js-fill" d="M0,18L32.14,73L64.29,36.54L96.43,60.29L128.57,44.09L160.71,111.14L192.86,162.37L225,165.4L257.14,191.58L321.43,187.4L353.57,189.22L385.71,170.06L417.86,178.18L450,165.78L450,241.52L417.86,237.08L385.71,240.21L353.57,255.69L321.43,251.74L289.29,247.86L257.14,249.23L225,229.91L192.86,207.62L160.71,180.96L128.57,118.9L96.43,146.53L64.29,128.19L32.14,118.67L0,38.94Z" style="fill: rgb(255, 165, 0); fill-opacity: 0.5; stroke-width: 0;"/></g></g><g class="errorbars"/><g class="lines"><path class="js-line" d="M0,38.94L32.14,118.67L64.29,128.19L96.43,146.53L128.57,118.9L160.71,180.96L192.86,207.62L225,229.91L257.14,249.23L289.29,247.86L321.43,251.74L353.57,255.69L385.71,240.21L417.86,237.08L450,241.52" style="vector-effect: non-scaling-stroke; fill: none; stroke: rgb(0, 128, 0); stroke-opacity: 1; stroke-width: 2px; opacity: 1;"/></g><g class="points"/><g class="text"/></g><g class="trace scatter tracefb83fc" style="stroke-miterlimit: 2;"><g class="fills"><g><path class="js-fill" d="M0,18L32.14,41.46L64.29,36.54L96.43,36.84L128.57,18L160.71,58.42L192.86,75.98L225,58.23L257.14,58.78L289.29,63.23L321.43,66.42L385.71,76.39L417.86,94.38L450,89.75L450,165.78L417.86,178.18L385.71,170.06L353.57,189.22L321.43,187.4L257.14,191.58L225,165.4L192.86,162.37L160.71,111.14L128.57,44.09L96.43,60.29L64.29,36.54L32.14,73L0,18Z" style="fill: rgb(0, 255, 255); fill-opacity: 0.5; stroke-width: 0;"/></g></g><g class="errorbars"/><g class="lines"><path class="js-line" d="M0,18L32.14,73L64.29,36.54L96.43,60.29L128.57,44.09L160.71,111.14L192.86,162.37L225,165.4L257.14,191.58L321.43,187.4L353.57,189.22L385.71,170.06L417.86,178.18L450,165.78" style="vector-effect: non-scaling-stroke; fill: none; stroke: rgb(255, 165, 0); stroke-opacity: 1; stroke-width: 2px; opacity: 1;"/></g><g class="points"/><g class="text"/></g><g class="trace scatter trace2ebd13" style="stroke-miterlimit: 2;"><g class="fills"><g><path class="js-fill" d="M0,18L32.14,18L64.29,36.54L96.43,18L128.57,18L160.71,38.23L192.86,54.79L225,58.23L257.14,58.78L289.29,63.23L321.43,66.42L385.71,76.39L417.86,94.38L450,89.75L450,89.75L417.86,94.38L385.71,76.39L321.43,66.42L289.29,63.23L257.14,58.78L225,58.23L192.86,75.98L160.71,58.42L128.57,18L96.43,36.84L64.29,36.54L32.14,41.46L0,18Z" style="fill: rgb(255, 192, 203); fill-opacity: 0.5; stroke-width: 0;"/></g></g><g class="errorbars"/><g class="lines"><path class="js-line" d="M0,18L32.14,41.46L64.29,36.54L96.43,36.84L128.57,18L160.71,58.42L192.86,75.98L225,58.23L257.14,58.78L289.29,63.23L321.43,66.42L385.71,76.39L417.86,94.38L450,89.75" style="vector-effect: non-scaling-stroke; fill: none; stroke: rgb(0, 255, 255); stroke-opacity: 1; stroke-width: 2px; opacity: 1;"/></g><g class="points"/><g class="text"/></g><g class="trace scatter trace492c45" style="stroke-miterlimit: 2;"><g class="fills"><g><path class="js-fill" d="M0,18L160.71,18L192.86,35.59L225,38.83L257.14,39.66L289.29,39.2L321.43,37.19L353.57,36.45L385.71,36.72L417.86,58.63L450,55.76L450,89.75L417.86,94.38L385.71,76.39L321.43,66.42L289.29,63.23L257.14,58.78L225,58.23L192.86,54.79L160.71,38.23L128.57,18L96.43,18L64.29,36.54L32.14,18L0,18Z" style="fill: rgb(255, 255, 0); fill-opacity: 0.5; stroke-width: 0;"/></g></g><g class="errorbars"/><g class="lines"><path class="js-line" d="M0,18L32.14,18L64.29,36.54L96.43,18L128.57,18L160.71,38.23L192.86,54.79L225,58.23L257.14,58.78L289.29,63.23L321.43,66.42L385.71,76.39L417.86,94.38L450,89.75" style="vector-effect: non-scaling-stroke; fill: none; stroke: rgb(255, 192, 203); stroke-opacity: 1; stroke-width: 2px; opacity: 1;"/></g><g class="points"/><g class="text"/></g><g class="trace scatter trace857f7e" style="stroke-miterlimit: 2;"><g class="fills"><g><path class="js-fill" d="M0,18L385.71,18L417.86,41.49L450,55.76L450,55.76L417.86,58.63L385.71,36.72L353.57,36.45L321.43,37.19L289.29,39.2L257.14,39.66L225,38.83L192.86,35.59L160.71,18L0,18Z" style="fill: rgb(173, 216, 230); fill-opacity: 0.5; stroke-width: 0;"/></g></g><g class="errorbars"/><g class="lines"><path class="js-line" d="M0,18L160.71,18L192.86,35.59L225,38.83L257.14,39.66L289.29,39.2L321.43,37.19L353.57,36.45L385.71,36.72L417.86,58.63L450,55.76" style="vector-effect: non-scaling-stroke; fill: none; stroke: rgb(255, 255, 0); stroke-opacity: 1; stroke-width: 2px; opacity: 1;"/></g><g class="points"/><g class="text"/></g><g class="trace scatter trace8c59f6" style="stroke-miterlimit: 2;"><g class="fills"><g><path class="js-fill" d="M0,18L450,18L450,55.76L417.86,41.49L385.71,18L0,18Z" style="fill: rgb(0, 255, 0); fill-opacity: 0.5; stroke-width: 0;"/></g></g><g class="errorbars"/><g class="lines"><path class="js-line" d="M0,18L385.71,18L417.86,41.49L450,55.76" style="vector-effect: non-scaling-stroke; fill: none; stroke: rgb(173, 216, 230); stroke-opacity: 1; stroke-width: 2px; opacity: 1;"/></g><g class="points"/><g class="text"/></g><g class="trace scatter trace3dd1af" style="stroke-miterlimit: 2;"><g class="fills"/><g class="errorbars"/><g class="lines"><path class="js-line" d="M0,18L450,18" style="vector-effect: non-scaling-stroke; fill: none; stroke: rgb(0, 255, 0); stroke-opacity: 1; stroke-width: 2px; opacity: 1;"/></g><g class="points"/><g class="text"/></g></g></g><g class="overplot"/><path class="xlines-above crisp" d="M0,0" style="fill: none;"/><path class="ylines-above crisp" d="M0,0" style="fill: none;"/><g class="overlines-above"/><g class="xaxislayer-above"><g class="xtick"><text text-anchor="middle" x="0" y="433" transform="translate(80,0)" style="font-family: 'Open Sans', verdana, arial, sans-serif; font-size: 12px; fill: rgb(42, 63, 95); fill-opacity: 1; white-space: pre;">2005</text></g><g class="xtick"><text text-anchor="middle" x="0" y="433" transform="translate(240.71,0)" style="font-family: 'Open Sans', verdana, arial, sans-serif; font-size: 12px; fill: rgb(42, 63, 95); fill-opacity: 1; white-space: pre;">2010</text></g><g class="xtick"><text text-anchor="middle" x="0" y="433" transform="translate(401.43,0)" style="font-family: 'Open Sans', verdana, arial, sans-serif; font-size: 12px; fill: rgb(42, 63, 95); fill-opacity: 1; white-space: pre;">2015</text></g></g><g class="yaxislayer-above"><g class="ytick"><text text-anchor="end" x="79" y="4.199999999999999" transform="translate(0,420)" style="font-family: 'Open Sans', verdana, arial, sans-serif; font-size: 12px; fill: rgb(42, 63, 95); fill-opacity: 1; white-space: pre;">0</text></g><g class="ytick"><text text-anchor="end" x="79" y="4.199999999999999" transform="translate(0,351.6)" style="font-family: 'Open Sans', verdana, arial, sans-serif; font-size: 12px; fill: rgb(42, 63, 95); fill-opacity: 1; white-space: pre;">20</text></g><g class="ytick"><text text-anchor="end" x="79" y="4.199999999999999" transform="translate(0,283.2)" style="font-family: 'Open Sans', verdana, arial, sans-serif; font-size: 12px; fill: rgb(42, 63, 95); fill-opacity: 1; white-space: pre;">40</text></g><g class="ytick"><text text-anchor="end" x="79" y="4.199999999999999" transform="translate(0,214.8)" style="font-family: 'Open Sans', verdana, arial, sans-serif; font-size: 12px; fill: rgb(42, 63, 95); fill-opacity: 1; white-space: pre;">60</text></g><g class="ytick"><text text-anchor="end" x="79" y="4.199999999999999" transform="translate(0,146.4)" style="font-family: 'Open Sans', verdana, arial, sans-serif; font-size: 12px; fill: rgb(42, 63, 95); fill-opacity: 1; white-space: pre;">80</text></g><g class="ytick"><text text-anchor="end" x="79" y="4.199999999999999" transform="translate(0,78)" style="font-family: 'Open Sans', verdana, arial, sans-serif; font-size: 12px; fill: rgb(42, 63, 95); fill-opacity: 1; white-space: pre;">100</text></g></g><g class="overaxes-above"/></g></g><g class="polarlayer"/><g class="ternarylayer"/><g class="geolayer"/><g class="funnelarealayer"/><g class="pielayer"/><g class="treemaplayer"/><g class="sunburstlayer"/><g class="glimages"/><defs id="topdefs-fd4725"><g class="clips"/><clipPath id="legendfd4725"><rect width="149" height="197" x="0" y="0"/></clipPath></defs><g class="layer-above"><g class="imagelayer"/><g class="shapelayer"/></g><g class="infolayer"><g class="legend" pointer-events="all" transform="translate(539,60)"><rect class="bg" shape-rendering="crispEdges" width="149" height="197" x="0" y="0" style="stroke: rgb(68, 68, 68); stroke-opacity: 1; fill: rgb(255, 255, 255); fill-opacity: 1; stroke-width: 0px;"/><g class="scrollbox" transform="" clip-path="url('#legendfd4725')"><text class="legendtitletext" text-anchor="start" x="2" y="15.600000000000001" style="font-family: 'Open Sans', verdana, arial, sans-serif; font-size: 12px; fill: rgb(42, 63, 95); fill-opacity: 1; white-space: pre;">Category</text><g class="groups" transform=""><g class="traces" transform="translate(0,30.1)" style="opacity: 1;"><text class="legendtext" text-anchor="start" x="40" y="4.680000000000001" style="font-family: 'Open Sans', verdana, arial, sans-serif; font-size: 12px; fill: rgb(42, 63, 95); fill-opacity: 1; white-space: pre;">Entertainment</text><g class="layers"><g class="legendfill"><path class="js-fill" d="M5,-2h30v6h-30z" style="stroke-width: 0; fill: rgb(255, 0, 0); fill-opacity: 0.5;"/></g><g class="legendlines"><path class="js-line" d="M5,-2h30" style="fill: none; stroke: rgb(255, 0, 0); stroke-opacity: 1; stroke-width: 2px;"/></g><g class="legendsymbols"><g class="legendpoints"/></g></g><rect class="legendtoggle" x="0" y="-9.5" width="143.1875" height="19" style="fill: rgb(0, 0, 0); fill-opacity: 0;"/></g></g><g class="groups" transform=""><g class="traces" transform="translate(0,49.1)" style="opacity: 1;"><text class="legendtext" text-anchor="start" x="40" y="4.680000000000001" style="font-family: 'Open Sans', verdana, arial, sans-serif; font-size: 12px; fill: rgb(42, 63, 95); fill-opacity: 1; white-space: pre;">Music</text><g class="layers"><g class="legendfill"><path class="js-fill" d="M5,-2h30v6h-30z" style="stroke-width: 0; fill: rgb(0, 0, 255); fill-opacity: 0.5;"/></g><g class="legendlines"><path class="js-line" d="M5,-2h30" style="fill: none; stroke: rgb(0, 0, 255); stroke-opacity: 1; stroke-width: 2px;"/></g><g class="legendsymbols"><g class="legendpoints"/></g></g><rect class="legendtoggle" x="0" y="-9.5" width="143.1875" height="19" style="fill: rgb(0, 0, 0); fill-opacity: 0;"/></g></g><g class="groups" transform=""><g class="traces" transform="translate(0,68.1)" style="opacity: 1;"><text class="legendtext" text-anchor="start" x="40" y="4.680000000000001" style="font-family: 'Open Sans', verdana, arial, sans-serif; font-size: 12px; fill: rgb(42, 63, 95); fill-opacity: 1; white-space: pre;">Comedy</text><g class="layers"><g class="legendfill"><path class="js-fill" d="M5,-2h30v6h-30z" style="stroke-width: 0; fill: rgb(0, 128, 0); fill-opacity: 0.5;"/></g><g class="legendlines"><path class="js-line" d="M5,-2h30" style="fill: none; stroke: rgb(0, 128, 0); stroke-opacity: 1; stroke-width: 2px;"/></g><g class="legendsymbols"><g class="legendpoints"/></g></g><rect class="legendtoggle" x="0" y="-9.5" width="143.1875" height="19" style="fill: rgb(0, 0, 0); fill-opacity: 0;"/></g></g><g class="groups" transform=""><g class="traces" transform="translate(0,87.1)" style="opacity: 1;"><text class="legendtext" text-anchor="start" x="40" y="4.680000000000001" style="font-family: 'Open Sans', verdana, arial, sans-serif; font-size: 12px; fill: rgb(42, 63, 95); fill-opacity: 1; white-space: pre;">Other</text><g class="layers"><g class="legendfill"><path class="js-fill" d="M5,-2h30v6h-30z" style="stroke-width: 0; fill: rgb(255, 165, 0); fill-opacity: 0.5;"/></g><g class="legendlines"><path class="js-line" d="M5,-2h30" style="fill: none; stroke: rgb(255, 165, 0); stroke-opacity: 1; stroke-width: 2px;"/></g><g class="legendsymbols"><g class="legendpoints"/></g></g><rect class="legendtoggle" x="0" y="-9.5" width="143.1875" height="19" style="fill: rgb(0, 0, 0); fill-opacity: 0;"/></g></g><g class="groups" transform=""><g class="traces" transform="translate(0,106.1)" style="opacity: 1;"><text class="legendtext" text-anchor="start" x="40" y="4.680000000000001" style="font-family: 'Open Sans', verdana, arial, sans-serif; font-size: 12px; fill: rgb(42, 63, 95); fill-opacity: 1; white-space: pre;">Gaming</text><g class="layers"><g class="legendfill"><path class="js-fill" d="M5,-2h30v6h-30z" style="stroke-width: 0; fill: rgb(0, 255, 255); fill-opacity: 0.5;"/></g><g class="legendlines"><path class="js-line" d="M5,-2h30" style="fill: none; stroke: rgb(0, 255, 255); stroke-opacity: 1; stroke-width: 2px;"/></g><g class="legendsymbols"><g class="legendpoints"/></g></g><rect class="legendtoggle" x="0" y="-9.5" width="143.1875" height="19" style="fill: rgb(0, 0, 0); fill-opacity: 0;"/></g></g><g class="groups" transform=""><g class="traces" transform="translate(0,125.1)" style="opacity: 1;"><text class="legendtext" text-anchor="start" x="40" y="4.680000000000001" style="font-family: 'Open Sans', verdana, arial, sans-serif; font-size: 12px; fill: rgb(42, 63, 95); fill-opacity: 1; white-space: pre;">Film &amp; Animation</text><g class="layers"><g class="legendfill"><path class="js-fill" d="M5,-2h30v6h-30z" style="stroke-width: 0; fill: rgb(255, 192, 203); fill-opacity: 0.5;"/></g><g class="legendlines"><path class="js-line" d="M5,-2h30" style="fill: none; stroke: rgb(255, 192, 203); stroke-opacity: 1; stroke-width: 2px;"/></g><g class="legendsymbols"><g class="legendpoints"/></g></g><rect class="legendtoggle" x="0" y="-9.5" width="143.1875" height="19" style="fill: rgb(0, 0, 0); fill-opacity: 0;"/></g></g><g class="groups" transform=""><g class="traces" transform="translate(0,144.1)" style="opacity: 1;"><text class="legendtext" text-anchor="start" x="40" y="4.680000000000001" style="font-family: 'Open Sans', verdana, arial, sans-serif; font-size: 12px; fill: rgb(42, 63, 95); fill-opacity: 1; white-space: pre;">People &amp; Blogs</text><g class="layers"><g class="legendfill"><path class="js-fill" d="M5,-2h30v6h-30z" style="stroke-width: 0; fill: rgb(255, 255, 0); fill-opacity: 0.5;"/></g><g class="legendlines"><path class="js-line" d="M5,-2h30" style="fill: none; stroke: rgb(255, 255, 0); stroke-opacity: 1; stroke-width: 2px;"/></g><g class="legendsymbols"><g class="legendpoints"/></g></g><rect class="legendtoggle" x="0" y="-9.5" width="143.1875" height="19" style="fill: rgb(0, 0, 0); fill-opacity: 0;"/></g></g><g class="groups" transform=""><g class="traces" transform="translate(0,163.1)" style="opacity: 1;"><text class="legendtext" text-anchor="start" x="40" y="4.680000000000001" style="font-family: 'Open Sans', verdana, arial, sans-serif; font-size: 12px; fill: rgb(42, 63, 95); fill-opacity: 1; white-space: pre;">Howto &amp; Style</text><g class="layers"><g class="legendfill"><path class="js-fill" d="M5,-2h30v6h-30z" style="stroke-width: 0; fill: rgb(173, 216, 230); fill-opacity: 0.5;"/></g><g class="legendlines"><path class="js-line" d="M5,-2h30" style="fill: none; stroke: rgb(173, 216, 230); stroke-opacity: 1; stroke-width: 2px;"/></g><g class="legendsymbols"><g class="legendpoints"/></g></g><rect class="legendtoggle" x="0" y="-9.5" width="143.1875" height="19" style="fill: rgb(0, 0, 0); fill-opacity: 0;"/></g></g><g class="groups" transform=""><g class="traces" transform="translate(0,182.1)" style="opacity: 1;"><text class="legendtext" text-anchor="start" x="40" y="4.680000000000001" style="font-family: 'Open Sans', verdana, arial, sans-serif; font-size: 12px; fill: rgb(42, 63, 95); fill-opacity: 1; white-space: pre;">News &amp; Politics</text><g class="layers"><g class="legendfill"><path class="js-fill" d="M5,-2h30v6h-30z" style="stroke-width: 0; fill: rgb(0, 255, 0); fill-opacity: 0.5;"/></g><g class="legendlines"><path class="js-line" d="M5,-2h30" style="fill: none; stroke: rgb(0, 255, 0); stroke-opacity: 1; stroke-width: 2px;"/></g><g class="legendsymbols"><g class="legendpoints"/></g></g><rect class="legendtoggle" x="0" y="-9.5" width="143.1875" height="19" style="fill: rgb(0, 0, 0); fill-opacity: 0;"/></g></g></g><rect class="scrollbar" rx="20" ry="3" width="0" height="0" x="0" y="0" style="fill: rgb(128, 139, 164); fill-opacity: 1;"/></g><g class="g-gtitle"/><g class="g-xtitle"><text class="xtitle" x="305" y="460.8" text-anchor="middle" style="font-family: 'Open Sans', verdana, arial, sans-serif; font-size: 14px; fill: rgb(42, 63, 95); opacity: 1; font-weight: normal; white-space: pre;">Year</text></g><g class="g-ytitle"><text class="ytitle" transform="rotate(-90,31.309375000000003,240)" x="31.309375000000003" y="240" text-anchor="middle" style="font-family: 'Open Sans', verdana, arial, sans-serif; font-size: 14px; fill: rgb(42, 63, 95); opacity: 1; font-weight: normal; white-space: pre;">Proportion of Comments (%)</text></g></g></svg>