<?xml version="1.0" encoding="utf-8" standalone="no"?>
<!DOCTYPE svg PUBLIC "-//W3C//DTD SVG 1.1//EN"
  "http://www.w3.org/Graphics/SVG/1.1/DTD/svg11.dtd">
<svg xmlns:xlink="http://www.w3.org/1999/xlink" width="864pt" height="576pt" viewBox="0 0 864 576" xmlns="http://www.w3.org/2000/svg" version="1.1">
 <metadata>
  <rdf:RDF xmlns:dc="http://purl.org/dc/elements/1.1/" xmlns:cc="http://creativecommons.org/ns#" xmlns:rdf="http://www.w3.org/1999/02/22-rdf-syntax-ns#">
   <cc:Work>
    <dc:type rdf:resource="http://purl.org/dc/dcmitype/StillImage"/>
    <dc:date>2024-12-18T15:47:47.110168</dc:date>
    <dc:format>image/svg+xml</dc:format>
    <dc:creator>
     <cc:Agent>
      <dc:title>Matplotlib v3.7.5, https://matplotlib.org/</dc:title>
     </cc:Agent>
    </dc:creator>
   </cc:Work>
  </rdf:RDF>
 </metadata>
 <defs>
  <style type="text/css">*{stroke-linejoin: round; stroke-linecap: butt}</style>
 </defs>
 <g id="figure_1">
  <g id="patch_1">
   <path d="M 0 576 
L 864 576 
L 864 0 
L 0 0 
z
" style="fill: #ffffff"/>
  </g>
  <g id="axes_1">
   <g id="patch_2">
    <path d="M 108 512.64 
L 777.6 512.64 
L 777.6 69.12 
L 108 69.12 
z
" style="fill: #ffffff"/>
   </g>
   <g id="PolyCollection_1">
    <path d="M 111.542857 512.633791 
L 111.542857 512.64 
L 113.758624 512.64 
L 115.974391 512.64 
L 118.190158 512.64 
L 120.405925 512.64 
L 122.621691 512.64 
L 124.837458 512.64 
L 127.053225 512.64 
L 129.268992 512.64 
L 131.484759 512.64 
L 133.700526 512.64 
L 135.916292 512.64 
L 138.132059 512.64 
L 140.347826 512.64 
L 142.563593 512.64 
L 144.77936 512.64 
L 146.995127 512.64 
L 149.210893 512.64 
L 151.42666 512.64 
L 153.642427 512.64 
L 155.858194 512.64 
L 158.073961 512.64 
L 160.289728 512.64 
L 162.505495 512.64 
L 164.721261 512.64 
L 166.937028 512.64 
L 169.152795 512.64 
L 171.368562 512.64 
L 173.584329 512.64 
L 175.800096 512.64 
L 178.015862 512.64 
L 180.231629 512.64 
L 182.447396 512.64 
L 184.663163 512.64 
L 186.87893 512.64 
L 189.094697 512.64 
L 191.310463 512.64 
L 193.52623 512.64 
L 195.741997 512.64 
L 197.957764 512.64 
L 200.173531 512.64 
L 202.389298 512.64 
L 204.605065 512.64 
L 206.820831 512.64 
L 209.036598 512.64 
L 211.252365 512.64 
L 213.468132 512.64 
L 215.683899 512.64 
L 217.899666 512.64 
L 220.115432 512.64 
L 222.331199 512.64 
L 224.546966 512.64 
L 226.762733 512.64 
L 228.9785 512.64 
L 231.194267 512.64 
L 233.410033 512.64 
L 235.6258 512.64 
L 237.841567 512.64 
L 240.057334 512.64 
L 242.273101 512.64 
L 244.488868 512.64 
L 246.704634 512.64 
L 248.920401 512.64 
L 251.136168 512.64 
L 253.351935 512.64 
L 255.567702 512.64 
L 257.783469 512.64 
L 259.999236 512.64 
L 262.215002 512.64 
L 264.430769 512.64 
L 266.646536 512.64 
L 268.862303 512.64 
L 271.07807 512.64 
L 273.293837 512.64 
L 275.509603 512.64 
L 277.72537 512.64 
L 279.941137 512.64 
L 282.156904 512.64 
L 284.372671 512.64 
L 286.588438 512.64 
L 288.804204 512.64 
L 291.019971 512.64 
L 293.235738 512.64 
L 295.451505 512.64 
L 297.667272 512.64 
L 299.883039 512.64 
L 302.098806 512.64 
L 304.314572 512.64 
L 306.530339 512.64 
L 308.746106 512.64 
L 310.961873 512.64 
L 313.17764 512.64 
L 315.393407 512.64 
L 317.609173 512.64 
L 319.82494 512.64 
L 322.040707 512.64 
L 324.256474 512.64 
L 326.472241 512.64 
L 328.688008 512.64 
L 330.903774 512.64 
L 333.119541 512.64 
L 335.335308 512.64 
L 337.551075 512.64 
L 339.766842 512.64 
L 341.982609 512.64 
L 344.198376 512.64 
L 346.414142 512.64 
L 348.629909 512.64 
L 350.845676 512.64 
L 353.061443 512.64 
L 355.27721 512.64 
L 357.492977 512.64 
L 359.708743 512.64 
L 361.92451 512.64 
L 364.140277 512.64 
L 366.356044 512.64 
L 368.571811 512.64 
L 370.787578 512.64 
L 373.003344 512.64 
L 375.219111 512.64 
L 377.434878 512.64 
L 379.650645 512.64 
L 381.866412 512.64 
L 384.082179 512.64 
L 386.297946 512.64 
L 388.513712 512.64 
L 390.729479 512.64 
L 392.945246 512.64 
L 395.161013 512.64 
L 397.37678 512.64 
L 399.592547 512.64 
L 401.808313 512.64 
L 404.02408 512.64 
L 406.239847 512.64 
L 408.455614 512.64 
L 410.671381 512.64 
L 412.887148 512.64 
L 415.102914 512.64 
L 417.318681 512.64 
L 419.534448 512.64 
L 421.750215 512.64 
L 423.965982 512.64 
L 426.181749 512.64 
L 428.397516 512.64 
L 430.613282 512.64 
L 432.829049 512.64 
L 435.044816 512.64 
L 437.260583 512.64 
L 439.47635 512.64 
L 441.692117 512.64 
L 443.907883 512.64 
L 446.12365 512.64 
L 448.339417 512.64 
L 450.555184 512.64 
L 452.770951 512.64 
L 454.986718 512.64 
L 457.202484 512.64 
L 459.418251 512.64 
L 461.634018 512.64 
L 463.849785 512.64 
L 466.065552 512.64 
L 468.281319 512.64 
L 470.497086 512.64 
L 472.712852 512.64 
L 474.928619 512.64 
L 477.144386 512.64 
L 479.360153 512.64 
L 481.57592 512.64 
L 483.791687 512.64 
L 486.007453 512.64 
L 488.22322 512.64 
L 490.438987 512.64 
L 492.654754 512.64 
L 494.870521 512.64 
L 497.086288 512.64 
L 499.302054 512.64 
L 501.517821 512.64 
L 503.733588 512.64 
L 505.949355 512.64 
L 508.165122 512.64 
L 510.380889 512.64 
L 512.596656 512.64 
L 514.812422 512.64 
L 517.028189 512.64 
L 519.243956 512.64 
L 521.459723 512.64 
L 523.67549 512.64 
L 525.891257 512.64 
L 528.107023 512.64 
L 530.32279 512.64 
L 532.538557 512.64 
L 534.754324 512.64 
L 536.970091 512.64 
L 539.185858 512.64 
L 541.401624 512.64 
L 543.617391 512.64 
L 545.833158 512.64 
L 548.048925 512.64 
L 550.264692 512.64 
L 552.480459 512.64 
L 554.696226 512.64 
L 556.911992 512.64 
L 559.127759 512.64 
L 561.343526 512.64 
L 563.559293 512.64 
L 565.77506 512.64 
L 567.990827 512.64 
L 570.206593 512.64 
L 572.42236 512.64 
L 574.638127 512.64 
L 576.853894 512.64 
L 579.069661 512.64 
L 581.285428 512.64 
L 583.501194 512.64 
L 585.716961 512.64 
L 587.932728 512.64 
L 590.148495 512.64 
L 592.364262 512.64 
L 594.580029 512.64 
L 596.795796 512.64 
L 599.011562 512.64 
L 601.227329 512.64 
L 603.443096 512.64 
L 605.658863 512.64 
L 607.87463 512.64 
L 610.090397 512.64 
L 612.306163 512.64 
L 614.52193 512.64 
L 616.737697 512.64 
L 618.953464 512.64 
L 621.169231 512.64 
L 623.384998 512.64 
L 625.600764 512.64 
L 627.816531 512.64 
L 630.032298 512.64 
L 632.248065 512.64 
L 634.463832 512.64 
L 636.679599 512.64 
L 638.895366 512.64 
L 641.111132 512.64 
L 643.326899 512.64 
L 645.542666 512.64 
L 647.758433 512.64 
L 649.9742 512.64 
L 652.189967 512.64 
L 654.405733 512.64 
L 656.6215 512.64 
L 658.837267 512.64 
L 661.053034 512.64 
L 663.268801 512.64 
L 665.484568 512.64 
L 667.700334 512.64 
L 669.916101 512.64 
L 672.131868 512.64 
L 674.347635 512.64 
L 676.563402 512.64 
L 678.779169 512.64 
L 680.994935 512.64 
L 683.210702 512.64 
L 685.426469 512.64 
L 687.642236 512.64 
L 689.858003 512.64 
L 692.07377 512.64 
L 694.289537 512.64 
L 696.505303 512.64 
L 698.72107 512.64 
L 700.936837 512.64 
L 703.152604 512.64 
L 705.368371 512.64 
L 707.584138 512.64 
L 709.799904 512.64 
L 712.015671 512.64 
L 714.231438 512.64 
L 716.447205 512.64 
L 718.662972 512.64 
L 720.878739 512.64 
L 723.094505 512.64 
L 725.310272 512.64 
L 727.526039 512.64 
L 729.741806 512.64 
L 731.957573 512.64 
L 734.17334 512.64 
L 736.389107 512.64 
L 738.604873 512.64 
L 740.82064 512.64 
L 743.036407 512.64 
L 745.252174 512.64 
L 747.467941 512.64 
L 749.683708 512.64 
L 751.899474 512.64 
L 754.115241 512.64 
L 756.331008 512.64 
L 758.546775 512.64 
L 760.762542 512.64 
L 762.978309 512.64 
L 765.194075 512.64 
L 767.409842 512.64 
L 769.625609 512.64 
L 771.841376 512.64 
L 774.057143 512.64 
L 774.057143 192.989814 
L 774.057143 192.989814 
L 771.841376 174.94283 
L 769.625609 164.848289 
L 767.409842 163.779023 
L 765.194075 172.475568 
L 762.978309 182.359749 
L 760.762542 178.124846 
L 758.546775 175.892766 
L 756.331008 195.943257 
L 754.115241 205.424801 
L 751.899474 189.273943 
L 749.683708 190.544109 
L 747.467941 206.831417 
L 745.252174 194.97773 
L 743.036407 177.388972 
L 740.82064 183.186432 
L 738.604873 195.738102 
L 736.389107 201.917974 
L 734.17334 205.303452 
L 731.957573 209.852856 
L 729.741806 217.436468 
L 727.526039 221.48021 
L 725.310272 216.796473 
L 723.094505 209.473504 
L 720.878739 205.961563 
L 718.662972 210.375347 
L 716.447205 220.235102 
L 714.231438 229.978575 
L 712.015671 242.937126 
L 709.799904 259.034162 
L 707.584138 261.532778 
L 705.368371 253.565881 
L 703.152604 262.862967 
L 700.936837 275.853399 
L 698.72107 264.912014 
L 696.505303 253.280409 
L 694.289537 259.103061 
L 692.07377 271.744881 
L 689.858003 280.539331 
L 687.642236 279.917732 
L 685.426469 280.913882 
L 683.210702 293.248058 
L 680.994935 294.69121 
L 678.779169 281.252147 
L 676.563402 288.811897 
L 674.347635 316.835212 
L 672.131868 332.833302 
L 669.916101 335.548242 
L 667.700334 336.469033 
L 665.484568 337.299718 
L 663.268801 336.147646 
L 661.053034 329.167417 
L 658.837267 324.168833 
L 656.6215 334.090136 
L 654.405733 338.700712 
L 652.189967 321.450272 
L 649.9742 305.629354 
L 647.758433 306.589132 
L 645.542666 322.988541 
L 643.326899 340.287053 
L 641.111132 342.187842 
L 638.895366 340.602652 
L 636.679599 345.886966 
L 634.463832 346.208563 
L 632.248065 339.420642 
L 630.032298 336.350124 
L 627.816531 338.377026 
L 625.600764 341.799897 
L 623.384998 347.274325 
L 621.169231 355.781816 
L 618.953464 365.994077 
L 616.737697 373.57938 
L 614.52193 372.603949 
L 612.306163 370.990236 
L 610.090397 379.55271 
L 607.87463 388.43468 
L 605.658863 390.038781 
L 603.443096 390.053335 
L 601.227329 392.452423 
L 599.011562 397.943962 
L 596.795796 402.558829 
L 594.580029 402.841529 
L 592.364262 404.689573 
L 590.148495 410.737406 
L 587.932728 414.638662 
L 585.716961 415.287285 
L 583.501194 416.328291 
L 581.285428 418.521006 
L 579.069661 421.629957 
L 576.853894 426.737853 
L 574.638127 433.285833 
L 572.42236 437.679862 
L 570.206593 438.443567 
L 567.990827 436.833423 
L 565.77506 438.167902 
L 563.559293 445.321551 
L 561.343526 448.092256 
L 559.127759 444.992775 
L 556.911992 446.080938 
L 554.696226 450.44152 
L 552.480459 451.567944 
L 550.264692 449.824675 
L 548.048925 448.228083 
L 545.833158 450.619551 
L 543.617391 455.310693 
L 541.401624 455.130093 
L 539.185858 453.240664 
L 536.970091 456.469398 
L 534.754324 461.640735 
L 532.538557 464.571405 
L 530.32279 465.413587 
L 528.107023 465.631261 
L 525.891257 467.130188 
L 523.67549 468.666946 
L 521.459723 468.349151 
L 519.243956 469.255726 
L 517.028189 472.905771 
L 514.812422 475.095529 
L 512.596656 474.992906 
L 510.380889 474.682952 
L 508.165122 475.700776 
L 505.949355 476.862933 
L 503.733588 469.438107 
L 501.517821 455.491739 
L 499.302054 452.934856 
L 497.086288 456.38045 
L 494.870521 446.721468 
L 492.654754 435.013362 
L 490.438987 435.60713 
L 488.22322 441.432433 
L 486.007453 446.023729 
L 483.791687 449.604528 
L 481.57592 453.127769 
L 479.360153 457.193284 
L 477.144386 459.483954 
L 474.928619 459.028932 
L 472.712852 461.077116 
L 470.497086 465.477054 
L 468.281319 464.46255 
L 466.065552 459.626098 
L 463.849785 456.690249 
L 461.634018 458.85332 
L 459.418251 465.457607 
L 457.202484 469.526941 
L 454.986718 467.370175 
L 452.770951 459.952326 
L 450.555184 455.56761 
L 448.339417 460.896371 
L 446.12365 464.062667 
L 443.907883 459.498 
L 441.692117 460.254358 
L 439.47635 468.280646 
L 437.260583 473.591609 
L 435.044816 475.104468 
L 432.829049 475.546915 
L 430.613282 475.421216 
L 428.397516 475.789344 
L 426.181749 479.309835 
L 423.965982 483.919349 
L 421.750215 484.389863 
L 419.534448 483.021551 
L 417.318681 483.28164 
L 415.102914 483.996623 
L 412.887148 484.121303 
L 410.671381 484.129495 
L 408.455614 484.976945 
L 406.239847 487.299489 
L 404.02408 488.141477 
L 401.808313 485.713933 
L 399.592547 484.880532 
L 397.37678 486.966283 
L 395.161013 487.104331 
L 392.945246 484.979405 
L 390.729479 483.89106 
L 388.513712 485.718122 
L 386.297946 490.115949 
L 384.082179 492.081184 
L 381.866412 490.930441 
L 379.650645 492.123737 
L 377.434878 494.86975 
L 375.219111 495.277009 
L 373.003344 495.198749 
L 370.787578 496.349495 
L 368.571811 497.705328 
L 366.356044 497.804873 
L 364.140277 495.588786 
L 361.92451 494.259992 
L 359.708743 497.016525 
L 357.492977 499.256628 
L 355.27721 498.371898 
L 353.061443 498.212698 
L 350.845676 499.094207 
L 348.629909 498.033618 
L 346.414142 497.072531 
L 344.198376 499.215295 
L 341.982609 501.69504 
L 339.766842 502.350914 
L 337.551075 502.37267 
L 335.335308 501.913071 
L 333.119541 500.340281 
L 330.903774 500.131294 
L 328.688008 501.934993 
L 326.472241 499.155797 
L 324.256474 493.540321 
L 322.040707 496.680161 
L 319.82494 499.736326 
L 317.609173 487.299932 
L 315.393407 480.744 
L 313.17764 495.786385 
L 310.961873 507.62254 
L 308.746106 506.568748 
L 306.530339 505.708372 
L 304.314572 505.301872 
L 302.098806 499.64411 
L 299.883039 497.078171 
L 297.667272 503.229163 
L 295.451505 507.673621 
L 293.235738 506.591498 
L 291.019971 506.110831 
L 288.804204 506.822388 
L 286.588438 506.576076 
L 284.372671 506.602643 
L 282.156904 507.594281 
L 279.941137 508.032261 
L 277.72537 507.883196 
L 275.509603 508.218567 
L 273.293837 508.250951 
L 271.07807 507.23892 
L 268.862303 507.070254 
L 266.646536 508.181596 
L 264.430769 508.12103 
L 262.215002 507.272969 
L 259.999236 507.860187 
L 257.783469 508.961569 
L 255.567702 509.072818 
L 253.351935 508.934229 
L 251.136168 509.115194 
L 248.920401 509.285689 
L 246.704634 509.287342 
L 244.488868 509.186638 
L 242.273101 509.23428 
L 240.057334 509.56115 
L 237.841567 509.768944 
L 235.6258 509.799051 
L 233.410033 510.043286 
L 231.194267 510.320587 
L 228.9785 510.226901 
L 226.762733 510.166056 
L 224.546966 510.436995 
L 222.331199 510.504347 
L 220.115432 510.213425 
L 217.899666 509.996011 
L 215.683899 510.103869 
L 213.468132 510.551704 
L 211.252365 510.814745 
L 209.036598 510.564662 
L 206.820831 510.329632 
L 204.605065 510.411468 
L 202.389298 510.694605 
L 200.173531 510.83731 
L 197.957764 510.577065 
L 195.741997 510.534347 
L 193.52623 511.058672 
L 191.310463 511.419742 
L 189.094697 511.492076 
L 186.87893 511.659702 
L 184.663163 511.879543 
L 182.447396 511.988117 
L 180.231629 512.017646 
L 178.015862 512.013912 
L 175.800096 511.986351 
L 173.584329 512.001486 
L 171.368562 512.136432 
L 169.152795 512.240413 
L 166.937028 512.189221 
L 164.721261 512.189954 
L 162.505495 512.322683 
L 160.289728 512.384841 
L 158.073961 512.379982 
L 155.858194 512.453151 
L 153.642427 512.552161 
L 151.42666 512.585463 
L 149.210893 512.571777 
L 146.995127 512.557273 
L 144.77936 512.59015 
L 142.563593 512.629233 
L 140.347826 512.613054 
L 138.132059 512.581946 
L 135.916292 512.579805 
L 133.700526 512.60228 
L 131.484759 512.631605 
L 129.268992 512.644959 
L 127.053225 512.638791 
L 124.837458 512.619998 
L 122.621691 512.595575 
L 120.405925 512.572515 
L 118.190158 512.557812 
L 115.974391 512.558461 
L 113.758624 512.581456 
L 111.542857 512.633791 
z
" clip-path="url(#p67bee65d20)" style="fill: #d45087"/>
   </g>
   <g id="PolyCollection_2">
    <path d="M 111.542857 512.632904 
L 111.542857 512.633791 
L 113.758624 512.581456 
L 115.974391 512.558461 
L 118.190158 512.557812 
L 120.405925 512.572515 
L 122.621691 512.595575 
L 124.837458 512.619998 
L 127.053225 512.638791 
L 129.268992 512.644959 
L 131.484759 512.631605 
L 133.700526 512.60228 
L 135.916292 512.579805 
L 138.132059 512.581946 
L 140.347826 512.613054 
L 142.563593 512.629233 
L 144.77936 512.59015 
L 146.995127 512.557273 
L 149.210893 512.571777 
L 151.42666 512.585463 
L 153.642427 512.552161 
L 155.858194 512.453151 
L 158.073961 512.379982 
L 160.289728 512.384841 
L 162.505495 512.322683 
L 164.721261 512.189954 
L 166.937028 512.189221 
L 169.152795 512.240413 
L 171.368562 512.136432 
L 173.584329 512.001486 
L 175.800096 511.986351 
L 178.015862 512.013912 
L 180.231629 512.017646 
L 182.447396 511.988117 
L 184.663163 511.879543 
L 186.87893 511.659702 
L 189.094697 511.492076 
L 191.310463 511.419742 
L 193.52623 511.058672 
L 195.741997 510.534347 
L 197.957764 510.577065 
L 200.173531 510.83731 
L 202.389298 510.694605 
L 204.605065 510.411468 
L 206.820831 510.329632 
L 209.036598 510.564662 
L 211.252365 510.814745 
L 213.468132 510.551704 
L 215.683899 510.103869 
L 217.899666 509.996011 
L 220.115432 510.213425 
L 222.331199 510.504347 
L 224.546966 510.436995 
L 226.762733 510.166056 
L 228.9785 510.226901 
L 231.194267 510.320587 
L 233.410033 510.043286 
L 235.6258 509.799051 
L 237.841567 509.768944 
L 240.057334 509.56115 
L 242.273101 509.23428 
L 244.488868 509.186638 
L 246.704634 509.287342 
L 248.920401 509.285689 
L 251.136168 509.115194 
L 253.351935 508.934229 
L 255.567702 509.072818 
L 257.783469 508.961569 
L 259.999236 507.860187 
L 262.215002 507.272969 
L 264.430769 508.12103 
L 266.646536 508.181596 
L 268.862303 507.070254 
L 271.07807 507.23892 
L 273.293837 508.250951 
L 275.509603 508.218567 
L 277.72537 507.883196 
L 279.941137 508.032261 
L 282.156904 507.594281 
L 284.372671 506.602643 
L 286.588438 506.576076 
L 288.804204 506.822388 
L 291.019971 506.110831 
L 293.235738 506.591498 
L 295.451505 507.673621 
L 297.667272 503.229163 
L 299.883039 497.078171 
L 302.098806 499.64411 
L 304.314572 505.301872 
L 306.530339 505.708372 
L 308.746106 506.568748 
L 310.961873 507.62254 
L 313.17764 495.786385 
L 315.393407 480.744 
L 317.609173 487.299932 
L 319.82494 499.736326 
L 322.040707 496.680161 
L 324.256474 493.540321 
L 326.472241 499.155797 
L 328.688008 501.934993 
L 330.903774 500.131294 
L 333.119541 500.340281 
L 335.335308 501.913071 
L 337.551075 502.37267 
L 339.766842 502.350914 
L 341.982609 501.69504 
L 344.198376 499.215295 
L 346.414142 497.072531 
L 348.629909 498.033618 
L 350.845676 499.094207 
L 353.061443 498.212698 
L 355.27721 498.371898 
L 357.492977 499.256628 
L 359.708743 497.016525 
L 361.92451 494.259992 
L 364.140277 495.588786 
L 366.356044 497.804873 
L 368.571811 497.705328 
L 370.787578 496.349495 
L 373.003344 495.198749 
L 375.219111 495.277009 
L 377.434878 494.86975 
L 379.650645 492.123737 
L 381.866412 490.930441 
L 384.082179 492.081184 
L 386.297946 490.115949 
L 388.513712 485.718122 
L 390.729479 483.89106 
L 392.945246 484.979405 
L 395.161013 487.104331 
L 397.37678 486.966283 
L 399.592547 484.880532 
L 401.808313 485.713933 
L 404.02408 488.141477 
L 406.239847 487.299489 
L 408.455614 484.976945 
L 410.671381 484.129495 
L 412.887148 484.121303 
L 415.102914 483.996623 
L 417.318681 483.28164 
L 419.534448 483.021551 
L 421.750215 484.389863 
L 423.965982 483.919349 
L 426.181749 479.309835 
L 428.397516 475.789344 
L 430.613282 475.421216 
L 432.829049 475.546915 
L 435.044816 475.104468 
L 437.260583 473.591609 
L 439.47635 468.280646 
L 441.692117 460.254358 
L 443.907883 459.498 
L 446.12365 464.062667 
L 448.339417 460.896371 
L 450.555184 455.56761 
L 452.770951 459.952326 
L 454.986718 467.370175 
L 457.202484 469.526941 
L 459.418251 465.457607 
L 461.634018 458.85332 
L 463.849785 456.690249 
L 466.065552 459.626098 
L 468.281319 464.46255 
L 470.497086 465.477054 
L 472.712852 461.077116 
L 474.928619 459.028932 
L 477.144386 459.483954 
L 479.360153 457.193284 
L 481.57592 453.127769 
L 483.791687 449.604528 
L 486.007453 446.023729 
L 488.22322 441.432433 
L 490.438987 435.60713 
L 492.654754 435.013362 
L 494.870521 446.721468 
L 497.086288 456.38045 
L 499.302054 452.934856 
L 501.517821 455.491739 
L 503.733588 469.438107 
L 505.949355 476.862933 
L 508.165122 475.700776 
L 510.380889 474.682952 
L 512.596656 474.992906 
L 514.812422 475.095529 
L 517.028189 472.905771 
L 519.243956 469.255726 
L 521.459723 468.349151 
L 523.67549 468.666946 
L 525.891257 467.130188 
L 528.107023 465.631261 
L 530.32279 465.413587 
L 532.538557 464.571405 
L 534.754324 461.640735 
L 536.970091 456.469398 
L 539.185858 453.240664 
L 541.401624 455.130093 
L 543.617391 455.310693 
L 545.833158 450.619551 
L 548.048925 448.228083 
L 550.264692 449.824675 
L 552.480459 451.567944 
L 554.696226 450.44152 
L 556.911992 446.080938 
L 559.127759 444.992775 
L 561.343526 448.092256 
L 563.559293 445.321551 
L 565.77506 438.167902 
L 567.990827 436.833423 
L 570.206593 438.443567 
L 572.42236 437.679862 
L 574.638127 433.285833 
L 576.853894 426.737853 
L 579.069661 421.629957 
L 581.285428 418.521006 
L 583.501194 416.328291 
L 585.716961 415.287285 
L 587.932728 414.638662 
L 590.148495 410.737406 
L 592.364262 404.689573 
L 594.580029 402.841529 
L 596.795796 402.558829 
L 599.011562 397.943962 
L 601.227329 392.452423 
L 603.443096 390.053335 
L 605.658863 390.038781 
L 607.87463 388.43468 
L 610.090397 379.55271 
L 612.306163 370.990236 
L 614.52193 372.603949 
L 616.737697 373.57938 
L 618.953464 365.994077 
L 621.169231 355.781816 
L 623.384998 347.274325 
L 625.600764 341.799897 
L 627.816531 338.377026 
L 630.032298 336.350124 
L 632.248065 339.420642 
L 634.463832 346.208563 
L 636.679599 345.886966 
L 638.895366 340.602652 
L 641.111132 342.187842 
L 643.326899 340.287053 
L 645.542666 322.988541 
L 647.758433 306.589132 
L 649.9742 305.629354 
L 652.189967 321.450272 
L 654.405733 338.700712 
L 656.6215 334.090136 
L 658.837267 324.168833 
L 661.053034 329.167417 
L 663.268801 336.147646 
L 665.484568 337.299718 
L 667.700334 336.469033 
L 669.916101 335.548242 
L 672.131868 332.833302 
L 674.347635 316.835212 
L 676.563402 288.811897 
L 678.779169 281.252147 
L 680.994935 294.69121 
L 683.210702 293.248058 
L 685.426469 280.913882 
L 687.642236 279.917732 
L 689.858003 280.539331 
L 692.07377 271.744881 
L 694.289537 259.103061 
L 696.505303 253.280409 
L 698.72107 264.912014 
L 700.936837 275.853399 
L 703.152604 262.862967 
L 705.368371 253.565881 
L 707.584138 261.532778 
L 709.799904 259.034162 
L 712.015671 242.937126 
L 714.231438 229.978575 
L 716.447205 220.235102 
L 718.662972 210.375347 
L 720.878739 205.961563 
L 723.094505 209.473504 
L 725.310272 216.796473 
L 727.526039 221.48021 
L 729.741806 217.436468 
L 731.957573 209.852856 
L 734.17334 205.303452 
L 736.389107 201.917974 
L 738.604873 195.738102 
L 740.82064 183.186432 
L 743.036407 177.388972 
L 745.252174 194.97773 
L 747.467941 206.831417 
L 749.683708 190.544109 
L 751.899474 189.273943 
L 754.115241 205.424801 
L 756.331008 195.943257 
L 758.546775 175.892766 
L 760.762542 178.124846 
L 762.978309 182.359749 
L 765.194075 172.475568 
L 767.409842 163.779023 
L 769.625609 164.848289 
L 771.841376 174.94283 
L 774.057143 192.989814 
L 774.057143 138.088247 
L 774.057143 138.088247 
L 771.841376 120.219491 
L 769.625609 107.366894 
L 767.409842 103.574981 
L 765.194075 112.442563 
L 762.978309 125.069362 
L 760.762542 122.786304 
L 758.546775 122.525913 
L 756.331008 146.39105 
L 754.115241 158.018561 
L 751.899474 140.8814 
L 749.683708 142.849568 
L 747.467941 160.634618 
L 745.252174 145.40275 
L 743.036407 123.250705 
L 740.82064 127.965276 
L 738.604873 141.128886 
L 736.389107 148.253888 
L 734.17334 153.690374 
L 731.957573 160.71526 
L 729.741806 169.743571 
L 727.526039 174.842601 
L 725.310272 170.700288 
L 723.094505 159.511604 
L 720.878739 148.58191 
L 718.662972 149.600734 
L 716.447205 161.366623 
L 714.231438 175.091544 
L 712.015671 193.510354 
L 709.799904 214.559419 
L 707.584138 213.652365 
L 705.368371 197.779686 
L 703.152604 212.247416 
L 700.936837 237.243448 
L 698.72107 227.59001 
L 696.505303 207.364562 
L 694.289537 203.212202 
L 692.07377 218.661262 
L 689.858003 238.692562 
L 687.642236 238.323 
L 685.426469 235.500702 
L 683.210702 252.845205 
L 680.994935 258.085786 
L 678.779169 241.088299 
L 676.563402 246.344489 
L 674.347635 276.900098 
L 672.131868 298.014338 
L 669.916101 305.194836 
L 667.700334 307.455234 
L 665.484568 307.812255 
L 663.268801 305.694885 
L 661.053034 297.375961 
L 658.837267 293.333953 
L 656.6215 309.519455 
L 654.405733 315.382702 
L 652.189967 287.521283 
L 649.9742 262.61431 
L 647.758433 264.333271 
L 645.542666 289.942086 
L 643.326899 316.593448 
L 641.111132 318.940798 
L 638.895366 315.265835 
L 636.679599 322.327091 
L 634.463832 324.494681 
L 632.248065 317.63785 
L 630.032298 314.033937 
L 627.816531 315.496431 
L 625.600764 318.221918 
L 623.384998 323.585676 
L 621.169231 333.331462 
L 618.953464 346.383244 
L 616.737697 356.960015 
L 614.52193 356.282982 
L 612.306163 353.868581 
L 610.090397 363.534687 
L 607.87463 373.826906 
L 605.658863 375.463964 
L 603.443096 374.502701 
L 601.227329 376.273994 
L 599.011562 383.128688 
L 596.795796 389.151715 
L 594.580029 388.663692 
L 592.364262 390.410148 
L 590.148495 398.30321 
L 587.932728 402.763224 
L 585.716961 402.438252 
L 583.501194 403.237561 
L 581.285428 405.458483 
L 579.069661 407.994414 
L 576.853894 414.131587 
L 574.638127 423.437508 
L 572.42236 428.184046 
L 570.206593 427.313772 
L 567.990827 426.153696 
L 565.77506 429.250848 
L 563.559293 437.344726 
L 561.343526 440.328029 
L 559.127759 437.187127 
L 556.911992 438.313272 
L 554.696226 442.621196 
L 552.480459 443.296571 
L 550.264692 441.20401 
L 548.048925 439.765499 
L 545.833158 442.467156 
L 543.617391 447.112308 
L 541.401624 446.111188 
L 539.185858 443.641142 
L 536.970091 447.687054 
L 534.754324 453.309552 
L 532.538557 455.255333 
L 530.32279 456.062765 
L 528.107023 457.750378 
L 525.891257 460.413197 
L 523.67549 462.262802 
L 521.459723 461.689607 
L 519.243956 462.128147 
L 517.028189 465.440282 
L 514.812422 467.660805 
L 512.596656 467.596412 
L 510.380889 466.704591 
L 508.165122 466.923434 
L 505.949355 467.171878 
L 503.733588 456.685596 
L 501.517821 439.037527 
L 499.302054 438.49801 
L 497.086288 444.60858 
L 494.870521 427.648774 
L 492.654754 408.639988 
L 490.438987 412.627963 
L 488.22322 424.419291 
L 486.007453 431.303004 
L 483.791687 435.133176 
L 481.57592 438.790224 
L 479.360153 444.174658 
L 477.144386 447.991917 
L 474.928619 448.258342 
L 472.712852 451.30783 
L 470.497086 456.569153 
L 468.281319 453.785732 
L 466.065552 445.714339 
L 463.849785 440.787961 
L 461.634018 443.792285 
L 459.418251 453.991899 
L 457.202484 461.507693 
L 454.986718 458.8479 
L 452.770951 444.102482 
L 450.555184 435.170129 
L 448.339417 447.651193 
L 446.12365 453.779003 
L 443.907883 440.853693 
L 441.692117 440.258594 
L 439.47635 456.597206 
L 437.260583 465.922591 
L 435.044816 466.878693 
L 432.829049 467.196688 
L 430.613282 466.876462 
L 428.397516 466.665188 
L 426.181749 471.289528 
L 423.965982 477.951213 
L 421.750215 478.56483 
L 419.534448 476.357526 
L 417.318681 476.416452 
L 415.102914 477.144703 
L 412.887148 477.231757 
L 410.671381 477.645997 
L 408.455614 479.169006 
L 406.239847 481.794659 
L 404.02408 482.326247 
L 401.808313 479.164577 
L 399.592547 478.066353 
L 397.37678 480.603503 
L 395.161013 481.116721 
L 392.945246 478.934446 
L 390.729479 477.520731 
L 388.513712 479.619421 
L 386.297946 485.207722 
L 384.082179 487.434499 
L 381.866412 485.457263 
L 379.650645 487.032453 
L 377.434878 490.892746 
L 375.219111 491.348608 
L 373.003344 491.148031 
L 370.787578 492.811703 
L 368.571811 494.796799 
L 366.356044 494.950835 
L 364.140277 491.727847 
L 361.92451 489.669096 
L 359.708743 493.353587 
L 357.492977 496.395459 
L 355.27721 495.162492 
L 353.061443 495.009984 
L 350.845676 496.132648 
L 348.629909 494.023897 
L 346.414142 492.131346 
L 344.198376 495.343584 
L 341.982609 499.156943 
L 339.766842 500.07379 
L 337.551075 500.080548 
L 335.335308 499.399002 
L 333.119541 496.873685 
L 330.903774 496.170417 
L 328.688008 498.596529 
L 326.472241 495.249028 
L 324.256474 488.130515 
L 322.040707 492.291691 
L 319.82494 496.702512 
L 317.609173 481.701153 
L 315.393407 473.49535 
L 313.17764 491.649556 
L 310.961873 506.162161 
L 308.746106 505.207203 
L 306.530339 504.442977 
L 304.314572 503.810402 
L 302.098806 496.169001 
L 299.883039 492.720198 
L 297.667272 500.912127 
L 295.451505 506.798818 
L 293.235738 505.289688 
L 291.019971 504.609435 
L 288.804204 505.511165 
L 286.588438 505.075125 
L 284.372671 505.044823 
L 282.156904 506.402944 
L 279.941137 507.051924 
L 277.72537 506.8713 
L 275.509603 507.246199 
L 273.293837 507.273387 
L 271.07807 506.063293 
L 268.862303 505.840292 
L 266.646536 507.12198 
L 264.430769 507.024679 
L 262.215002 506.03881 
L 259.999236 506.816444 
L 257.783469 508.120608 
L 255.567702 508.07411 
L 253.351935 507.832176 
L 251.136168 508.184533 
L 248.920401 508.515568 
L 246.704634 508.526638 
L 244.488868 508.316752 
L 242.273101 508.316327 
L 240.057334 508.7668 
L 237.841567 509.032709 
L 235.6258 509.01744 
L 233.410033 509.349059 
L 231.194267 509.772711 
L 228.9785 509.667268 
L 226.762733 509.543119 
L 224.546966 509.83229 
L 222.331199 509.946718 
L 220.115432 509.620769 
L 217.899666 509.173808 
L 215.683899 509.126227 
L 213.468132 509.820777 
L 211.252365 510.294977 
L 209.036598 509.880254 
L 206.820831 509.545937 
L 204.605065 509.74222 
L 202.389298 510.066471 
L 200.173531 510.137936 
L 197.957764 509.817701 
L 195.741997 509.834195 
L 193.52623 510.538918 
L 191.310463 510.995853 
L 189.094697 511.082196 
L 186.87893 511.335485 
L 184.663163 511.66671 
L 182.447396 511.819274 
L 180.231629 511.85045 
L 178.015862 511.835379 
L 175.800096 511.784279 
L 173.584329 511.784349 
L 171.368562 511.94231 
L 169.152795 512.082738 
L 166.937028 512.053112 
L 164.721261 512.081589 
L 162.505495 512.251281 
L 160.289728 512.32312 
L 158.073961 512.311185 
L 155.858194 512.400442 
L 153.642427 512.525672 
L 151.42666 512.570944 
L 149.210893 512.557858 
L 146.995127 512.54114 
L 144.77936 512.577589 
L 142.563593 512.622109 
L 140.347826 512.605625 
L 138.132059 512.571629 
L 135.916292 512.568814 
L 133.700526 512.595042 
L 131.484759 512.6304 
L 129.268992 512.646473 
L 127.053225 512.638714 
L 124.837458 512.615565 
L 122.621691 512.585585 
L 120.405925 512.557338 
L 118.190158 512.539384 
L 115.974391 512.540286 
L 113.758624 512.568606 
L 111.542857 512.632904 
z
" clip-path="url(#p67bee65d20)" style="fill: #f95d6a"/>
   </g>
   <g id="PolyCollection_3">
    <path d="M 111.542857 512.632904 
L 111.542857 512.632904 
L 113.758624 512.568606 
L 115.974391 512.540286 
L 118.190158 512.539384 
L 120.405925 512.557338 
L 122.621691 512.585585 
L 124.837458 512.615565 
L 127.053225 512.638714 
L 129.268992 512.646473 
L 131.484759 512.6304 
L 133.700526 512.595042 
L 135.916292 512.568814 
L 138.132059 512.571629 
L 140.347826 512.605625 
L 142.563593 512.622109 
L 144.77936 512.577589 
L 146.995127 512.54114 
L 149.210893 512.557858 
L 151.42666 512.570944 
L 153.642427 512.525672 
L 155.858194 512.400442 
L 158.073961 512.311185 
L 160.289728 512.32312 
L 162.505495 512.251281 
L 164.721261 512.081589 
L 166.937028 512.053112 
L 169.152795 512.082738 
L 171.368562 511.94231 
L 173.584329 511.784349 
L 175.800096 511.784279 
L 178.015862 511.835379 
L 180.231629 511.85045 
L 182.447396 511.819274 
L 184.663163 511.66671 
L 186.87893 511.335485 
L 189.094697 511.082196 
L 191.310463 510.995853 
L 193.52623 510.538918 
L 195.741997 509.834195 
L 197.957764 509.817701 
L 200.173531 510.137936 
L 202.389298 510.066471 
L 204.605065 509.74222 
L 206.820831 509.545937 
L 209.036598 509.880254 
L 211.252365 510.294977 
L 213.468132 509.820777 
L 215.683899 509.126227 
L 217.899666 509.173808 
L 220.115432 509.620769 
L 222.331199 509.946718 
L 224.546966 509.83229 
L 226.762733 509.543119 
L 228.9785 509.667268 
L 231.194267 509.772711 
L 233.410033 509.349059 
L 235.6258 509.01744 
L 237.841567 509.032709 
L 240.057334 508.7668 
L 242.273101 508.316327 
L 244.488868 508.316752 
L 246.704634 508.526638 
L 248.920401 508.515568 
L 251.136168 508.184533 
L 253.351935 507.832176 
L 255.567702 508.07411 
L 257.783469 508.120608 
L 259.999236 506.816444 
L 262.215002 506.03881 
L 264.430769 507.024679 
L 266.646536 507.12198 
L 268.862303 505.840292 
L 271.07807 506.063293 
L 273.293837 507.273387 
L 275.509603 507.246199 
L 277.72537 506.8713 
L 279.941137 507.051924 
L 282.156904 506.402944 
L 284.372671 505.044823 
L 286.588438 505.075125 
L 288.804204 505.511165 
L 291.019971 504.609435 
L 293.235738 505.289688 
L 295.451505 506.798818 
L 297.667272 500.912127 
L 299.883039 492.720198 
L 302.098806 496.169001 
L 304.314572 503.810402 
L 306.530339 504.442977 
L 308.746106 505.207203 
L 310.961873 506.162161 
L 313.17764 491.649556 
L 315.393407 473.49535 
L 317.609173 481.701153 
L 319.82494 496.702512 
L 322.040707 492.291691 
L 324.256474 488.130515 
L 326.472241 495.249028 
L 328.688008 498.596529 
L 330.903774 496.170417 
L 333.119541 496.873685 
L 335.335308 499.399002 
L 337.551075 500.080548 
L 339.766842 500.07379 
L 341.982609 499.156943 
L 344.198376 495.343584 
L 346.414142 492.131346 
L 348.629909 494.023897 
L 350.845676 496.132648 
L 353.061443 495.009984 
L 355.27721 495.162492 
L 357.492977 496.395459 
L 359.708743 493.353587 
L 361.92451 489.669096 
L 364.140277 491.727847 
L 366.356044 494.950835 
L 368.571811 494.796799 
L 370.787578 492.811703 
L 373.003344 491.148031 
L 375.219111 491.348608 
L 377.434878 490.892746 
L 379.650645 487.032453 
L 381.866412 485.457263 
L 384.082179 487.434499 
L 386.297946 485.207722 
L 388.513712 479.619421 
L 390.729479 477.520731 
L 392.945246 478.934446 
L 395.161013 481.116721 
L 397.37678 480.603503 
L 399.592547 478.066353 
L 401.808313 479.164577 
L 404.02408 482.326247 
L 406.239847 481.794659 
L 408.455614 479.169006 
L 410.671381 477.645997 
L 412.887148 477.231757 
L 415.102914 477.144703 
L 417.318681 476.416452 
L 419.534448 476.357526 
L 421.750215 478.56483 
L 423.965982 477.951213 
L 426.181749 471.289528 
L 428.397516 466.665188 
L 430.613282 466.876462 
L 432.829049 467.196688 
L 435.044816 466.878693 
L 437.260583 465.922591 
L 439.47635 456.597206 
L 441.692117 440.258594 
L 443.907883 440.853693 
L 446.12365 453.779003 
L 448.339417 447.651193 
L 450.555184 435.170129 
L 452.770951 444.102482 
L 454.986718 458.8479 
L 457.202484 461.507693 
L 459.418251 453.991899 
L 461.634018 443.792285 
L 463.849785 440.787961 
L 466.065552 445.714339 
L 468.281319 453.785732 
L 470.497086 456.569153 
L 472.712852 451.30783 
L 474.928619 448.258342 
L 477.144386 447.991917 
L 479.360153 444.174658 
L 481.57592 438.790224 
L 483.791687 435.133176 
L 486.007453 431.303004 
L 488.22322 424.419291 
L 490.438987 412.627963 
L 492.654754 408.639988 
L 494.870521 427.648774 
L 497.086288 444.60858 
L 499.302054 438.49801 
L 501.517821 439.037527 
L 503.733588 456.685596 
L 505.949355 467.171878 
L 508.165122 466.923434 
L 510.380889 466.704591 
L 512.596656 467.596412 
L 514.812422 467.660805 
L 517.028189 465.440282 
L 519.243956 462.128147 
L 521.459723 461.689607 
L 523.67549 462.262802 
L 525.891257 460.413197 
L 528.107023 457.750378 
L 530.32279 456.062765 
L 532.538557 455.255333 
L 534.754324 453.309552 
L 536.970091 447.687054 
L 539.185858 443.641142 
L 541.401624 446.111188 
L 543.617391 447.112308 
L 545.833158 442.467156 
L 548.048925 439.765499 
L 550.264692 441.20401 
L 552.480459 443.296571 
L 554.696226 442.621196 
L 556.911992 438.313272 
L 559.127759 437.187127 
L 561.343526 440.328029 
L 563.559293 437.344726 
L 565.77506 429.250848 
L 567.990827 426.153696 
L 570.206593 427.313772 
L 572.42236 428.184046 
L 574.638127 423.437508 
L 576.853894 414.131587 
L 579.069661 407.994414 
L 581.285428 405.458483 
L 583.501194 403.237561 
L 585.716961 402.438252 
L 587.932728 402.763224 
L 590.148495 398.30321 
L 592.364262 390.410148 
L 594.580029 388.663692 
L 596.795796 389.151715 
L 599.011562 383.128688 
L 601.227329 376.273994 
L 603.443096 374.502701 
L 605.658863 375.463964 
L 607.87463 373.826906 
L 610.090397 363.534687 
L 612.306163 353.868581 
L 614.52193 356.282982 
L 616.737697 356.960015 
L 618.953464 346.383244 
L 621.169231 333.331462 
L 623.384998 323.585676 
L 625.600764 318.221918 
L 627.816531 315.496431 
L 630.032298 314.033937 
L 632.248065 317.63785 
L 634.463832 324.494681 
L 636.679599 322.327091 
L 638.895366 315.265835 
L 641.111132 318.940798 
L 643.326899 316.593448 
L 645.542666 289.942086 
L 647.758433 264.333271 
L 649.9742 262.61431 
L 652.189967 287.521283 
L 654.405733 315.382702 
L 656.6215 309.519455 
L 658.837267 293.333953 
L 661.053034 297.375961 
L 663.268801 305.694885 
L 665.484568 307.812255 
L 667.700334 307.455234 
L 669.916101 305.194836 
L 672.131868 298.014338 
L 674.347635 276.900098 
L 676.563402 246.344489 
L 678.779169 241.088299 
L 680.994935 258.085786 
L 683.210702 252.845205 
L 685.426469 235.500702 
L 687.642236 238.323 
L 689.858003 238.692562 
L 692.07377 218.661262 
L 694.289537 203.212202 
L 696.505303 207.364562 
L 698.72107 227.59001 
L 700.936837 237.243448 
L 703.152604 212.247416 
L 705.368371 197.779686 
L 707.584138 213.652365 
L 709.799904 214.559419 
L 712.015671 193.510354 
L 714.231438 175.091544 
L 716.447205 161.366623 
L 718.662972 149.600734 
L 720.878739 148.58191 
L 723.094505 159.511604 
L 725.310272 170.700288 
L 727.526039 174.842601 
L 729.741806 169.743571 
L 731.957573 160.71526 
L 734.17334 153.690374 
L 736.389107 148.253888 
L 738.604873 141.128886 
L 740.82064 127.965276 
L 743.036407 123.250705 
L 745.252174 145.40275 
L 747.467941 160.634618 
L 749.683708 142.849568 
L 751.899474 140.8814 
L 754.115241 158.018561 
L 756.331008 146.39105 
L 758.546775 122.525913 
L 760.762542 122.786304 
L 762.978309 125.069362 
L 765.194075 112.442563 
L 767.409842 103.574981 
L 769.625609 107.366894 
L 771.841376 120.219491 
L 774.057143 138.088247 
L 774.057143 123.414831 
L 774.057143 123.414831 
L 771.841376 103.977285 
L 769.625609 90.183425 
L 767.409842 85.984451 
L 765.194075 94.876551 
L 762.978309 107.596048 
L 760.762542 104.945758 
L 758.546775 104.417297 
L 756.331008 128.804748 
L 754.115241 140.557185 
L 751.899474 122.703391 
L 749.683708 124.917956 
L 747.467941 143.617303 
L 745.252174 127.847589 
L 743.036407 104.663232 
L 740.82064 109.275445 
L 738.604873 122.956446 
L 736.389107 130.561789 
L 734.17334 135.801483 
L 731.957573 142.429303 
L 729.741806 151.811463 
L 727.526039 157.187603 
L 725.310272 152.495754 
L 723.094505 141.017258 
L 720.878739 130.499048 
L 718.662972 131.866473 
L 716.447205 143.772002 
L 714.231438 157.771101 
L 712.015671 176.785187 
L 709.799904 198.622452 
L 707.584138 197.903079 
L 705.368371 181.844076 
L 703.152604 197.184986 
L 700.936837 223.223952 
L 698.72107 213.122538 
L 696.505303 192.202549 
L 694.289537 188.17944 
L 692.07377 204.210066 
L 689.858003 224.741267 
L 687.642236 224.360285 
L 685.426469 221.458574 
L 683.210702 239.114739 
L 680.994935 244.133957 
L 678.779169 226.141741 
L 676.563402 230.969712 
L 674.347635 261.92894 
L 672.131868 283.524354 
L 669.916101 291.080533 
L 667.700334 293.706536 
L 665.484568 294.461033 
L 663.268801 292.669864 
L 661.053034 284.312282 
L 658.837267 280.254621 
L 656.6215 297.183694 
L 654.405733 303.650985 
L 652.189967 275.407445 
L 649.9742 249.977282 
L 647.758433 251.713143 
L 645.542666 278.030706 
L 643.326899 305.389913 
L 641.111132 307.58493 
L 638.895366 303.685922 
L 636.679599 311.103102 
L 634.463832 313.45177 
L 632.248065 306.333341 
L 630.032298 302.482447 
L 627.816531 303.98338 
L 625.600764 307.1032 
L 623.384998 312.948991 
L 621.169231 323.076671 
L 618.953464 336.604279 
L 616.737697 347.667419 
L 614.52193 347.105452 
L 612.306163 344.754372 
L 610.090397 354.933111 
L 607.87463 365.768629 
L 605.658863 367.626639 
L 603.443096 366.748522 
L 601.227329 368.654576 
L 599.011562 375.802961 
L 596.795796 382.053321 
L 594.580029 381.523291 
L 592.364262 383.381192 
L 590.148495 391.715503 
L 587.932728 396.47482 
L 585.716961 396.228301 
L 583.501194 397.157186 
L 581.285428 399.591261 
L 579.069661 402.350472 
L 576.853894 408.672635 
L 574.638127 418.13822 
L 572.42236 423.112162 
L 570.206593 422.446868 
L 567.990827 421.285981 
L 565.77506 424.496359 
L 563.559293 433.070811 
L 561.343526 436.271706 
L 559.127759 432.962298 
L 556.911992 434.112244 
L 554.696226 438.592536 
L 552.480459 439.237741 
L 550.264692 437.006556 
L 548.048925 435.525294 
L 545.833158 438.407361 
L 543.617391 443.2915 
L 541.401624 442.163009 
L 539.185858 439.419677 
L 536.970091 443.506612 
L 534.754324 449.381292 
L 532.538557 451.567264 
L 530.32279 452.481782 
L 528.107023 454.190414 
L 525.891257 456.973729 
L 523.67549 458.958859 
L 521.459723 458.375931 
L 519.243956 458.854451 
L 517.028189 462.368599 
L 514.812422 464.713626 
L 512.596656 464.655054 
L 510.380889 463.767561 
L 508.165122 463.981713 
L 505.949355 464.145294 
L 503.733588 453.384436 
L 501.517821 435.371465 
L 499.302054 434.753962 
L 497.086288 441.01779 
L 494.870521 424.094812 
L 492.654754 405.003054 
L 490.438987 408.9077 
L 488.22322 420.727477 
L 486.007453 427.764174 
L 483.791687 431.743757 
L 481.57592 435.507954 
L 479.360153 440.981761 
L 477.144386 444.840614 
L 474.928619 445.117026 
L 472.712852 448.330251 
L 470.497086 453.864722 
L 468.281319 451.12465 
L 466.065552 442.989351 
L 463.849785 438.146295 
L 461.634018 441.242986 
L 459.418251 451.412603 
L 457.202484 458.852793 
L 454.986718 456.175958 
L 452.770951 441.551505 
L 450.555184 432.725126 
L 448.339417 445.134902 
L 446.12365 451.236248 
L 443.907883 438.45046 
L 441.692117 437.948007 
L 439.47635 454.288164 
L 437.260583 463.66634 
L 435.044816 464.732239 
L 432.829049 465.157489 
L 430.613282 464.891804 
L 428.397516 464.692655 
L 426.181749 469.38793 
L 423.965982 476.150667 
L 421.750215 476.775645 
L 419.534448 474.577703 
L 417.318681 474.727444 
L 415.102914 475.479209 
L 412.887148 475.469947 
L 410.671381 475.821638 
L 408.455614 477.393019 
L 406.239847 480.165535 
L 404.02408 480.796376 
L 401.808313 477.585291 
L 399.592547 476.439166 
L 397.37678 479.001242 
L 395.161013 479.520714 
L 392.945246 477.318376 
L 390.729479 475.918094 
L 388.513712 478.086311 
L 386.297946 483.774891 
L 384.082179 486.01457 
L 381.866412 483.991642 
L 379.650645 485.6784 
L 377.434878 489.718651 
L 375.219111 490.200261 
L 373.003344 489.972507 
L 370.787578 491.655434 
L 368.571811 493.664432 
L 366.356044 493.825405 
L 364.140277 490.606465 
L 361.92451 488.558691 
L 359.708743 492.264889 
L 357.492977 495.330579 
L 355.27721 494.120894 
L 353.061443 494.003 
L 350.845676 495.166904 
L 348.629909 493.088467 
L 346.414142 491.231315 
L 344.198376 494.499792 
L 341.982609 498.344759 
L 339.766842 499.241893 
L 337.551075 499.210637 
L 335.335308 498.526016 
L 333.119541 496.080953 
L 330.903774 495.461961 
L 328.688008 497.870304 
L 326.472241 494.374816 
L 324.256474 487.100423 
L 322.040707 491.34731 
L 319.82494 495.785888 
L 317.609173 480.324055 
L 315.393407 471.921139 
L 313.17764 490.660121 
L 310.961873 505.633934 
L 308.746106 504.660321 
L 306.530339 503.862322 
L 304.314572 503.204676 
L 302.098806 495.362547 
L 299.883039 491.826752 
L 297.667272 500.232688 
L 295.451505 506.258303 
L 293.235738 504.700519 
L 291.019971 504.049204 
L 288.804204 505.034421 
L 286.588438 504.588439 
L 284.372671 504.543742 
L 282.156904 505.950088 
L 279.941137 506.642498 
L 277.72537 506.479366 
L 275.509603 506.866756 
L 273.293837 506.888082 
L 271.07807 505.64729 
L 268.862303 505.429428 
L 266.646536 506.76326 
L 264.430769 506.683852 
L 262.215002 505.688219 
L 259.999236 506.492899 
L 257.783469 507.832855 
L 255.567702 507.788078 
L 253.351935 507.544821 
L 251.136168 507.910872 
L 248.920401 508.249274 
L 246.704634 508.258829 
L 244.488868 508.051717 
L 242.273101 508.061316 
L 240.057334 508.527664 
L 237.841567 508.812553 
L 235.6258 508.817901 
L 233.410033 509.171454 
L 231.194267 509.611335 
L 228.9785 509.508309 
L 226.762733 509.381387 
L 224.546966 509.671764 
L 222.331199 509.7893 
L 220.115432 509.468895 
L 217.899666 509.034356 
L 215.683899 508.99896 
L 213.468132 509.694057 
L 211.252365 510.157773 
L 209.036598 509.726961 
L 206.820831 509.379345 
L 204.605065 509.574912 
L 202.389298 509.918836 
L 200.173531 510.004978 
L 197.957764 509.665875 
L 195.741997 509.675352 
L 193.52623 510.415907 
L 191.310463 510.908184 
L 189.094697 511.006899 
L 186.87893 511.254025 
L 184.663163 511.58701 
L 182.447396 511.766535 
L 180.231629 511.808695 
L 178.015862 511.77572 
L 175.800096 511.722124 
L 173.584329 511.739626 
L 171.368562 511.907685 
L 169.152795 512.048917 
L 166.937028 512.017114 
L 164.721261 512.042369 
L 162.505495 512.211675 
L 160.289728 512.293048 
L 158.073961 512.291388 
L 155.858194 512.375064 
L 153.642427 512.493801 
L 151.42666 512.548314 
L 149.210893 512.547271 
L 146.995127 512.536053 
L 144.77936 512.574227 
L 142.563593 512.617698 
L 140.347826 512.597505 
L 138.132059 512.559244 
L 135.916292 512.554517 
L 133.700526 512.584453 
L 131.484759 512.627054 
L 129.268992 512.647105 
L 127.053225 512.638656 
L 124.837458 512.611743 
L 122.621691 512.576551 
L 120.405925 512.543266 
L 118.190158 512.522073 
L 115.974391 512.523159 
L 113.758624 512.556707 
L 111.542857 512.632904 
z
" clip-path="url(#p67bee65d20)" style="fill: #ffa600"/>
   </g>
   <g id="matplotlib.axis_1">
    <g id="xtick_1">
     <g id="line2d_1">
      <defs>
       <path id="m301c481f7f" d="M 0 0 
L 0 3.5 
" style="stroke: #000000; stroke-width: 0.8"/>
      </defs>
      <g>
       <use xlink:href="#m301c481f7f" x="142.542857" y="512.64" style="stroke: #000000; stroke-width: 0.8"/>
      </g>
     </g>
     <g id="text_1">
      <!-- 2006 -->
      <g transform="translate(129.817857 527.238438) scale(0.1 -0.1)">
       <defs>
        <path id="DejaVuSans-32" d="M 1228 531 
L 3431 531 
L 3431 0 
L 469 0 
L 469 531 
Q 828 903 1448 1529 
Q 2069 2156 2228 2338 
Q 2531 2678 2651 2914 
Q 2772 3150 2772 3378 
Q 2772 3750 2511 3984 
Q 2250 4219 1831 4219 
Q 1534 4219 1204 4116 
Q 875 4013 500 3803 
L 500 4441 
Q 881 4594 1212 4672 
Q 1544 4750 1819 4750 
Q 2544 4750 2975 4387 
Q 3406 4025 3406 3419 
Q 3406 3131 3298 2873 
Q 3191 2616 2906 2266 
Q 2828 2175 2409 1742 
Q 1991 1309 1228 531 
z
" transform="scale(0.015625)"/>
        <path id="DejaVuSans-30" d="M 2034 4250 
Q 1547 4250 1301 3770 
Q 1056 3291 1056 2328 
Q 1056 1369 1301 889 
Q 1547 409 2034 409 
Q 2525 409 2770 889 
Q 3016 1369 3016 2328 
Q 3016 3291 2770 3770 
Q 2525 4250 2034 4250 
z
M 2034 4750 
Q 2819 4750 3233 4129 
Q 3647 3509 3647 2328 
Q 3647 1150 3233 529 
Q 2819 -91 2034 -91 
Q 1250 -91 836 529 
Q 422 1150 422 2328 
Q 422 3509 836 4129 
Q 1250 4750 2034 4750 
z
" transform="scale(0.015625)"/>
        <path id="DejaVuSans-36" d="M 2113 2584 
Q 1688 2584 1439 2293 
Q 1191 2003 1191 1497 
Q 1191 994 1439 701 
Q 1688 409 2113 409 
Q 2538 409 2786 701 
Q 3034 994 3034 1497 
Q 3034 2003 2786 2293 
Q 2538 2584 2113 2584 
z
M 3366 4563 
L 3366 3988 
Q 3128 4100 2886 4159 
Q 2644 4219 2406 4219 
Q 1781 4219 1451 3797 
Q 1122 3375 1075 2522 
Q 1259 2794 1537 2939 
Q 1816 3084 2150 3084 
Q 2853 3084 3261 2657 
Q 3669 2231 3669 1497 
Q 3669 778 3244 343 
Q 2819 -91 2113 -91 
Q 1303 -91 875 529 
Q 447 1150 447 2328 
Q 447 3434 972 4092 
Q 1497 4750 2381 4750 
Q 2619 4750 2861 4703 
Q 3103 4656 3366 4563 
z
" transform="scale(0.015625)"/>
       </defs>
       <use xlink:href="#DejaVuSans-32"/>
       <use xlink:href="#DejaVuSans-30" x="63.623047"/>
       <use xlink:href="#DejaVuSans-30" x="127.246094"/>
       <use xlink:href="#DejaVuSans-36" x="190.869141"/>
      </g>
     </g>
    </g>
    <g id="xtick_2">
     <g id="line2d_2">
      <g>
       <use xlink:href="#m301c481f7f" x="234.910204" y="512.64" style="stroke: #000000; stroke-width: 0.8"/>
      </g>
     </g>
     <g id="text_2">
      <!-- 2008 -->
      <g transform="translate(222.185204 527.238438) scale(0.1 -0.1)">
       <defs>
        <path id="DejaVuSans-38" d="M 2034 2216 
Q 1584 2216 1326 1975 
Q 1069 1734 1069 1313 
Q 1069 891 1326 650 
Q 1584 409 2034 409 
Q 2484 409 2743 651 
Q 3003 894 3003 1313 
Q 3003 1734 2745 1975 
Q 2488 2216 2034 2216 
z
M 1403 2484 
Q 997 2584 770 2862 
Q 544 3141 544 3541 
Q 544 4100 942 4425 
Q 1341 4750 2034 4750 
Q 2731 4750 3128 4425 
Q 3525 4100 3525 3541 
Q 3525 3141 3298 2862 
Q 3072 2584 2669 2484 
Q 3125 2378 3379 2068 
Q 3634 1759 3634 1313 
Q 3634 634 3220 271 
Q 2806 -91 2034 -91 
Q 1263 -91 848 271 
Q 434 634 434 1313 
Q 434 1759 690 2068 
Q 947 2378 1403 2484 
z
M 1172 3481 
Q 1172 3119 1398 2916 
Q 1625 2713 2034 2713 
Q 2441 2713 2670 2916 
Q 2900 3119 2900 3481 
Q 2900 3844 2670 4047 
Q 2441 4250 2034 4250 
Q 1625 4250 1398 4047 
Q 1172 3844 1172 3481 
z
" transform="scale(0.015625)"/>
       </defs>
       <use xlink:href="#DejaVuSans-32"/>
       <use xlink:href="#DejaVuSans-30" x="63.623047"/>
       <use xlink:href="#DejaVuSans-30" x="127.246094"/>
       <use xlink:href="#DejaVuSans-38" x="190.869141"/>
      </g>
     </g>
    </g>
    <g id="xtick_3">
     <g id="line2d_3">
      <g>
       <use xlink:href="#m301c481f7f" x="327.404082" y="512.64" style="stroke: #000000; stroke-width: 0.8"/>
      </g>
     </g>
     <g id="text_3">
      <!-- 2010 -->
      <g transform="translate(314.679082 527.238438) scale(0.1 -0.1)">
       <defs>
        <path id="DejaVuSans-31" d="M 794 531 
L 1825 531 
L 1825 4091 
L 703 3866 
L 703 4441 
L 1819 4666 
L 2450 4666 
L 2450 531 
L 3481 531 
L 3481 0 
L 794 0 
L 794 531 
z
" transform="scale(0.015625)"/>
       </defs>
       <use xlink:href="#DejaVuSans-32"/>
       <use xlink:href="#DejaVuSans-30" x="63.623047"/>
       <use xlink:href="#DejaVuSans-31" x="127.246094"/>
       <use xlink:href="#DejaVuSans-30" x="190.869141"/>
      </g>
     </g>
    </g>
    <g id="xtick_4">
     <g id="line2d_4">
      <g>
       <use xlink:href="#m301c481f7f" x="419.771429" y="512.64" style="stroke: #000000; stroke-width: 0.8"/>
      </g>
     </g>
     <g id="text_4">
      <!-- 2012 -->
      <g transform="translate(407.046429 527.238438) scale(0.1 -0.1)">
       <use xlink:href="#DejaVuSans-32"/>
       <use xlink:href="#DejaVuSans-30" x="63.623047"/>
       <use xlink:href="#DejaVuSans-31" x="127.246094"/>
       <use xlink:href="#DejaVuSans-32" x="190.869141"/>
      </g>
     </g>
    </g>
    <g id="xtick_5">
     <g id="line2d_5">
      <g>
       <use xlink:href="#m301c481f7f" x="512.265306" y="512.64" style="stroke: #000000; stroke-width: 0.8"/>
      </g>
     </g>
     <g id="text_5">
      <!-- 2014 -->
      <g transform="translate(499.540306 527.238438) scale(0.1 -0.1)">
       <defs>
        <path id="DejaVuSans-34" d="M 2419 4116 
L 825 1625 
L 2419 1625 
L 2419 4116 
z
M 2253 4666 
L 3047 4666 
L 3047 1625 
L 3713 1625 
L 3713 1100 
L 3047 1100 
L 3047 0 
L 2419 0 
L 2419 1100 
L 313 1100 
L 313 1709 
L 2253 4666 
z
" transform="scale(0.015625)"/>
       </defs>
       <use xlink:href="#DejaVuSans-32"/>
       <use xlink:href="#DejaVuSans-30" x="63.623047"/>
       <use xlink:href="#DejaVuSans-31" x="127.246094"/>
       <use xlink:href="#DejaVuSans-34" x="190.869141"/>
      </g>
     </g>
    </g>
    <g id="xtick_6">
     <g id="line2d_6">
      <g>
       <use xlink:href="#m301c481f7f" x="604.632653" y="512.64" style="stroke: #000000; stroke-width: 0.8"/>
      </g>
     </g>
     <g id="text_6">
      <!-- 2016 -->
      <g transform="translate(591.907653 527.238438) scale(0.1 -0.1)">
       <use xlink:href="#DejaVuSans-32"/>
       <use xlink:href="#DejaVuSans-30" x="63.623047"/>
       <use xlink:href="#DejaVuSans-31" x="127.246094"/>
       <use xlink:href="#DejaVuSans-36" x="190.869141"/>
      </g>
     </g>
    </g>
    <g id="xtick_7">
     <g id="line2d_7">
      <g>
       <use xlink:href="#m301c481f7f" x="697.126531" y="512.64" style="stroke: #000000; stroke-width: 0.8"/>
      </g>
     </g>
     <g id="text_7">
      <!-- 2018 -->
      <g transform="translate(684.401531 527.238438) scale(0.1 -0.1)">
       <use xlink:href="#DejaVuSans-32"/>
       <use xlink:href="#DejaVuSans-30" x="63.623047"/>
       <use xlink:href="#DejaVuSans-31" x="127.246094"/>
       <use xlink:href="#DejaVuSans-38" x="190.869141"/>
      </g>
     </g>
    </g>
   </g>
   <g id="matplotlib.axis_2">
    <g id="ytick_1">
     <g id="line2d_8">
      <path d="M 108 512.64 
L 777.6 512.64 
" clip-path="url(#p67bee65d20)" style="fill: none; stroke-dasharray: 2.96,1.28; stroke-dashoffset: 0; stroke: #808080; stroke-opacity: 0.5; stroke-width: 0.8"/>
     </g>
     <g id="line2d_9">
      <defs>
       <path id="m1e971a3cf2" d="M 0 0 
L -3.5 0 
" style="stroke: #000000; stroke-width: 0.8"/>
      </defs>
      <g>
       <use xlink:href="#m1e971a3cf2" x="108" y="512.64" style="stroke: #000000; stroke-width: 0.8"/>
      </g>
     </g>
     <g id="text_8">
      <!-- 0 -->
      <g transform="translate(94.6375 516.439219) scale(0.1 -0.1)">
       <use xlink:href="#DejaVuSans-30"/>
      </g>
     </g>
    </g>
    <g id="ytick_2">
     <g id="line2d_10">
      <path d="M 108 423.936 
L 777.6 423.936 
" clip-path="url(#p67bee65d20)" style="fill: none; stroke-dasharray: 2.96,1.28; stroke-dashoffset: 0; stroke: #808080; stroke-opacity: 0.5; stroke-width: 0.8"/>
     </g>
     <g id="line2d_11">
      <g>
       <use xlink:href="#m1e971a3cf2" x="108" y="423.936" style="stroke: #000000; stroke-width: 0.8"/>
      </g>
     </g>
     <g id="text_9">
      <!-- 100000 -->
      <g transform="translate(62.825 427.735219) scale(0.1 -0.1)">
       <use xlink:href="#DejaVuSans-31"/>
       <use xlink:href="#DejaVuSans-30" x="63.623047"/>
       <use xlink:href="#DejaVuSans-30" x="127.246094"/>
       <use xlink:href="#DejaVuSans-30" x="190.869141"/>
       <use xlink:href="#DejaVuSans-30" x="254.492188"/>
       <use xlink:href="#DejaVuSans-30" x="318.115234"/>
      </g>
     </g>
    </g>
    <g id="ytick_3">
     <g id="line2d_12">
      <path d="M 108 335.232 
L 777.6 335.232 
" clip-path="url(#p67bee65d20)" style="fill: none; stroke-dasharray: 2.96,1.28; stroke-dashoffset: 0; stroke: #808080; stroke-opacity: 0.5; stroke-width: 0.8"/>
     </g>
     <g id="line2d_13">
      <g>
       <use xlink:href="#m1e971a3cf2" x="108" y="335.232" style="stroke: #000000; stroke-width: 0.8"/>
      </g>
     </g>
     <g id="text_10">
      <!-- 200000 -->
      <g transform="translate(62.825 339.031219) scale(0.1 -0.1)">
       <use xlink:href="#DejaVuSans-32"/>
       <use xlink:href="#DejaVuSans-30" x="63.623047"/>
       <use xlink:href="#DejaVuSans-30" x="127.246094"/>
       <use xlink:href="#DejaVuSans-30" x="190.869141"/>
       <use xlink:href="#DejaVuSans-30" x="254.492188"/>
       <use xlink:href="#DejaVuSans-30" x="318.115234"/>
      </g>
     </g>
    </g>
    <g id="ytick_4">
     <g id="line2d_14">
      <path d="M 108 246.528 
L 777.6 246.528 
" clip-path="url(#p67bee65d20)" style="fill: none; stroke-dasharray: 2.96,1.28; stroke-dashoffset: 0; stroke: #808080; stroke-opacity: 0.5; stroke-width: 0.8"/>
     </g>
     <g id="line2d_15">
      <g>
       <use xlink:href="#m1e971a3cf2" x="108" y="246.528" style="stroke: #000000; stroke-width: 0.8"/>
      </g>
     </g>
     <g id="text_11">
      <!-- 300000 -->
      <g transform="translate(62.825 250.327219) scale(0.1 -0.1)">
       <defs>
        <path id="DejaVuSans-33" d="M 2597 2516 
Q 3050 2419 3304 2112 
Q 3559 1806 3559 1356 
Q 3559 666 3084 287 
Q 2609 -91 1734 -91 
Q 1441 -91 1130 -33 
Q 819 25 488 141 
L 488 750 
Q 750 597 1062 519 
Q 1375 441 1716 441 
Q 2309 441 2620 675 
Q 2931 909 2931 1356 
Q 2931 1769 2642 2001 
Q 2353 2234 1838 2234 
L 1294 2234 
L 1294 2753 
L 1863 2753 
Q 2328 2753 2575 2939 
Q 2822 3125 2822 3475 
Q 2822 3834 2567 4026 
Q 2313 4219 1838 4219 
Q 1578 4219 1281 4162 
Q 984 4106 628 3988 
L 628 4550 
Q 988 4650 1302 4700 
Q 1616 4750 1894 4750 
Q 2613 4750 3031 4423 
Q 3450 4097 3450 3541 
Q 3450 3153 3228 2886 
Q 3006 2619 2597 2516 
z
" transform="scale(0.015625)"/>
       </defs>
       <use xlink:href="#DejaVuSans-33"/>
       <use xlink:href="#DejaVuSans-30" x="63.623047"/>
       <use xlink:href="#DejaVuSans-30" x="127.246094"/>
       <use xlink:href="#DejaVuSans-30" x="190.869141"/>
       <use xlink:href="#DejaVuSans-30" x="254.492188"/>
       <use xlink:href="#DejaVuSans-30" x="318.115234"/>
      </g>
     </g>
    </g>
    <g id="ytick_5">
     <g id="line2d_16">
      <path d="M 108 157.824 
L 777.6 157.824 
" clip-path="url(#p67bee65d20)" style="fill: none; stroke-dasharray: 2.96,1.28; stroke-dashoffset: 0; stroke: #808080; stroke-opacity: 0.5; stroke-width: 0.8"/>
     </g>
     <g id="line2d_17">
      <g>
       <use xlink:href="#m1e971a3cf2" x="108" y="157.824" style="stroke: #000000; stroke-width: 0.8"/>
      </g>
     </g>
     <g id="text_12">
      <!-- 400000 -->
      <g transform="translate(62.825 161.623219) scale(0.1 -0.1)">
       <use xlink:href="#DejaVuSans-34"/>
       <use xlink:href="#DejaVuSans-30" x="63.623047"/>
       <use xlink:href="#DejaVuSans-30" x="127.246094"/>
       <use xlink:href="#DejaVuSans-30" x="190.869141"/>
       <use xlink:href="#DejaVuSans-30" x="254.492188"/>
       <use xlink:href="#DejaVuSans-30" x="318.115234"/>
      </g>
     </g>
    </g>
    <g id="ytick_6">
     <g id="line2d_18">
      <path d="M 108 69.12 
L 777.6 69.12 
" clip-path="url(#p67bee65d20)" style="fill: none; stroke-dasharray: 2.96,1.28; stroke-dashoffset: 0; stroke: #808080; stroke-opacity: 0.5; stroke-width: 0.8"/>
     </g>
     <g id="line2d_19">
      <g>
       <use xlink:href="#m1e971a3cf2" x="108" y="69.12" style="stroke: #000000; stroke-width: 0.8"/>
      </g>
     </g>
     <g id="text_13">
      <!-- 500000 -->
      <g transform="translate(62.825 72.919219) scale(0.1 -0.1)">
       <defs>
        <path id="DejaVuSans-35" d="M 691 4666 
L 3169 4666 
L 3169 4134 
L 1269 4134 
L 1269 2991 
Q 1406 3038 1543 3061 
Q 1681 3084 1819 3084 
Q 2600 3084 3056 2656 
Q 3513 2228 3513 1497 
Q 3513 744 3044 326 
Q 2575 -91 1722 -91 
Q 1428 -91 1123 -41 
Q 819 9 494 109 
L 494 744 
Q 775 591 1075 516 
Q 1375 441 1709 441 
Q 2250 441 2565 725 
Q 2881 1009 2881 1497 
Q 2881 1984 2565 2268 
Q 2250 2553 1709 2553 
Q 1456 2553 1204 2497 
Q 953 2441 691 2322 
L 691 4666 
z
" transform="scale(0.015625)"/>
       </defs>
       <use xlink:href="#DejaVuSans-35"/>
       <use xlink:href="#DejaVuSans-30" x="63.623047"/>
       <use xlink:href="#DejaVuSans-30" x="127.246094"/>
       <use xlink:href="#DejaVuSans-30" x="190.869141"/>
       <use xlink:href="#DejaVuSans-30" x="254.492188"/>
       <use xlink:href="#DejaVuSans-30" x="318.115234"/>
      </g>
     </g>
    </g>
   </g>
   <g id="line2d_20">
    <path d="M 234.910204 512.64 
L 234.910204 508.687172 
" clip-path="url(#p67bee65d20)" style="fill: none; stroke: #000000; stroke-width: 1.3; stroke-linecap: square"/>
   </g>
   <g id="line2d_21">
    <path d="M 234.910204 508.687172 
" clip-path="url(#p67bee65d20)" style="fill: none; stroke: #000000; stroke-width: 1.5; stroke-linecap: square"/>
    <defs>
     <path id="m91d7a94e83" d="M 0 2.5 
C 0.663008 2.5 1.29895 2.236584 1.767767 1.767767 
C 2.236584 1.29895 2.5 0.663008 2.5 0 
C 2.5 -0.663008 2.236584 -1.29895 1.767767 -1.767767 
C 1.29895 -2.236584 0.663008 -2.5 0 -2.5 
C -0.663008 -2.5 -1.29895 -2.236584 -1.767767 -1.767767 
C -2.236584 -1.29895 -2.5 -0.663008 -2.5 0 
C -2.5 0.663008 -2.236584 1.29895 -1.767767 1.767767 
C -1.29895 2.236584 -0.663008 2.5 0 2.5 
z
" style="stroke: #000000"/>
    </defs>
    <g clip-path="url(#p67bee65d20)">
     <use xlink:href="#m91d7a94e83" x="234.910204" y="508.687172" style="stroke: #000000"/>
    </g>
   </g>
   <g id="line2d_22">
    <path d="M 388.771429 512.64 
L 388.771429 475.820211 
" clip-path="url(#p67bee65d20)" style="fill: none; stroke: #000000; stroke-width: 1.3; stroke-linecap: square"/>
   </g>
   <g id="line2d_23">
    <path d="M 388.771429 475.820211 
" clip-path="url(#p67bee65d20)" style="fill: none; stroke: #000000; stroke-width: 1.5; stroke-linecap: square"/>
    <g clip-path="url(#p67bee65d20)">
     <use xlink:href="#m91d7a94e83" x="388.771429" y="475.820211" style="stroke: #000000"/>
    </g>
   </g>
   <g id="line2d_24">
    <path d="M 492.906122 512.64 
L 492.906122 400.717418 
" clip-path="url(#p67bee65d20)" style="fill: none; stroke: #000000; stroke-width: 1.3; stroke-linecap: square"/>
   </g>
   <g id="line2d_25">
    <path d="M 492.906122 400.717418 
" clip-path="url(#p67bee65d20)" style="fill: none; stroke: #000000; stroke-width: 1.5; stroke-linecap: square"/>
    <g clip-path="url(#p67bee65d20)">
     <use xlink:href="#m91d7a94e83" x="492.906122" y="400.717418" style="stroke: #000000"/>
    </g>
   </g>
   <g id="line2d_26">
    <path d="M 650.942857 512.64 
L 650.942857 245.340741 
" clip-path="url(#p67bee65d20)" style="fill: none; stroke: #000000; stroke-width: 1.3; stroke-linecap: square"/>
   </g>
   <g id="line2d_27">
    <path d="M 650.942857 245.340741 
" clip-path="url(#p67bee65d20)" style="fill: none; stroke: #000000; stroke-width: 1.5; stroke-linecap: square"/>
    <g clip-path="url(#p67bee65d20)">
     <use xlink:href="#m91d7a94e83" x="650.942857" y="245.340741" style="stroke: #000000"/>
    </g>
   </g>
   <g id="line2d_28">
    <path d="M 774.057143 512.64 
L 774.057143 103.953573 
" clip-path="url(#p67bee65d20)" style="fill: none; stroke: #000000; stroke-width: 1.3; stroke-linecap: square"/>
   </g>
   <g id="line2d_29">
    <path d="M 774.057143 103.953573 
" clip-path="url(#p67bee65d20)" style="fill: none; stroke: #000000; stroke-width: 1.5; stroke-linecap: square"/>
    <g clip-path="url(#p67bee65d20)">
     <use xlink:href="#m91d7a94e83" x="774.057143" y="103.953573" style="stroke: #000000"/>
    </g>
   </g>
   <g id="patch_3">
    <path d="M 108 512.64 
L 108 69.12 
" style="fill: none; stroke: #000000; stroke-width: 0.8; stroke-linejoin: miter; stroke-linecap: square"/>
   </g>
   <g id="patch_4">
    <path d="M 108 512.64 
L 777.6 512.64 
" style="fill: none; stroke: #000000; stroke-width: 0.8; stroke-linejoin: miter; stroke-linecap: square"/>
   </g>
   <g id="text_14">
    <!-- 4244 -->
    <g transform="translate(215.42449 491.134602) scale(0.15 -0.15)">
     <defs>
      <path id="CMSS17-34" d="M 2253 1088 
L 2835 1088 
L 2835 1477 
L 2253 1477 
L 2253 4192 
L 1690 4192 
L 166 1477 
L 166 1088 
L 1747 1088 
L 1747 0 
L 2253 0 
L 2253 1088 
z
M 659 1477 
C 1030 2127 1766 3439 1766 3885 
L 1766 1477 
L 659 1477 
z
" transform="scale(0.015625)"/>
      <path id="CMSS17-32" d="M 1651 1357 
C 1830 1541 2099 1764 2285 1987 
C 2464 2204 2701 2511 2701 2957 
C 2701 3657 2227 4288 1421 4288 
C 787 4288 422 3893 250 3274 
L 499 2929 
C 640 3510 838 3880 1338 3880 
C 1888 3880 2195 3433 2195 2942 
C 2195 2355 1747 1901 1408 1563 
C 1030 1187 659 804 301 408 
L 301 0 
L 2701 0 
L 2701 433 
L 1613 433 
C 1536 433 1459 433 1382 433 
L 742 433 
L 742 439 
L 1651 1357 
z
" transform="scale(0.015625)"/>
     </defs>
     <use xlink:href="#CMSS17-34" transform="scale(0.996264)"/>
     <use xlink:href="#CMSS17-32" transform="translate(46.843624 0) scale(0.996264)"/>
     <use xlink:href="#CMSS17-34" transform="translate(93.687247 0) scale(0.996264)"/>
     <use xlink:href="#CMSS17-34" transform="translate(140.530871 0) scale(0.996264)"/>
    </g>
   </g>
   <g id="text_15">
    <!-- 39532 -->
    <g transform="translate(369.285714 459.832735) scale(0.15 -0.15)">
     <defs>
      <path id="CMSS17-33" d="M 1005 2025 
L 1440 2025 
C 2042 2025 2214 1507 2214 1146 
C 2214 653 1933 267 1472 267 
C 1114 267 608 444 320 912 
C 275 691 275 678 250 526 
C 550 88 1037 -128 1485 -128 
C 2214 -128 2752 473 2752 1138 
C 2752 1638 2400 2057 1920 2215 
C 2304 2424 2586 2816 2586 3273 
C 2586 3805 2093 4229 1491 4229 
C 941 4229 512 3892 333 3530 
C 378 3468 493 3284 550 3189 
C 691 3562 1056 3840 1485 3840 
C 1843 3840 2080 3607 2080 3271 
C 2080 2923 1856 2543 1478 2455 
C 1453 2455 1056 2417 1005 2411 
L 1005 2025 
z
" transform="scale(0.015625)"/>
      <path id="CMSS17-39" d="M 435 174 
C 614 21 845 -128 1235 -128 
C 2010 -128 2752 721 2752 2095 
C 2752 3932 1952 4229 1523 4229 
C 1094 4229 819 4041 582 3741 
C 301 3397 250 3090 250 2733 
C 250 2307 326 2045 506 1745 
C 749 1357 973 1275 1222 1275 
C 1600 1275 1978 1459 2234 1776 
C 2189 902 1798 267 1235 267 
C 1005 267 819 339 634 516 
L 435 174 
z
M 2214 2746 
C 2221 2703 2221 2622 2221 2596 
C 2221 2074 1914 1664 1466 1664 
C 1171 1664 1018 1813 902 2006 
C 762 2249 755 2485 755 2733 
C 755 2976 755 3244 934 3511 
C 1069 3703 1235 3840 1523 3840 
C 2112 3840 2208 3000 2214 2746 
z
" transform="scale(0.015625)"/>
      <path id="CMSS17-35" d="M 934 3752 
L 2502 3752 
L 2502 4160 
L 467 4160 
L 467 1781 
L 896 1781 
C 1011 2046 1248 2240 1555 2240 
C 1843 2240 2163 1989 2163 1266 
C 2163 493 1709 267 1376 267 
C 966 267 589 512 422 851 
L 218 499 
C 512 49 992 -128 1376 -128 
C 2118 -128 2701 497 2701 1253 
C 2701 2030 2182 2629 1562 2629 
C 1338 2629 1120 2553 934 2399 
L 934 3752 
z
" transform="scale(0.015625)"/>
     </defs>
     <use xlink:href="#CMSS17-33" transform="scale(0.996264)"/>
     <use xlink:href="#CMSS17-39" transform="translate(46.843624 0) scale(0.996264)"/>
     <use xlink:href="#CMSS17-35" transform="translate(93.687247 0) scale(0.996264)"/>
     <use xlink:href="#CMSS17-33" transform="translate(140.530871 0) scale(0.996264)"/>
     <use xlink:href="#CMSS17-32" transform="translate(187.374494 0) scale(0.996264)"/>
    </g>
   </g>
   <g id="text_16">
    <!-- 120167 -->
    <g transform="translate(473.420408 388.306264) scale(0.15 -0.15)">
     <defs>
      <path id="CMSS17-31" d="M 1818 4288 
L 1696 4288 
C 1350 3940 947 3890 538 3890 
L 538 3520 
C 723 3520 1024 3520 1325 3667 
L 1325 369 
L 570 369 
L 570 0 
L 2573 0 
L 2573 369 
L 1818 369 
L 1818 4288 
z
" transform="scale(0.015625)"/>
      <path id="CMSS17-30" d="M 2758 2044 
C 2758 2405 2752 3077 2490 3596 
C 2227 4096 1805 4229 1504 4229 
C 1069 4229 698 3975 506 3570 
C 301 3146 243 2709 243 2044 
C 243 1589 262 1031 493 543 
C 755 5 1197 -128 1498 -128 
C 1894 -128 2278 81 2496 518 
C 2720 974 2758 1474 2758 2044 
z
M 1498 261 
C 1011 261 864 811 819 995 
C 742 1310 730 1614 730 2114 
C 730 2506 730 2948 851 3297 
C 998 3701 1254 3840 1498 3840 
C 1971 3840 2125 3372 2176 3208 
C 2272 2873 2272 2481 2272 2114 
C 2272 1526 2272 261 1498 261 
z
" transform="scale(0.015625)"/>
      <path id="CMSS17-36" d="M 2496 4101 
C 2227 4210 2035 4229 1856 4229 
C 1024 4229 250 3368 250 2006 
C 250 265 986 -128 1510 -128 
C 1798 -128 2086 -39 2362 280 
C 2643 617 2752 898 2752 1389 
C 2752 2179 2362 2880 1779 2880 
C 1357 2880 992 2657 768 2376 
C 832 3258 1254 3840 1862 3840 
C 2029 3840 2246 3816 2496 3710 
L 2496 4101 
z
M 774 1369 
C 774 1420 774 1452 781 1548 
C 781 2045 1069 2491 1536 2491 
C 1837 2491 1990 2332 2106 2135 
C 2240 1886 2246 1650 2246 1388 
C 2246 1140 2246 891 2099 637 
C 1978 439 1818 267 1510 267 
C 902 267 800 1114 774 1369 
z
" transform="scale(0.015625)"/>
      <path id="CMSS17-37" d="M 1389 3776 
C 1466 3776 1542 3776 1619 3776 
L 2355 3776 
C 1440 2711 915 1365 915 -32 
L 1427 -32 
C 1427 1323 1875 2696 2752 3795 
L 2752 4209 
L 250 4209 
L 250 3776 
L 1389 3776 
z
" transform="scale(0.015625)"/>
     </defs>
     <use xlink:href="#CMSS17-31" transform="scale(0.996264)"/>
     <use xlink:href="#CMSS17-32" transform="translate(46.843624 0) scale(0.996264)"/>
     <use xlink:href="#CMSS17-30" transform="translate(93.687247 0) scale(0.996264)"/>
     <use xlink:href="#CMSS17-31" transform="translate(140.530871 0) scale(0.996264)"/>
     <use xlink:href="#CMSS17-36" transform="translate(187.374494 0) scale(0.996264)"/>
     <use xlink:href="#CMSS17-37" transform="translate(234.218118 0) scale(0.996264)"/>
    </g>
   </g>
   <g id="text_17">
    <!-- 286989 -->
    <g transform="translate(631.457143 240.328477) scale(0.15 -0.15)">
     <defs>
      <path id="CMSS17-38" d="M 1933 2222 
C 2419 2380 2669 2760 2669 3134 
C 2669 3722 2157 4229 1504 4229 
C 826 4229 333 3708 333 3144 
C 333 2780 576 2403 1069 2241 
C 442 1997 250 1512 250 1149 
C 250 446 819 -128 1498 -128 
C 2202 -128 2752 455 2752 1138 
C 2752 1557 2502 2000 1933 2222 
z
M 1504 2432 
C 1075 2432 787 2712 787 3136 
C 787 3566 1075 3840 1504 3840 
C 1901 3840 2214 3591 2214 3136 
C 2214 2687 1907 2432 1504 2432 
z
M 1504 267 
C 1139 267 749 517 749 1156 
C 749 1813 1184 2043 1498 2043 
C 1843 2043 2253 1800 2253 1156 
C 2253 491 1830 267 1504 267 
z
" transform="scale(0.015625)"/>
     </defs>
     <use xlink:href="#CMSS17-32" transform="scale(0.996264)"/>
     <use xlink:href="#CMSS17-38" transform="translate(46.843624 0) scale(0.996264)"/>
     <use xlink:href="#CMSS17-36" transform="translate(93.687247 0) scale(0.996264)"/>
     <use xlink:href="#CMSS17-39" transform="translate(140.530871 0) scale(0.996264)"/>
     <use xlink:href="#CMSS17-38" transform="translate(187.374494 0) scale(0.996264)"/>
     <use xlink:href="#CMSS17-39" transform="translate(234.218118 0) scale(0.996264)"/>
    </g>
   </g>
   <g id="text_18">
    <!-- 438791 -->
    <g transform="translate(779.371429 105.674031) scale(0.15 -0.15)">
     <use xlink:href="#CMSS17-34" transform="scale(0.996264)"/>
     <use xlink:href="#CMSS17-33" transform="translate(46.843624 0) scale(0.996264)"/>
     <use xlink:href="#CMSS17-38" transform="translate(93.687247 0) scale(0.996264)"/>
     <use xlink:href="#CMSS17-37" transform="translate(140.530871 0) scale(0.996264)"/>
     <use xlink:href="#CMSS17-39" transform="translate(187.374494 0) scale(0.996264)"/>
     <use xlink:href="#CMSS17-31" transform="translate(234.218118 0) scale(0.996264)"/>
    </g>
   </g>
   <g id="text_19">
    <!-- $\overline{T}_2$ : 16542 -->
    <g style="fill: #ffa600" transform="translate(789.493878 131.2128) scale(0.15 -0.15)">
     <defs>
      <path id="CMMI12-54" d="M 2669 3910 
C 2707 4064 2720 4121 2816 4147 
C 2867 4160 3078 4160 3213 4160 
C 3853 4160 4154 4134 4154 3634 
C 4154 3537 4128 3295 4090 3057 
L 4083 2980 
C 4083 2954 4109 2916 4147 2916 
C 4211 2916 4211 2948 4230 3050 
L 4416 4184 
C 4429 4243 4429 4256 4429 4275 
C 4429 4345 4390 4345 4262 4345 
L 762 4345 
C 614 4345 608 4339 570 4224 
L 179 3070 
C 173 3056 154 2986 154 2980 
C 154 2948 179 2916 218 2916 
C 269 2916 282 2941 307 3024 
C 576 3801 710 4160 1562 4160 
L 1990 4160 
C 2144 4160 2208 4160 2208 4089 
C 2208 4069 2208 4057 2176 3941 
L 1318 499 
C 1254 249 1242 185 563 185 
C 403 185 358 185 358 64 
C 358 0 429 0 461 0 
C 621 0 787 0 947 0 
L 1946 0 
C 2106 0 2278 0 2438 0 
C 2509 0 2573 0 2573 121 
C 2573 185 2528 185 2362 185 
C 1786 185 1786 243 1786 339 
C 1786 346 1786 391 1811 494 
L 2669 3910 
z
" transform="scale(0.015625)"/>
      <path id="CMR17-32" d="M 2669 989 
L 2554 989 
C 2490 536 2438 459 2413 420 
C 2381 369 1920 369 1830 369 
L 602 369 
C 832 619 1280 1072 1824 1597 
C 2214 1967 2669 2402 2669 3035 
C 2669 3790 2067 4224 1395 4224 
C 691 4224 262 3604 262 3030 
C 262 2780 448 2748 525 2748 
C 589 2748 781 2787 781 3010 
C 781 3207 614 3264 525 3264 
C 486 3264 448 3258 422 3245 
C 544 3790 915 4058 1306 4058 
C 1862 4058 2227 3617 2227 3035 
C 2227 2479 1901 2000 1536 1584 
L 262 146 
L 262 0 
L 2515 0 
L 2669 989 
z
" transform="scale(0.015625)"/>
      <path id="CMSS17-3a" d="M 1088 2749 
L 576 2749 
L 576 2240 
L 1088 2240 
L 1088 2749 
z
M 576 510 
L 576 0 
L 1088 0 
L 1088 510 
L 576 510 
z
" transform="scale(0.015625)"/>
     </defs>
     <use xlink:href="#CMMI12-54" transform="scale(0.996264)"/>
     <use xlink:href="#CMR17-32" transform="translate(70.723632 -14.943915) scale(0.697382)"/>
     <use xlink:href="#CMSS17-3a" transform="translate(134.434059 0) scale(0.996264)"/>
     <use xlink:href="#CMSS17-31" transform="translate(202.097071 0) scale(0.996264)"/>
     <use xlink:href="#CMSS17-36" transform="translate(248.940694 0) scale(0.996264)"/>
     <use xlink:href="#CMSS17-35" transform="translate(295.784318 0) scale(0.996264)"/>
     <use xlink:href="#CMSS17-34" transform="translate(342.627941 0) scale(0.996264)"/>
     <use xlink:href="#CMSS17-32" transform="translate(389.471565 0) scale(0.996264)"/>
     <path d="M 0 80.032884 
L 70.723632 80.032884 
L 70.723632 84.017834 
L 0 84.017834 
L 0 80.032884 
z
"/>
    </g>
   </g>
   <g id="text_20">
    <!-- $\overline{T}_1$ : 61893 -->
    <g style="fill: #f95d6a" transform="translate(789.493878 157.824) scale(0.15 -0.15)">
     <defs>
      <path id="CMR17-31" d="M 1702 4058 
C 1702 4192 1696 4192 1606 4192 
C 1357 3916 979 3827 621 3827 
C 602 3827 570 3827 563 3808 
C 557 3795 557 3782 557 3648 
C 755 3648 1088 3686 1344 3839 
L 1344 461 
C 1344 236 1331 160 781 160 
L 589 160 
L 589 0 
C 896 0 1216 0 1523 0 
C 1830 0 2150 0 2458 0 
L 2458 160 
L 2266 160 
C 1715 160 1702 230 1702 458 
L 1702 4058 
z
" transform="scale(0.015625)"/>
     </defs>
     <use xlink:href="#CMMI12-54" transform="scale(0.996264)"/>
     <use xlink:href="#CMR17-31" transform="translate(70.723632 -14.943915) scale(0.697382)"/>
     <use xlink:href="#CMSS17-3a" transform="translate(134.434059 0) scale(0.996264)"/>
     <use xlink:href="#CMSS17-36" transform="translate(202.097071 0) scale(0.996264)"/>
     <use xlink:href="#CMSS17-31" transform="translate(248.940694 0) scale(0.996264)"/>
     <use xlink:href="#CMSS17-38" transform="translate(295.784318 0) scale(0.996264)"/>
     <use xlink:href="#CMSS17-39" transform="translate(342.627941 0) scale(0.996264)"/>
     <use xlink:href="#CMSS17-33" transform="translate(389.471565 0) scale(0.996264)"/>
     <path d="M 0 80.032884 
L 70.723632 80.032884 
L 70.723632 84.017834 
L 0 84.017834 
L 0 80.032884 
z
"/>
    </g>
   </g>
   <g id="text_21">
    <!-- $T_{1,2}$ : 360356 -->
    <g style="fill: #d45087" transform="translate(789.493878 250.9632) scale(0.15 -0.15)">
     <defs>
      <path id="CMMI12-3b" d="M 1248 -31 
C 1248 343 1126 619 864 619 
C 659 619 557 453 557 313 
C 557 172 653 0 870 0 
C 954 0 1024 26 1082 83 
C 1094 96 1101 96 1107 96 
C 1120 96 1120 5 1120 -27 
C 1120 -240 1082 -659 710 -1080 
C 640 -1157 640 -1170 640 -1183 
C 640 -1216 672 -1248 704 -1248 
C 755 -1248 1248 -771 1248 -31 
z
" transform="scale(0.015625)"/>
     </defs>
     <use xlink:href="#CMMI12-54" transform="scale(0.996264)"/>
     <use xlink:href="#CMR17-31" transform="translate(57.175044 -14.943915) scale(0.697382)"/>
     <use xlink:href="#CMMI12-3b" transform="translate(89.158226 -14.943915) scale(0.697382)"/>
     <use xlink:href="#CMR17-32" transform="translate(108.126158 -14.943915) scale(0.697382)"/>
     <use xlink:href="#CMSS17-3a" transform="translate(171.836585 0) scale(0.996264)"/>
     <use xlink:href="#CMSS17-33" transform="translate(239.499597 0) scale(0.996264)"/>
     <use xlink:href="#CMSS17-36" transform="translate(286.34322 0) scale(0.996264)"/>
     <use xlink:href="#CMSS17-30" transform="translate(333.186844 0) scale(0.996264)"/>
     <use xlink:href="#CMSS17-33" transform="translate(380.030467 0) scale(0.996264)"/>
     <use xlink:href="#CMSS17-35" transform="translate(426.874091 0) scale(0.996264)"/>
     <use xlink:href="#CMSS17-36" transform="translate(473.717714 0) scale(0.996264)"/>
    </g>
   </g>
  </g>
 </g>
 <defs>
  <clipPath id="p67bee65d20">
   <rect x="108" y="69.12" width="669.6" height="443.52"/>
  </clipPath>
 </defs>
</svg>
