<?xml version="1.0" encoding="utf-8" standalone="no"?>
<!DOCTYPE svg PUBLIC "-//W3C//DTD SVG 1.1//EN"
  "http://www.w3.org/Graphics/SVG/1.1/DTD/svg11.dtd">
<svg xmlns:xlink="http://www.w3.org/1999/xlink" width="822.852582pt" height="478.397344pt" viewBox="0 0 822.852582 478.397344" xmlns="http://www.w3.org/2000/svg" version="1.1">
 <metadata>
  <rdf:RDF xmlns:dc="http://purl.org/dc/elements/1.1/" xmlns:cc="http://creativecommons.org/ns#" xmlns:rdf="http://www.w3.org/1999/02/22-rdf-syntax-ns#">
   <cc:Work>
    <dc:type rdf:resource="http://purl.org/dc/dcmitype/StillImage"/>
    <dc:date>2024-12-18T19:20:37.816113</dc:date>
    <dc:format>image/svg+xml</dc:format>
    <dc:creator>
     <cc:Agent>
      <dc:title>Matplotlib v3.7.5, https://matplotlib.org/</dc:title>
     </cc:Agent>
    </dc:creator>
   </cc:Work>
  </rdf:RDF>
 </metadata>
 <defs>
  <style type="text/css">*{stroke-linejoin: round; stroke-linecap: butt}</style>
 </defs>
 <g id="figure_1">
  <g id="patch_1">
   <path d="M 0 478.397344 
L 822.852582 478.397344 
L 822.852582 0 
L 0 0 
z
" style="fill: #ffffff"/>
  </g>
  <g id="axes_1">
   <g id="patch_2">
    <path d="M 52.375 454.519219 
L 721.975 454.519219 
L 721.975 10.999219 
L 52.375 10.999219 
z
" style="fill: #ffffff"/>
   </g>
   <g id="PolyCollection_1">
    <path d="M 55.917857 454.513009 
L 55.917857 454.519219 
L 58.133624 454.519219 
L 60.349391 454.519219 
L 62.565158 454.519219 
L 64.780925 454.519219 
L 66.996691 454.519219 
L 69.212458 454.519219 
L 71.428225 454.519219 
L 73.643992 454.519219 
L 75.859759 454.519219 
L 78.075526 454.519219 
L 80.291292 454.519219 
L 82.507059 454.519219 
L 84.722826 454.519219 
L 86.938593 454.519219 
L 89.15436 454.519219 
L 91.370127 454.519219 
L 93.585893 454.519219 
L 95.80166 454.519219 
L 98.017427 454.519219 
L 100.233194 454.519219 
L 102.448961 454.519219 
L 104.664728 454.519219 
L 106.880495 454.519219 
L 109.096261 454.519219 
L 111.312028 454.519219 
L 113.527795 454.519219 
L 115.743562 454.519219 
L 117.959329 454.519219 
L 120.175096 454.519219 
L 122.390862 454.519219 
L 124.606629 454.519219 
L 126.822396 454.519219 
L 129.038163 454.519219 
L 131.25393 454.519219 
L 133.469697 454.519219 
L 135.685463 454.519219 
L 137.90123 454.519219 
L 140.116997 454.519219 
L 142.332764 454.519219 
L 144.548531 454.519219 
L 146.764298 454.519219 
L 148.980065 454.519219 
L 151.195831 454.519219 
L 153.411598 454.519219 
L 155.627365 454.519219 
L 157.843132 454.519219 
L 160.058899 454.519219 
L 162.274666 454.519219 
L 164.490432 454.519219 
L 166.706199 454.519219 
L 168.921966 454.519219 
L 171.137733 454.519219 
L 173.3535 454.519219 
L 175.569267 454.519219 
L 177.785033 454.519219 
L 180.0008 454.519219 
L 182.216567 454.519219 
L 184.432334 454.519219 
L 186.648101 454.519219 
L 188.863868 454.519219 
L 191.079634 454.519219 
L 193.295401 454.519219 
L 195.511168 454.519219 
L 197.726935 454.519219 
L 199.942702 454.519219 
L 202.158469 454.519219 
L 204.374236 454.519219 
L 206.590002 454.519219 
L 208.805769 454.519219 
L 211.021536 454.519219 
L 213.237303 454.519219 
L 215.45307 454.519219 
L 217.668837 454.519219 
L 219.884603 454.519219 
L 222.10037 454.519219 
L 224.316137 454.519219 
L 226.531904 454.519219 
L 228.747671 454.519219 
L 230.963438 454.519219 
L 233.179204 454.519219 
L 235.394971 454.519219 
L 237.610738 454.519219 
L 239.826505 454.519219 
L 242.042272 454.519219 
L 244.258039 454.519219 
L 246.473806 454.519219 
L 248.689572 454.519219 
L 250.905339 454.519219 
L 253.121106 454.519219 
L 255.336873 454.519219 
L 257.55264 454.519219 
L 259.768407 454.519219 
L 261.984173 454.519219 
L 264.19994 454.519219 
L 266.415707 454.519219 
L 268.631474 454.519219 
L 270.847241 454.519219 
L 273.063008 454.519219 
L 275.278774 454.519219 
L 277.494541 454.519219 
L 279.710308 454.519219 
L 281.926075 454.519219 
L 284.141842 454.519219 
L 286.357609 454.519219 
L 288.573376 454.519219 
L 290.789142 454.519219 
L 293.004909 454.519219 
L 295.220676 454.519219 
L 297.436443 454.519219 
L 299.65221 454.519219 
L 301.867977 454.519219 
L 304.083743 454.519219 
L 306.29951 454.519219 
L 308.515277 454.519219 
L 310.731044 454.519219 
L 312.946811 454.519219 
L 315.162578 454.519219 
L 317.378344 454.519219 
L 319.594111 454.519219 
L 321.809878 454.519219 
L 324.025645 454.519219 
L 326.241412 454.519219 
L 328.457179 454.519219 
L 330.672946 454.519219 
L 332.888712 454.519219 
L 335.104479 454.519219 
L 337.320246 454.519219 
L 339.536013 454.519219 
L 341.75178 454.519219 
L 343.967547 454.519219 
L 346.183313 454.519219 
L 348.39908 454.519219 
L 350.614847 454.519219 
L 352.830614 454.519219 
L 355.046381 454.519219 
L 357.262148 454.519219 
L 359.477914 454.519219 
L 361.693681 454.519219 
L 363.909448 454.519219 
L 366.125215 454.519219 
L 368.340982 454.519219 
L 370.556749 454.519219 
L 372.772516 454.519219 
L 374.988282 454.519219 
L 377.204049 454.519219 
L 379.419816 454.519219 
L 381.635583 454.519219 
L 383.85135 454.519219 
L 386.067117 454.519219 
L 388.282883 454.519219 
L 390.49865 454.519219 
L 392.714417 454.519219 
L 394.930184 454.519219 
L 397.145951 454.519219 
L 399.361718 454.519219 
L 401.577484 454.519219 
L 403.793251 454.519219 
L 406.009018 454.519219 
L 408.224785 454.519219 
L 410.440552 454.519219 
L 412.656319 454.519219 
L 414.872086 454.519219 
L 417.087852 454.519219 
L 419.303619 454.519219 
L 421.519386 454.519219 
L 423.735153 454.519219 
L 425.95092 454.519219 
L 428.166687 454.519219 
L 430.382453 454.519219 
L 432.59822 454.519219 
L 434.813987 454.519219 
L 437.029754 454.519219 
L 439.245521 454.519219 
L 441.461288 454.519219 
L 443.677054 454.519219 
L 445.892821 454.519219 
L 448.108588 454.519219 
L 450.324355 454.519219 
L 452.540122 454.519219 
L 454.755889 454.519219 
L 456.971656 454.519219 
L 459.187422 454.519219 
L 461.403189 454.519219 
L 463.618956 454.519219 
L 465.834723 454.519219 
L 468.05049 454.519219 
L 470.266257 454.519219 
L 472.482023 454.519219 
L 474.69779 454.519219 
L 476.913557 454.519219 
L 479.129324 454.519219 
L 481.345091 454.519219 
L 483.560858 454.519219 
L 485.776624 454.519219 
L 487.992391 454.519219 
L 490.208158 454.519219 
L 492.423925 454.519219 
L 494.639692 454.519219 
L 496.855459 454.519219 
L 499.071226 454.519219 
L 501.286992 454.519219 
L 503.502759 454.519219 
L 505.718526 454.519219 
L 507.934293 454.519219 
L 510.15006 454.519219 
L 512.365827 454.519219 
L 514.581593 454.519219 
L 516.79736 454.519219 
L 519.013127 454.519219 
L 521.228894 454.519219 
L 523.444661 454.519219 
L 525.660428 454.519219 
L 527.876194 454.519219 
L 530.091961 454.519219 
L 532.307728 454.519219 
L 534.523495 454.519219 
L 536.739262 454.519219 
L 538.955029 454.519219 
L 541.170796 454.519219 
L 543.386562 454.519219 
L 545.602329 454.519219 
L 547.818096 454.519219 
L 550.033863 454.519219 
L 552.24963 454.519219 
L 554.465397 454.519219 
L 556.681163 454.519219 
L 558.89693 454.519219 
L 561.112697 454.519219 
L 563.328464 454.519219 
L 565.544231 454.519219 
L 567.759998 454.519219 
L 569.975764 454.519219 
L 572.191531 454.519219 
L 574.407298 454.519219 
L 576.623065 454.519219 
L 578.838832 454.519219 
L 581.054599 454.519219 
L 583.270366 454.519219 
L 585.486132 454.519219 
L 587.701899 454.519219 
L 589.917666 454.519219 
L 592.133433 454.519219 
L 594.3492 454.519219 
L 596.564967 454.519219 
L 598.780733 454.519219 
L 600.9965 454.519219 
L 603.212267 454.519219 
L 605.428034 454.519219 
L 607.643801 454.519219 
L 609.859568 454.519219 
L 612.075334 454.519219 
L 614.291101 454.519219 
L 616.506868 454.519219 
L 618.722635 454.519219 
L 620.938402 454.519219 
L 623.154169 454.519219 
L 625.369935 454.519219 
L 627.585702 454.519219 
L 629.801469 454.519219 
L 632.017236 454.519219 
L 634.233003 454.519219 
L 636.44877 454.519219 
L 638.664537 454.519219 
L 640.880303 454.519219 
L 643.09607 454.519219 
L 645.311837 454.519219 
L 647.527604 454.519219 
L 649.743371 454.519219 
L 651.959138 454.519219 
L 654.174904 454.519219 
L 656.390671 454.519219 
L 658.606438 454.519219 
L 660.822205 454.519219 
L 663.037972 454.519219 
L 665.253739 454.519219 
L 667.469505 454.519219 
L 669.685272 454.519219 
L 671.901039 454.519219 
L 674.116806 454.519219 
L 676.332573 454.519219 
L 678.54834 454.519219 
L 680.764107 454.519219 
L 682.979873 454.519219 
L 685.19564 454.519219 
L 687.411407 454.519219 
L 689.627174 454.519219 
L 691.842941 454.519219 
L 694.058708 454.519219 
L 696.274474 454.519219 
L 698.490241 454.519219 
L 700.706008 454.519219 
L 702.921775 454.519219 
L 705.137542 454.519219 
L 707.353309 454.519219 
L 709.569075 454.519219 
L 711.784842 454.519219 
L 714.000609 454.519219 
L 716.216376 454.519219 
L 718.432143 454.519219 
L 718.432143 134.892096 
L 718.432143 134.892096 
L 716.216376 116.829975 
L 714.000609 106.713929 
L 711.784842 105.632041 
L 709.569075 114.339196 
L 707.353309 124.246386 
L 705.137542 120.012961 
L 702.921775 117.768648 
L 700.706008 137.815803 
L 698.490241 147.292904 
L 696.274474 131.133951 
L 694.058708 132.41883 
L 691.842941 148.735947 
L 689.627174 136.888815 
L 687.411407 119.285277 
L 685.19564 125.06381 
L 682.979873 137.6117 
L 680.764107 143.805456 
L 678.54834 147.201886 
L 676.332573 151.764426 
L 674.116806 159.377504 
L 671.901039 163.421375 
L 669.685272 158.690077 
L 667.469505 151.375445 
L 665.253739 147.935653 
L 663.037972 152.349442 
L 660.822205 162.143687 
L 658.606438 171.85689 
L 656.390671 184.821651 
L 654.174904 200.933705 
L 651.959138 203.442592 
L 649.743371 195.477452 
L 647.527604 204.772715 
L 645.311837 217.75696 
L 643.09607 206.803615 
L 640.880303 195.165181 
L 638.664537 200.9926 
L 636.44877 213.644408 
L 634.233003 222.443437 
L 632.017236 221.811148 
L 629.801469 222.798461 
L 627.585702 235.14258 
L 625.369935 236.585911 
L 623.154169 223.127217 
L 620.938402 230.682908 
L 618.722635 258.717721 
L 616.506868 274.712 
L 614.291101 277.413513 
L 612.075334 278.329746 
L 609.859568 279.165028 
L 607.643801 278.021812 
L 605.428034 271.047721 
L 603.212267 266.050113 
L 600.9965 275.969262 
L 598.780733 280.580743 
L 596.564967 263.336724 
L 594.3492 247.518393 
L 592.133433 248.474759 
L 589.917666 264.872056 
L 587.701899 282.167471 
L 585.486132 284.058709 
L 583.270366 282.467462 
L 581.054599 287.756096 
L 578.838832 288.082031 
L 576.623065 281.294918 
L 574.407298 278.227162 
L 572.191531 280.253983 
L 569.975764 283.666053 
L 567.759998 289.127139 
L 565.544231 297.629045 
L 563.328464 307.847543 
L 561.112697 315.45014 
L 558.89693 314.496635 
L 556.681163 312.893503 
L 554.465397 321.443347 
L 552.24963 330.317953 
L 550.033863 331.934045 
L 547.818096 331.952422 
L 545.602329 334.339615 
L 543.386562 339.817208 
L 541.170796 344.425587 
L 538.955029 344.712773 
L 536.739262 346.567722 
L 534.523495 352.619715 
L 532.307728 356.527435 
L 530.091961 357.184561 
L 527.876194 358.230967 
L 525.660428 360.424113 
L 523.444661 363.529531 
L 521.228894 368.635754 
L 519.013127 375.185813 
L 516.79736 379.579895 
L 514.581593 380.34474 
L 512.365827 378.745331 
L 510.15006 380.087969 
L 507.934293 387.235363 
L 505.718526 390.002309 
L 503.502759 386.905379 
L 501.286992 387.98713 
L 499.071226 392.337182 
L 496.855459 393.462734 
L 494.639692 391.723127 
L 492.423925 390.126243 
L 490.208158 392.510912 
L 487.992391 397.194068 
L 485.776624 397.015914 
L 483.560858 395.132248 
L 481.345091 398.356803 
L 479.129324 403.52063 
L 476.913557 406.449238 
L 474.69779 407.295218 
L 472.482023 407.516493 
L 470.266257 409.009063 
L 468.05049 410.539936 
L 465.834723 410.230703 
L 463.618956 411.139746 
L 461.403189 414.775599 
L 459.187422 416.961656 
L 456.971656 416.866855 
L 454.755889 416.558046 
L 452.540122 417.573781 
L 450.324355 418.738511 
L 448.108588 411.315885 
L 445.892821 397.369017 
L 443.677054 394.813448 
L 441.461288 398.25784 
L 439.245521 388.58767 
L 437.029754 376.874437 
L 434.813987 377.480593 
L 432.59822 383.310664 
L 430.382453 387.891627 
L 428.166687 391.473751 
L 425.95092 395.008547 
L 423.735153 399.075529 
L 421.519386 401.356995 
L 419.303619 400.890827 
L 417.087852 402.938657 
L 414.872086 407.347333 
L 412.656319 406.331486 
L 410.440552 401.490237 
L 408.224785 398.560779 
L 406.009018 400.736455 
L 403.793251 407.349829 
L 401.577484 411.415782 
L 399.361718 409.24782 
L 397.145951 401.826596 
L 394.930184 397.44712 
L 392.714417 402.782136 
L 390.49865 405.946107 
L 388.282883 401.370517 
L 386.067117 402.125003 
L 383.85135 410.160557 
L 381.635583 415.478009 
L 379.419816 416.99165 
L 377.204049 417.43174 
L 374.988282 417.303234 
L 372.772516 417.669085 
L 370.556749 421.186048 
L 368.340982 425.791772 
L 366.125215 426.261619 
L 363.909448 424.896937 
L 361.693681 425.163942 
L 359.477914 425.884213 
L 357.262148 426.009831 
L 355.046381 426.01627 
L 352.830614 426.860327 
L 350.614847 429.178726 
L 348.39908 430.020154 
L 346.183313 427.597856 
L 343.967547 426.768724 
L 341.75178 428.854605 
L 339.536013 428.992434 
L 337.320246 426.867568 
L 335.104479 425.777984 
L 332.888712 427.604515 
L 330.672946 432.003114 
L 328.457179 433.963633 
L 326.241412 432.804121 
L 324.025645 433.997153 
L 321.809878 436.749132 
L 319.594111 437.158806 
L 317.378344 437.082157 
L 315.162578 438.235286 
L 312.946811 439.588558 
L 310.731044 439.681061 
L 308.515277 437.46067 
L 306.29951 436.134853 
L 304.083743 438.90137 
L 301.867977 441.145122 
L 299.65221 440.252405 
L 297.436443 440.08705 
L 295.220676 440.970308 
L 293.004909 439.91644 
L 290.789142 438.960718 
L 288.573376 441.101799 
L 286.357609 443.574787 
L 284.141842 444.223606 
L 281.926075 444.244385 
L 279.710308 443.78884 
L 277.494541 442.218192 
L 275.278774 442.007135 
L 273.063008 443.806989 
L 270.847241 441.030091 
L 268.631474 435.422732 
L 266.415707 438.565827 
L 264.19994 441.618543 
L 261.984173 429.176594 
L 259.768407 422.617807 
L 257.55264 437.661916 
L 255.336873 449.499175 
L 253.121106 448.444 
L 250.905339 447.582561 
L 248.689572 447.175044 
L 246.473806 441.515204 
L 244.258039 438.951389 
L 242.042272 445.110179 
L 239.826505 449.556802 
L 237.610738 448.468851 
L 235.394971 447.983974 
L 233.179204 448.694537 
L 230.963438 448.447833 
L 228.747671 448.475339 
L 226.531904 449.469611 
L 224.316137 449.910302 
L 222.10037 449.763072 
L 219.884603 450.099238 
L 217.668837 450.131984 
L 215.45307 449.120079 
L 213.237303 448.949313 
L 211.021536 450.057022 
L 208.805769 449.996489 
L 206.590002 449.151695 
L 204.374236 449.741011 
L 202.158469 450.842521 
L 199.942702 450.952744 
L 197.726935 450.813186 
L 195.511168 450.994104 
L 193.295401 451.165637 
L 191.079634 451.168311 
L 188.863868 451.066992 
L 186.648101 451.1134 
L 184.432334 451.439986 
L 182.216567 451.648747 
L 180.0008 451.680485 
L 177.785033 451.92571 
L 175.569267 452.202592 
L 173.3535 452.107097 
L 171.137733 452.045287 
L 168.921966 452.317093 
L 166.706199 452.38376 
L 164.490432 452.090397 
L 162.274666 451.872752 
L 160.058899 451.982124 
L 157.843132 452.43067 
L 155.627365 452.694051 
L 153.411598 452.444608 
L 151.195831 452.209629 
L 148.980065 452.290847 
L 146.764298 452.573701 
L 144.548531 452.716525 
L 142.332764 452.456343 
L 140.116997 452.413536 
L 137.90123 452.937793 
L 135.685463 453.299303 
L 133.469697 453.372165 
L 131.25393 453.539486 
L 129.038163 453.758738 
L 126.822396 453.867248 
L 124.606629 453.89689 
L 122.390862 453.893146 
L 120.175096 453.865562 
L 117.959329 453.880704 
L 115.743562 454.015653 
L 113.527795 454.119631 
L 111.312028 454.068439 
L 109.096261 454.069173 
L 106.880495 454.201902 
L 104.664728 454.264059 
L 102.448961 454.259201 
L 100.233194 454.332369 
L 98.017427 454.43138 
L 95.80166 454.464681 
L 93.585893 454.450995 
L 91.370127 454.436492 
L 89.15436 454.469369 
L 86.938593 454.508452 
L 84.722826 454.492273 
L 82.507059 454.461165 
L 80.291292 454.459024 
L 78.075526 454.481499 
L 75.859759 454.510824 
L 73.643992 454.524177 
L 71.428225 454.51801 
L 69.212458 454.499217 
L 66.996691 454.474793 
L 64.780925 454.451733 
L 62.565158 454.437031 
L 60.349391 454.43768 
L 58.133624 454.460675 
L 55.917857 454.513009 
z
" clip-path="url(#p5a4f359187)" style="fill: #d45087"/>
   </g>
   <g id="PolyCollection_2">
    <path d="M 55.917857 454.512122 
L 55.917857 454.513009 
L 58.133624 454.460675 
L 60.349391 454.43768 
L 62.565158 454.437031 
L 64.780925 454.451733 
L 66.996691 454.474793 
L 69.212458 454.499217 
L 71.428225 454.51801 
L 73.643992 454.524177 
L 75.859759 454.510824 
L 78.075526 454.481499 
L 80.291292 454.459024 
L 82.507059 454.461165 
L 84.722826 454.492273 
L 86.938593 454.508452 
L 89.15436 454.469369 
L 91.370127 454.436492 
L 93.585893 454.450995 
L 95.80166 454.464681 
L 98.017427 454.43138 
L 100.233194 454.332369 
L 102.448961 454.259201 
L 104.664728 454.264059 
L 106.880495 454.201902 
L 109.096261 454.069173 
L 111.312028 454.068439 
L 113.527795 454.119631 
L 115.743562 454.015653 
L 117.959329 453.880704 
L 120.175096 453.865562 
L 122.390862 453.893146 
L 124.606629 453.89689 
L 126.822396 453.867248 
L 129.038163 453.758738 
L 131.25393 453.539486 
L 133.469697 453.372165 
L 135.685463 453.299303 
L 137.90123 452.937793 
L 140.116997 452.413536 
L 142.332764 452.456343 
L 144.548531 452.716525 
L 146.764298 452.573701 
L 148.980065 452.290847 
L 151.195831 452.209629 
L 153.411598 452.444608 
L 155.627365 452.694051 
L 157.843132 452.43067 
L 160.058899 451.982124 
L 162.274666 451.872752 
L 164.490432 452.090397 
L 166.706199 452.38376 
L 168.921966 452.317093 
L 171.137733 452.045287 
L 173.3535 452.107097 
L 175.569267 452.202592 
L 177.785033 451.92571 
L 180.0008 451.680485 
L 182.216567 451.648747 
L 184.432334 451.439986 
L 186.648101 451.1134 
L 188.863868 451.066992 
L 191.079634 451.168311 
L 193.295401 451.165637 
L 195.511168 450.994104 
L 197.726935 450.813186 
L 199.942702 450.952744 
L 202.158469 450.842521 
L 204.374236 449.741011 
L 206.590002 449.151695 
L 208.805769 449.996489 
L 211.021536 450.057022 
L 213.237303 448.949313 
L 215.45307 449.120079 
L 217.668837 450.131984 
L 219.884603 450.099238 
L 222.10037 449.763072 
L 224.316137 449.910302 
L 226.531904 449.469611 
L 228.747671 448.475339 
L 230.963438 448.447833 
L 233.179204 448.694537 
L 235.394971 447.983974 
L 237.610738 448.468851 
L 239.826505 449.556802 
L 242.042272 445.110179 
L 244.258039 438.951389 
L 246.473806 441.515204 
L 248.689572 447.175044 
L 250.905339 447.582561 
L 253.121106 448.444 
L 255.336873 449.499175 
L 257.55264 437.661916 
L 259.768407 422.617807 
L 261.984173 429.176594 
L 264.19994 441.618543 
L 266.415707 438.565827 
L 268.631474 435.422732 
L 270.847241 441.030091 
L 273.063008 443.806989 
L 275.278774 442.007135 
L 277.494541 442.218192 
L 279.710308 443.78884 
L 281.926075 444.244385 
L 284.141842 444.223606 
L 286.357609 443.574787 
L 288.573376 441.101799 
L 290.789142 438.960718 
L 293.004909 439.91644 
L 295.220676 440.970308 
L 297.436443 440.08705 
L 299.65221 440.252405 
L 301.867977 441.145122 
L 304.083743 438.90137 
L 306.29951 436.134853 
L 308.515277 437.46067 
L 310.731044 439.681061 
L 312.946811 439.588558 
L 315.162578 438.235286 
L 317.378344 437.082157 
L 319.594111 437.158806 
L 321.809878 436.749132 
L 324.025645 433.997153 
L 326.241412 432.804121 
L 328.457179 433.963633 
L 330.672946 432.003114 
L 332.888712 427.604515 
L 335.104479 425.777984 
L 337.320246 426.867568 
L 339.536013 428.992434 
L 341.75178 428.854605 
L 343.967547 426.768724 
L 346.183313 427.597856 
L 348.39908 430.020154 
L 350.614847 429.178726 
L 352.830614 426.860327 
L 355.046381 426.01627 
L 357.262148 426.009831 
L 359.477914 425.884213 
L 361.693681 425.163942 
L 363.909448 424.896937 
L 366.125215 426.261619 
L 368.340982 425.791772 
L 370.556749 421.186048 
L 372.772516 417.669085 
L 374.988282 417.303234 
L 377.204049 417.43174 
L 379.419816 416.99165 
L 381.635583 415.478009 
L 383.85135 410.160557 
L 386.067117 402.125003 
L 388.282883 401.370517 
L 390.49865 405.946107 
L 392.714417 402.782136 
L 394.930184 397.44712 
L 397.145951 401.826596 
L 399.361718 409.24782 
L 401.577484 411.415782 
L 403.793251 407.349829 
L 406.009018 400.736455 
L 408.224785 398.560779 
L 410.440552 401.490237 
L 412.656319 406.331486 
L 414.872086 407.347333 
L 417.087852 402.938657 
L 419.303619 400.890827 
L 421.519386 401.356995 
L 423.735153 399.075529 
L 425.95092 395.008547 
L 428.166687 391.473751 
L 430.382453 387.891627 
L 432.59822 383.310664 
L 434.813987 377.480593 
L 437.029754 376.874437 
L 439.245521 388.58767 
L 441.461288 398.25784 
L 443.677054 394.813448 
L 445.892821 397.369017 
L 448.108588 411.315885 
L 450.324355 418.738511 
L 452.540122 417.573781 
L 454.755889 416.558046 
L 456.971656 416.866855 
L 459.187422 416.961656 
L 461.403189 414.775599 
L 463.618956 411.139746 
L 465.834723 410.230703 
L 468.05049 410.539936 
L 470.266257 409.009063 
L 472.482023 407.516493 
L 474.69779 407.295218 
L 476.913557 406.449238 
L 479.129324 403.52063 
L 481.345091 398.356803 
L 483.560858 395.132248 
L 485.776624 397.015914 
L 487.992391 397.194068 
L 490.208158 392.510912 
L 492.423925 390.126243 
L 494.639692 391.723127 
L 496.855459 393.462734 
L 499.071226 392.337182 
L 501.286992 387.98713 
L 503.502759 386.905379 
L 505.718526 390.002309 
L 507.934293 387.235363 
L 510.15006 380.087969 
L 512.365827 378.745331 
L 514.581593 380.34474 
L 516.79736 379.579895 
L 519.013127 375.185813 
L 521.228894 368.635754 
L 523.444661 363.529531 
L 525.660428 360.424113 
L 527.876194 358.230967 
L 530.091961 357.184561 
L 532.307728 356.527435 
L 534.523495 352.619715 
L 536.739262 346.567722 
L 538.955029 344.712773 
L 541.170796 344.425587 
L 543.386562 339.817208 
L 545.602329 334.339615 
L 547.818096 331.952422 
L 550.033863 331.934045 
L 552.24963 330.317953 
L 554.465397 321.443347 
L 556.681163 312.893503 
L 558.89693 314.496635 
L 561.112697 315.45014 
L 563.328464 307.847543 
L 565.544231 297.629045 
L 567.759998 289.127139 
L 569.975764 283.666053 
L 572.191531 280.253983 
L 574.407298 278.227162 
L 576.623065 281.294918 
L 578.838832 288.082031 
L 581.054599 287.756096 
L 583.270366 282.467462 
L 585.486132 284.058709 
L 587.701899 282.167471 
L 589.917666 264.872056 
L 592.133433 248.474759 
L 594.3492 247.518393 
L 596.564967 263.336724 
L 598.780733 280.580743 
L 600.9965 275.969262 
L 603.212267 266.050113 
L 605.428034 271.047721 
L 607.643801 278.021812 
L 609.859568 279.165028 
L 612.075334 278.329746 
L 614.291101 277.413513 
L 616.506868 274.712 
L 618.722635 258.717721 
L 620.938402 230.682908 
L 623.154169 223.127217 
L 625.369935 236.585911 
L 627.585702 235.14258 
L 629.801469 222.798461 
L 632.017236 221.811148 
L 634.233003 222.443437 
L 636.44877 213.644408 
L 638.664537 200.9926 
L 640.880303 195.165181 
L 643.09607 206.803615 
L 645.311837 217.75696 
L 647.527604 204.772715 
L 649.743371 195.477452 
L 651.959138 203.442592 
L 654.174904 200.933705 
L 656.390671 184.821651 
L 658.606438 171.85689 
L 660.822205 162.143687 
L 663.037972 152.349442 
L 665.253739 147.935653 
L 667.469505 151.375445 
L 669.685272 158.690077 
L 671.901039 163.421375 
L 674.116806 159.377504 
L 676.332573 151.764426 
L 678.54834 147.201886 
L 680.764107 143.805456 
L 682.979873 137.6117 
L 685.19564 125.06381 
L 687.411407 119.285277 
L 689.627174 136.888815 
L 691.842941 148.735947 
L 694.058708 132.41883 
L 696.274474 131.133951 
L 698.490241 147.292904 
L 700.706008 137.815803 
L 702.921775 117.768648 
L 705.137542 120.012961 
L 707.353309 124.246386 
L 709.569075 114.339196 
L 711.784842 105.632041 
L 714.000609 106.713929 
L 716.216376 116.829975 
L 718.432143 134.892096 
L 718.432143 79.967466 
L 718.432143 79.967466 
L 716.216376 62.09871 
L 714.000609 49.246113 
L 711.784842 45.454199 
L 709.569075 54.321782 
L 707.353309 66.948581 
L 705.137542 64.665523 
L 702.921775 64.405131 
L 700.706008 88.270269 
L 698.490241 99.89778 
L 696.274474 82.760619 
L 694.058708 84.728787 
L 691.842941 102.513836 
L 689.627174 87.281969 
L 687.411407 65.129923 
L 685.19564 69.844495 
L 682.979873 83.008105 
L 680.764107 90.133107 
L 678.54834 95.569593 
L 676.332573 102.594479 
L 674.116806 111.622789 
L 671.901039 116.72182 
L 669.685272 112.579506 
L 667.469505 101.390823 
L 665.253739 90.461128 
L 663.037972 91.479953 
L 660.822205 103.245841 
L 658.606438 116.970762 
L 656.390671 135.389572 
L 654.174904 156.438638 
L 651.959138 155.531584 
L 649.743371 139.658905 
L 647.527604 154.126635 
L 645.311837 179.122667 
L 643.09607 169.469228 
L 640.880303 149.243781 
L 638.664537 145.09142 
L 636.44877 160.540481 
L 634.233003 180.57178 
L 632.017236 180.202219 
L 629.801469 177.379921 
L 627.585702 194.724423 
L 625.369935 199.965005 
L 623.154169 182.967518 
L 620.938402 188.223708 
L 618.722635 218.779316 
L 616.506868 239.893557 
L 614.291101 247.074055 
L 612.075334 249.334453 
L 609.859568 249.691474 
L 607.643801 247.574104 
L 605.428034 239.255179 
L 603.212267 235.213172 
L 600.9965 251.398674 
L 598.780733 257.261921 
L 596.564967 229.400502 
L 594.3492 204.493528 
L 592.133433 206.21249 
L 589.917666 231.821305 
L 587.701899 258.472667 
L 585.486132 260.820017 
L 583.270366 257.145053 
L 581.054599 264.20631 
L 578.838832 266.3739 
L 576.623065 259.517069 
L 574.407298 255.913156 
L 572.191531 257.37565 
L 569.975764 260.101137 
L 567.759998 265.464895 
L 565.544231 275.210681 
L 563.328464 288.262463 
L 561.112697 298.839234 
L 558.89693 298.162201 
L 556.681163 295.747799 
L 554.465397 305.413906 
L 552.24963 315.706125 
L 550.033863 317.343183 
L 547.818096 316.381919 
L 545.602329 318.153213 
L 543.386562 325.007906 
L 541.170796 331.030933 
L 538.955029 330.542911 
L 536.739262 332.289366 
L 534.523495 340.182428 
L 532.307728 344.642442 
L 530.091961 344.317471 
L 527.876194 345.11678 
L 525.660428 347.337702 
L 523.444661 349.873633 
L 521.228894 356.010805 
L 519.013127 365.316727 
L 516.79736 370.063265 
L 514.581593 369.192991 
L 512.365827 368.032915 
L 510.15006 371.130066 
L 507.934293 379.223945 
L 505.718526 382.207248 
L 503.502759 379.066346 
L 501.286992 380.192491 
L 499.071226 384.500415 
L 496.855459 385.17579 
L 494.639692 383.083229 
L 492.423925 381.644718 
L 490.208158 384.346374 
L 487.992391 388.991527 
L 485.776624 387.990407 
L 483.560858 385.520361 
L 481.345091 389.566273 
L 479.129324 395.18877 
L 476.913557 397.134552 
L 474.69779 397.941984 
L 472.482023 399.629596 
L 470.266257 402.292415 
L 468.05049 404.142021 
L 465.834723 403.568826 
L 463.618956 404.007366 
L 461.403189 407.319501 
L 459.187422 409.540023 
L 456.971656 409.47563 
L 454.755889 408.58381 
L 452.540122 408.802653 
L 450.324355 409.051097 
L 448.108588 398.564815 
L 445.892821 380.916746 
L 443.677054 380.377229 
L 441.461288 386.487799 
L 439.245521 369.527993 
L 437.029754 350.519207 
L 434.813987 354.507181 
L 432.59822 366.29851 
L 430.382453 373.182223 
L 428.166687 377.012395 
L 425.95092 380.669442 
L 423.735153 386.053877 
L 421.519386 389.871135 
L 419.303619 390.137561 
L 417.087852 393.187049 
L 414.872086 398.448371 
L 412.656319 395.664951 
L 410.440552 387.593558 
L 408.224785 382.66718 
L 406.009018 385.671503 
L 403.793251 395.871117 
L 401.577484 403.386912 
L 399.361718 400.727119 
L 397.145951 385.981701 
L 394.930184 377.049348 
L 392.714417 389.530412 
L 390.49865 395.658222 
L 388.282883 382.732911 
L 386.067117 382.137813 
L 383.85135 398.476425 
L 381.635583 407.80181 
L 379.419816 408.757912 
L 377.204049 409.075907 
L 374.988282 408.755681 
L 372.772516 408.544407 
L 370.556749 413.168747 
L 368.340982 419.830431 
L 366.125215 420.444049 
L 363.909448 418.236745 
L 361.693681 418.295671 
L 359.477914 419.023922 
L 357.262148 419.110975 
L 355.046381 419.525216 
L 352.830614 421.048224 
L 350.614847 423.673878 
L 348.39908 424.205466 
L 346.183313 421.043796 
L 343.967547 419.945572 
L 341.75178 422.482722 
L 339.536013 422.99594 
L 337.320246 420.813665 
L 335.104479 419.39995 
L 332.888712 421.49864 
L 330.672946 427.086941 
L 328.457179 429.313718 
L 326.241412 427.336481 
L 324.025645 428.911671 
L 321.809878 432.771965 
L 319.594111 433.227827 
L 317.378344 433.02725 
L 315.162578 434.690921 
L 312.946811 436.676017 
L 310.731044 436.830054 
L 308.515277 433.607066 
L 306.29951 431.548315 
L 304.083743 435.232806 
L 301.867977 438.274678 
L 299.65221 437.041711 
L 297.436443 436.889203 
L 295.220676 438.011867 
L 293.004909 435.903116 
L 290.789142 434.010565 
L 288.573376 437.222803 
L 286.357609 441.036161 
L 284.141842 441.953009 
L 281.926075 441.959767 
L 279.710308 441.278221 
L 277.494541 438.752903 
L 275.278774 438.049636 
L 273.063008 440.475748 
L 270.847241 437.128246 
L 268.631474 430.009734 
L 266.415707 434.17091 
L 264.19994 438.581731 
L 261.984173 423.580372 
L 259.768407 415.374569 
L 257.55264 433.528775 
L 255.336873 448.04138 
L 253.121106 447.086422 
L 250.905339 446.322196 
L 248.689572 445.689621 
L 246.473806 438.04822 
L 244.258039 434.599417 
L 242.042272 442.791346 
L 239.826505 448.678037 
L 237.610738 447.168906 
L 235.394971 446.488654 
L 233.179204 447.390384 
L 230.963438 446.954344 
L 228.747671 446.924042 
L 226.531904 448.282163 
L 224.316137 448.931143 
L 222.10037 448.750519 
L 219.884603 449.125418 
L 217.668837 449.152606 
L 215.45307 447.942512 
L 213.237303 447.719511 
L 211.021536 449.001199 
L 208.805769 448.903898 
L 206.590002 447.918029 
L 204.374236 448.695662 
L 202.158469 449.999827 
L 199.942702 449.953328 
L 197.726935 449.711395 
L 195.511168 450.063751 
L 193.295401 450.394787 
L 191.079634 450.405856 
L 188.863868 450.195971 
L 186.648101 450.195545 
L 184.432334 450.646019 
L 182.216567 450.911928 
L 180.0008 450.896658 
L 177.785033 451.228278 
L 175.569267 451.65193 
L 173.3535 451.546487 
L 171.137733 451.422338 
L 168.921966 451.711509 
L 166.706199 451.825936 
L 164.490432 451.499988 
L 162.274666 451.053027 
L 160.058899 451.005446 
L 157.843132 451.699995 
L 155.627365 452.174196 
L 153.411598 451.759473 
L 151.195831 451.425156 
L 148.980065 451.621438 
L 146.764298 451.94569 
L 144.548531 452.017154 
L 142.332764 451.69692 
L 140.116997 451.713414 
L 137.90123 452.418137 
L 135.685463 452.875071 
L 133.469697 452.961415 
L 131.25393 453.214704 
L 129.038163 453.545929 
L 126.822396 453.698493 
L 124.606629 453.729669 
L 122.390862 453.714598 
L 120.175096 453.663498 
L 117.959329 453.663568 
L 115.743562 453.821528 
L 113.527795 453.961957 
L 111.312028 453.932331 
L 109.096261 453.960808 
L 106.880495 454.130499 
L 104.664728 454.202339 
L 102.448961 454.190403 
L 100.233194 454.279661 
L 98.017427 454.40489 
L 95.80166 454.450163 
L 93.585893 454.437077 
L 91.370127 454.420359 
L 89.15436 454.456807 
L 86.938593 454.501328 
L 84.722826 454.484844 
L 82.507059 454.450847 
L 80.291292 454.448033 
L 78.075526 454.47426 
L 75.859759 454.509619 
L 73.643992 454.525692 
L 71.428225 454.517933 
L 69.212458 454.494783 
L 66.996691 454.464804 
L 64.780925 454.436557 
L 62.565158 454.418603 
L 60.349391 454.419505 
L 58.133624 454.447824 
L 55.917857 454.512122 
z
" clip-path="url(#p5a4f359187)" style="fill: #f95d6a"/>
   </g>
   <g id="PolyCollection_3">
    <path d="M 55.917857 454.512122 
L 55.917857 454.512122 
L 58.133624 454.447824 
L 60.349391 454.419505 
L 62.565158 454.418603 
L 64.780925 454.436557 
L 66.996691 454.464804 
L 69.212458 454.494783 
L 71.428225 454.517933 
L 73.643992 454.525692 
L 75.859759 454.509619 
L 78.075526 454.47426 
L 80.291292 454.448033 
L 82.507059 454.450847 
L 84.722826 454.484844 
L 86.938593 454.501328 
L 89.15436 454.456807 
L 91.370127 454.420359 
L 93.585893 454.437077 
L 95.80166 454.450163 
L 98.017427 454.40489 
L 100.233194 454.279661 
L 102.448961 454.190403 
L 104.664728 454.202339 
L 106.880495 454.130499 
L 109.096261 453.960808 
L 111.312028 453.932331 
L 113.527795 453.961957 
L 115.743562 453.821528 
L 117.959329 453.663568 
L 120.175096 453.663498 
L 122.390862 453.714598 
L 124.606629 453.729669 
L 126.822396 453.698493 
L 129.038163 453.545929 
L 131.25393 453.214704 
L 133.469697 452.961415 
L 135.685463 452.875071 
L 137.90123 452.418137 
L 140.116997 451.713414 
L 142.332764 451.69692 
L 144.548531 452.017154 
L 146.764298 451.94569 
L 148.980065 451.621438 
L 151.195831 451.425156 
L 153.411598 451.759473 
L 155.627365 452.174196 
L 157.843132 451.699995 
L 160.058899 451.005446 
L 162.274666 451.053027 
L 164.490432 451.499988 
L 166.706199 451.825936 
L 168.921966 451.711509 
L 171.137733 451.422338 
L 173.3535 451.546487 
L 175.569267 451.65193 
L 177.785033 451.228278 
L 180.0008 450.896658 
L 182.216567 450.911928 
L 184.432334 450.646019 
L 186.648101 450.195545 
L 188.863868 450.195971 
L 191.079634 450.405856 
L 193.295401 450.394787 
L 195.511168 450.063751 
L 197.726935 449.711395 
L 199.942702 449.953328 
L 202.158469 449.999827 
L 204.374236 448.695662 
L 206.590002 447.918029 
L 208.805769 448.903898 
L 211.021536 449.001199 
L 213.237303 447.719511 
L 215.45307 447.942512 
L 217.668837 449.152606 
L 219.884603 449.125418 
L 222.10037 448.750519 
L 224.316137 448.931143 
L 226.531904 448.282163 
L 228.747671 446.924042 
L 230.963438 446.954344 
L 233.179204 447.390384 
L 235.394971 446.488654 
L 237.610738 447.168906 
L 239.826505 448.678037 
L 242.042272 442.791346 
L 244.258039 434.599417 
L 246.473806 438.04822 
L 248.689572 445.689621 
L 250.905339 446.322196 
L 253.121106 447.086422 
L 255.336873 448.04138 
L 257.55264 433.528775 
L 259.768407 415.374569 
L 261.984173 423.580372 
L 264.19994 438.581731 
L 266.415707 434.17091 
L 268.631474 430.009734 
L 270.847241 437.128246 
L 273.063008 440.475748 
L 275.278774 438.049636 
L 277.494541 438.752903 
L 279.710308 441.278221 
L 281.926075 441.959767 
L 284.141842 441.953009 
L 286.357609 441.036161 
L 288.573376 437.222803 
L 290.789142 434.010565 
L 293.004909 435.903116 
L 295.220676 438.011867 
L 297.436443 436.889203 
L 299.65221 437.041711 
L 301.867977 438.274678 
L 304.083743 435.232806 
L 306.29951 431.548315 
L 308.515277 433.607066 
L 310.731044 436.830054 
L 312.946811 436.676017 
L 315.162578 434.690921 
L 317.378344 433.02725 
L 319.594111 433.227827 
L 321.809878 432.771965 
L 324.025645 428.911671 
L 326.241412 427.336481 
L 328.457179 429.313718 
L 330.672946 427.086941 
L 332.888712 421.49864 
L 335.104479 419.39995 
L 337.320246 420.813665 
L 339.536013 422.99594 
L 341.75178 422.482722 
L 343.967547 419.945572 
L 346.183313 421.043796 
L 348.39908 424.205466 
L 350.614847 423.673878 
L 352.830614 421.048224 
L 355.046381 419.525216 
L 357.262148 419.110975 
L 359.477914 419.023922 
L 361.693681 418.295671 
L 363.909448 418.236745 
L 366.125215 420.444049 
L 368.340982 419.830431 
L 370.556749 413.168747 
L 372.772516 408.544407 
L 374.988282 408.755681 
L 377.204049 409.075907 
L 379.419816 408.757912 
L 381.635583 407.80181 
L 383.85135 398.476425 
L 386.067117 382.137813 
L 388.282883 382.732911 
L 390.49865 395.658222 
L 392.714417 389.530412 
L 394.930184 377.049348 
L 397.145951 385.981701 
L 399.361718 400.727119 
L 401.577484 403.386912 
L 403.793251 395.871117 
L 406.009018 385.671503 
L 408.224785 382.66718 
L 410.440552 387.593558 
L 412.656319 395.664951 
L 414.872086 398.448371 
L 417.087852 393.187049 
L 419.303619 390.137561 
L 421.519386 389.871135 
L 423.735153 386.053877 
L 425.95092 380.669442 
L 428.166687 377.012395 
L 430.382453 373.182223 
L 432.59822 366.29851 
L 434.813987 354.507181 
L 437.029754 350.519207 
L 439.245521 369.527993 
L 441.461288 386.487799 
L 443.677054 380.377229 
L 445.892821 380.916746 
L 448.108588 398.564815 
L 450.324355 409.051097 
L 452.540122 408.802653 
L 454.755889 408.58381 
L 456.971656 409.47563 
L 459.187422 409.540023 
L 461.403189 407.319501 
L 463.618956 404.007366 
L 465.834723 403.568826 
L 468.05049 404.142021 
L 470.266257 402.292415 
L 472.482023 399.629596 
L 474.69779 397.941984 
L 476.913557 397.134552 
L 479.129324 395.18877 
L 481.345091 389.566273 
L 483.560858 385.520361 
L 485.776624 387.990407 
L 487.992391 388.991527 
L 490.208158 384.346374 
L 492.423925 381.644718 
L 494.639692 383.083229 
L 496.855459 385.17579 
L 499.071226 384.500415 
L 501.286992 380.192491 
L 503.502759 379.066346 
L 505.718526 382.207248 
L 507.934293 379.223945 
L 510.15006 371.130066 
L 512.365827 368.032915 
L 514.581593 369.192991 
L 516.79736 370.063265 
L 519.013127 365.316727 
L 521.228894 356.010805 
L 523.444661 349.873633 
L 525.660428 347.337702 
L 527.876194 345.11678 
L 530.091961 344.317471 
L 532.307728 344.642442 
L 534.523495 340.182428 
L 536.739262 332.289366 
L 538.955029 330.542911 
L 541.170796 331.030933 
L 543.386562 325.007906 
L 545.602329 318.153213 
L 547.818096 316.381919 
L 550.033863 317.343183 
L 552.24963 315.706125 
L 554.465397 305.413906 
L 556.681163 295.747799 
L 558.89693 298.162201 
L 561.112697 298.839234 
L 563.328464 288.262463 
L 565.544231 275.210681 
L 567.759998 265.464895 
L 569.975764 260.101137 
L 572.191531 257.37565 
L 574.407298 255.913156 
L 576.623065 259.517069 
L 578.838832 266.3739 
L 581.054599 264.20631 
L 583.270366 257.145053 
L 585.486132 260.820017 
L 587.701899 258.472667 
L 589.917666 231.821305 
L 592.133433 206.21249 
L 594.3492 204.493528 
L 596.564967 229.400502 
L 598.780733 257.261921 
L 600.9965 251.398674 
L 603.212267 235.213172 
L 605.428034 239.255179 
L 607.643801 247.574104 
L 609.859568 249.691474 
L 612.075334 249.334453 
L 614.291101 247.074055 
L 616.506868 239.893557 
L 618.722635 218.779316 
L 620.938402 188.223708 
L 623.154169 182.967518 
L 625.369935 199.965005 
L 627.585702 194.724423 
L 629.801469 177.379921 
L 632.017236 180.202219 
L 634.233003 180.57178 
L 636.44877 160.540481 
L 638.664537 145.09142 
L 640.880303 149.243781 
L 643.09607 169.469228 
L 645.311837 179.122667 
L 647.527604 154.126635 
L 649.743371 139.658905 
L 651.959138 155.531584 
L 654.174904 156.438638 
L 656.390671 135.389572 
L 658.606438 116.970762 
L 660.822205 103.245841 
L 663.037972 91.479953 
L 665.253739 90.461128 
L 667.469505 101.390823 
L 669.685272 112.579506 
L 671.901039 116.72182 
L 674.116806 111.622789 
L 676.332573 102.594479 
L 678.54834 95.569593 
L 680.764107 90.133107 
L 682.979873 83.008105 
L 685.19564 69.844495 
L 687.411407 65.129923 
L 689.627174 87.281969 
L 691.842941 102.513836 
L 694.058708 84.728787 
L 696.274474 82.760619 
L 698.490241 99.89778 
L 700.706008 88.270269 
L 702.921775 64.405131 
L 705.137542 64.665523 
L 707.353309 66.948581 
L 709.569075 54.321782 
L 711.784842 45.454199 
L 714.000609 49.246113 
L 716.216376 62.09871 
L 718.432143 79.967466 
L 718.432143 65.29405 
L 718.432143 65.29405 
L 716.216376 45.856503 
L 714.000609 32.062644 
L 711.784842 27.86367 
L 709.569075 36.755769 
L 707.353309 49.475267 
L 705.137542 46.824976 
L 702.921775 46.296516 
L 700.706008 70.683967 
L 698.490241 82.436404 
L 696.274474 64.58261 
L 694.058708 66.797175 
L 691.842941 85.496522 
L 689.627174 69.726808 
L 687.411407 46.54245 
L 685.19564 51.154664 
L 682.979873 64.835665 
L 680.764107 72.441008 
L 678.54834 77.680702 
L 676.332573 84.308521 
L 674.116806 93.690681 
L 671.901039 99.066822 
L 669.685272 94.374972 
L 667.469505 82.896477 
L 665.253739 72.378267 
L 663.037972 73.745691 
L 660.822205 85.651221 
L 658.606438 99.650319 
L 656.390671 118.664405 
L 654.174904 140.50167 
L 651.959138 139.782298 
L 649.743371 123.723294 
L 647.527604 139.064205 
L 645.311837 165.103171 
L 643.09607 155.001757 
L 640.880303 134.081768 
L 638.664537 130.058659 
L 636.44877 146.089285 
L 634.233003 166.620486 
L 632.017236 166.239504 
L 629.801469 163.337793 
L 627.585702 180.993958 
L 625.369935 186.013176 
L 623.154169 168.02096 
L 620.938402 172.848931 
L 618.722635 203.808159 
L 616.506868 225.403573 
L 614.291101 232.959752 
L 612.075334 235.585755 
L 609.859568 236.340252 
L 607.643801 234.549083 
L 605.428034 226.191501 
L 603.212267 222.13384 
L 600.9965 239.062912 
L 598.780733 245.530203 
L 596.564967 217.286664 
L 594.3492 191.8565 
L 592.133433 193.592361 
L 589.917666 219.909924 
L 587.701899 247.269131 
L 585.486132 249.464148 
L 583.270366 245.565141 
L 581.054599 252.982321 
L 578.838832 255.330989 
L 576.623065 248.212559 
L 574.407298 244.361665 
L 572.191531 245.862599 
L 569.975764 248.982418 
L 567.759998 254.82821 
L 565.544231 264.95589 
L 563.328464 278.483498 
L 561.112697 289.546638 
L 558.89693 288.984671 
L 556.681163 286.63359 
L 554.465397 296.812329 
L 552.24963 307.647847 
L 550.033863 309.505857 
L 547.818096 308.627741 
L 545.602329 310.533795 
L 543.386562 317.68218 
L 541.170796 323.93254 
L 538.955029 323.402509 
L 536.739262 325.26041 
L 534.523495 333.594721 
L 532.307728 338.354038 
L 530.091961 338.10752 
L 527.876194 339.036405 
L 525.660428 341.47048 
L 523.444661 344.229691 
L 521.228894 350.551854 
L 519.013127 360.017439 
L 516.79736 364.99138 
L 514.581593 364.326087 
L 512.365827 363.165199 
L 510.15006 366.375577 
L 507.934293 374.95003 
L 505.718526 378.150925 
L 503.502759 374.841516 
L 501.286992 375.991462 
L 499.071226 380.471754 
L 496.855459 381.11696 
L 494.639692 378.885775 
L 492.423925 377.404513 
L 490.208158 380.286579 
L 487.992391 385.170719 
L 485.776624 384.042227 
L 483.560858 381.298896 
L 481.345091 385.385831 
L 479.129324 391.260511 
L 476.913557 393.446482 
L 474.69779 394.361 
L 472.482023 396.069632 
L 470.266257 398.852947 
L 468.05049 400.838078 
L 465.834723 400.25515 
L 463.618956 400.73367 
L 461.403189 404.247818 
L 459.187422 406.592845 
L 456.971656 406.534272 
L 454.755889 405.64678 
L 452.540122 405.860932 
L 450.324355 406.024513 
L 448.108588 395.263655 
L 445.892821 377.250684 
L 443.677054 376.63318 
L 441.461288 382.897009 
L 439.245521 365.97403 
L 437.029754 346.882273 
L 434.813987 350.786919 
L 432.59822 362.606695 
L 430.382453 369.643393 
L 428.166687 373.622976 
L 425.95092 377.387173 
L 423.735153 382.86098 
L 421.519386 386.719833 
L 419.303619 386.996245 
L 417.087852 390.20947 
L 414.872086 395.743941 
L 412.656319 393.003869 
L 410.440552 384.86857 
L 408.224785 380.025513 
L 406.009018 383.122205 
L 403.793251 393.291822 
L 401.577484 400.732011 
L 399.361718 398.055177 
L 397.145951 383.430724 
L 394.930184 374.604345 
L 392.714417 387.014121 
L 390.49865 393.115467 
L 388.282883 380.329679 
L 386.067117 379.827226 
L 383.85135 396.167383 
L 381.635583 405.545559 
L 379.419816 406.611458 
L 377.204049 407.036708 
L 374.988282 406.771023 
L 372.772516 406.571874 
L 370.556749 411.267149 
L 368.340982 418.029885 
L 366.125215 418.654863 
L 363.909448 416.456921 
L 361.693681 416.606662 
L 359.477914 417.358428 
L 357.262148 417.349165 
L 355.046381 417.700856 
L 352.830614 419.272237 
L 350.614847 422.044753 
L 348.39908 422.675594 
L 346.183313 419.464509 
L 343.967547 418.318385 
L 341.75178 420.880461 
L 339.536013 421.399933 
L 337.320246 419.197595 
L 335.104479 417.797312 
L 332.888712 419.965529 
L 330.672946 425.65411 
L 328.457179 427.893789 
L 326.241412 425.87086 
L 324.025645 427.557618 
L 321.809878 431.59787 
L 319.594111 432.07948 
L 317.378344 431.851726 
L 315.162578 433.534652 
L 312.946811 435.54365 
L 310.731044 435.704624 
L 308.515277 432.485684 
L 306.29951 430.43791 
L 304.083743 434.144108 
L 301.867977 437.209798 
L 299.65221 436.000113 
L 297.436443 435.882219 
L 295.220676 437.046123 
L 293.004909 434.967686 
L 290.789142 433.110534 
L 288.573376 436.37901 
L 286.357609 440.223977 
L 284.141842 441.121111 
L 281.926075 441.089856 
L 279.710308 440.405234 
L 277.494541 437.960172 
L 275.278774 437.34118 
L 273.063008 439.749523 
L 270.847241 436.254035 
L 268.631474 428.979641 
L 266.415707 433.226529 
L 264.19994 437.665107 
L 261.984173 422.203274 
L 259.768407 413.800357 
L 257.55264 432.53934 
L 255.336873 447.513153 
L 253.121106 446.53954 
L 250.905339 445.741541 
L 248.689572 445.083895 
L 246.473806 437.241766 
L 244.258039 433.705971 
L 242.042272 442.111906 
L 239.826505 448.137522 
L 237.610738 446.579738 
L 235.394971 445.928423 
L 233.179204 446.91364 
L 230.963438 446.467658 
L 228.747671 446.42296 
L 226.531904 447.829307 
L 224.316137 448.521717 
L 222.10037 448.358585 
L 219.884603 448.745975 
L 217.668837 448.7673 
L 215.45307 447.526508 
L 213.237303 447.308647 
L 211.021536 448.642478 
L 208.805769 448.563071 
L 206.590002 447.567437 
L 204.374236 448.372117 
L 202.158469 449.712074 
L 199.942702 449.667297 
L 197.726935 449.424039 
L 195.511168 449.790091 
L 193.295401 450.128493 
L 191.079634 450.138047 
L 188.863868 449.930936 
L 186.648101 449.940535 
L 184.432334 450.406882 
L 182.216567 450.691772 
L 180.0008 450.69712 
L 177.785033 451.050673 
L 175.569267 451.490554 
L 173.3535 451.387528 
L 171.137733 451.260606 
L 168.921966 451.550983 
L 166.706199 451.668519 
L 164.490432 451.348114 
L 162.274666 450.913575 
L 160.058899 450.878179 
L 157.843132 451.573276 
L 155.627365 452.036992 
L 153.411598 451.60618 
L 151.195831 451.258563 
L 148.980065 451.454131 
L 146.764298 451.798055 
L 144.548531 451.884197 
L 142.332764 451.545094 
L 140.116997 451.554571 
L 137.90123 452.295126 
L 135.685463 452.787402 
L 133.469697 452.886118 
L 131.25393 453.133244 
L 129.038163 453.466229 
L 126.822396 453.645753 
L 124.606629 453.687914 
L 122.390862 453.654938 
L 120.175096 453.601343 
L 117.959329 453.618845 
L 115.743562 453.786904 
L 113.527795 453.928136 
L 111.312028 453.896333 
L 109.096261 453.921588 
L 106.880495 454.090894 
L 104.664728 454.172267 
L 102.448961 454.170607 
L 100.233194 454.254283 
L 98.017427 454.37302 
L 95.80166 454.427533 
L 93.585893 454.426489 
L 91.370127 454.415272 
L 89.15436 454.453446 
L 86.938593 454.496917 
L 84.722826 454.476724 
L 82.507059 454.438463 
L 80.291292 454.433736 
L 78.075526 454.463672 
L 75.859759 454.506273 
L 73.643992 454.526323 
L 71.428225 454.517874 
L 69.212458 454.490961 
L 66.996691 454.45577 
L 64.780925 454.422485 
L 62.565158 454.401292 
L 60.349391 454.402377 
L 58.133624 454.435926 
L 55.917857 454.512122 
z
" clip-path="url(#p5a4f359187)" style="fill: #ffa600"/>
   </g>
   <g id="matplotlib.axis_1">
    <g id="xtick_1">
     <g id="line2d_1">
      <defs>
       <path id="ma938ad13f2" d="M 0 0 
L 0 3.5 
" style="stroke: #000000; stroke-width: 0.8"/>
      </defs>
      <g>
       <use xlink:href="#ma938ad13f2" x="86.917857" y="454.519219" style="stroke: #000000; stroke-width: 0.8"/>
      </g>
     </g>
     <g id="text_1">
      <!-- 2006 -->
      <g transform="translate(74.192857 469.117656) scale(0.1 -0.1)">
       <defs>
        <path id="DejaVuSans-32" d="M 1228 531 
L 3431 531 
L 3431 0 
L 469 0 
L 469 531 
Q 828 903 1448 1529 
Q 2069 2156 2228 2338 
Q 2531 2678 2651 2914 
Q 2772 3150 2772 3378 
Q 2772 3750 2511 3984 
Q 2250 4219 1831 4219 
Q 1534 4219 1204 4116 
Q 875 4013 500 3803 
L 500 4441 
Q 881 4594 1212 4672 
Q 1544 4750 1819 4750 
Q 2544 4750 2975 4387 
Q 3406 4025 3406 3419 
Q 3406 3131 3298 2873 
Q 3191 2616 2906 2266 
Q 2828 2175 2409 1742 
Q 1991 1309 1228 531 
z
" transform="scale(0.015625)"/>
        <path id="DejaVuSans-30" d="M 2034 4250 
Q 1547 4250 1301 3770 
Q 1056 3291 1056 2328 
Q 1056 1369 1301 889 
Q 1547 409 2034 409 
Q 2525 409 2770 889 
Q 3016 1369 3016 2328 
Q 3016 3291 2770 3770 
Q 2525 4250 2034 4250 
z
M 2034 4750 
Q 2819 4750 3233 4129 
Q 3647 3509 3647 2328 
Q 3647 1150 3233 529 
Q 2819 -91 2034 -91 
Q 1250 -91 836 529 
Q 422 1150 422 2328 
Q 422 3509 836 4129 
Q 1250 4750 2034 4750 
z
" transform="scale(0.015625)"/>
        <path id="DejaVuSans-36" d="M 2113 2584 
Q 1688 2584 1439 2293 
Q 1191 2003 1191 1497 
Q 1191 994 1439 701 
Q 1688 409 2113 409 
Q 2538 409 2786 701 
Q 3034 994 3034 1497 
Q 3034 2003 2786 2293 
Q 2538 2584 2113 2584 
z
M 3366 4563 
L 3366 3988 
Q 3128 4100 2886 4159 
Q 2644 4219 2406 4219 
Q 1781 4219 1451 3797 
Q 1122 3375 1075 2522 
Q 1259 2794 1537 2939 
Q 1816 3084 2150 3084 
Q 2853 3084 3261 2657 
Q 3669 2231 3669 1497 
Q 3669 778 3244 343 
Q 2819 -91 2113 -91 
Q 1303 -91 875 529 
Q 447 1150 447 2328 
Q 447 3434 972 4092 
Q 1497 4750 2381 4750 
Q 2619 4750 2861 4703 
Q 3103 4656 3366 4563 
z
" transform="scale(0.015625)"/>
       </defs>
       <use xlink:href="#DejaVuSans-32"/>
       <use xlink:href="#DejaVuSans-30" x="63.623047"/>
       <use xlink:href="#DejaVuSans-30" x="127.246094"/>
       <use xlink:href="#DejaVuSans-36" x="190.869141"/>
      </g>
     </g>
    </g>
    <g id="xtick_2">
     <g id="line2d_2">
      <g>
       <use xlink:href="#ma938ad13f2" x="179.285204" y="454.519219" style="stroke: #000000; stroke-width: 0.8"/>
      </g>
     </g>
     <g id="text_2">
      <!-- 2008 -->
      <g transform="translate(166.560204 469.117656) scale(0.1 -0.1)">
       <defs>
        <path id="DejaVuSans-38" d="M 2034 2216 
Q 1584 2216 1326 1975 
Q 1069 1734 1069 1313 
Q 1069 891 1326 650 
Q 1584 409 2034 409 
Q 2484 409 2743 651 
Q 3003 894 3003 1313 
Q 3003 1734 2745 1975 
Q 2488 2216 2034 2216 
z
M 1403 2484 
Q 997 2584 770 2862 
Q 544 3141 544 3541 
Q 544 4100 942 4425 
Q 1341 4750 2034 4750 
Q 2731 4750 3128 4425 
Q 3525 4100 3525 3541 
Q 3525 3141 3298 2862 
Q 3072 2584 2669 2484 
Q 3125 2378 3379 2068 
Q 3634 1759 3634 1313 
Q 3634 634 3220 271 
Q 2806 -91 2034 -91 
Q 1263 -91 848 271 
Q 434 634 434 1313 
Q 434 1759 690 2068 
Q 947 2378 1403 2484 
z
M 1172 3481 
Q 1172 3119 1398 2916 
Q 1625 2713 2034 2713 
Q 2441 2713 2670 2916 
Q 2900 3119 2900 3481 
Q 2900 3844 2670 4047 
Q 2441 4250 2034 4250 
Q 1625 4250 1398 4047 
Q 1172 3844 1172 3481 
z
" transform="scale(0.015625)"/>
       </defs>
       <use xlink:href="#DejaVuSans-32"/>
       <use xlink:href="#DejaVuSans-30" x="63.623047"/>
       <use xlink:href="#DejaVuSans-30" x="127.246094"/>
       <use xlink:href="#DejaVuSans-38" x="190.869141"/>
      </g>
     </g>
    </g>
    <g id="xtick_3">
     <g id="line2d_3">
      <g>
       <use xlink:href="#ma938ad13f2" x="271.779082" y="454.519219" style="stroke: #000000; stroke-width: 0.8"/>
      </g>
     </g>
     <g id="text_3">
      <!-- 2010 -->
      <g transform="translate(259.054082 469.117656) scale(0.1 -0.1)">
       <defs>
        <path id="DejaVuSans-31" d="M 794 531 
L 1825 531 
L 1825 4091 
L 703 3866 
L 703 4441 
L 1819 4666 
L 2450 4666 
L 2450 531 
L 3481 531 
L 3481 0 
L 794 0 
L 794 531 
z
" transform="scale(0.015625)"/>
       </defs>
       <use xlink:href="#DejaVuSans-32"/>
       <use xlink:href="#DejaVuSans-30" x="63.623047"/>
       <use xlink:href="#DejaVuSans-31" x="127.246094"/>
       <use xlink:href="#DejaVuSans-30" x="190.869141"/>
      </g>
     </g>
    </g>
    <g id="xtick_4">
     <g id="line2d_4">
      <g>
       <use xlink:href="#ma938ad13f2" x="364.146429" y="454.519219" style="stroke: #000000; stroke-width: 0.8"/>
      </g>
     </g>
     <g id="text_4">
      <!-- 2012 -->
      <g transform="translate(351.421429 469.117656) scale(0.1 -0.1)">
       <use xlink:href="#DejaVuSans-32"/>
       <use xlink:href="#DejaVuSans-30" x="63.623047"/>
       <use xlink:href="#DejaVuSans-31" x="127.246094"/>
       <use xlink:href="#DejaVuSans-32" x="190.869141"/>
      </g>
     </g>
    </g>
    <g id="xtick_5">
     <g id="line2d_5">
      <g>
       <use xlink:href="#ma938ad13f2" x="456.640306" y="454.519219" style="stroke: #000000; stroke-width: 0.8"/>
      </g>
     </g>
     <g id="text_5">
      <!-- 2014 -->
      <g transform="translate(443.915306 469.117656) scale(0.1 -0.1)">
       <defs>
        <path id="DejaVuSans-34" d="M 2419 4116 
L 825 1625 
L 2419 1625 
L 2419 4116 
z
M 2253 4666 
L 3047 4666 
L 3047 1625 
L 3713 1625 
L 3713 1100 
L 3047 1100 
L 3047 0 
L 2419 0 
L 2419 1100 
L 313 1100 
L 313 1709 
L 2253 4666 
z
" transform="scale(0.015625)"/>
       </defs>
       <use xlink:href="#DejaVuSans-32"/>
       <use xlink:href="#DejaVuSans-30" x="63.623047"/>
       <use xlink:href="#DejaVuSans-31" x="127.246094"/>
       <use xlink:href="#DejaVuSans-34" x="190.869141"/>
      </g>
     </g>
    </g>
    <g id="xtick_6">
     <g id="line2d_6">
      <g>
       <use xlink:href="#ma938ad13f2" x="549.007653" y="454.519219" style="stroke: #000000; stroke-width: 0.8"/>
      </g>
     </g>
     <g id="text_6">
      <!-- 2016 -->
      <g transform="translate(536.282653 469.117656) scale(0.1 -0.1)">
       <use xlink:href="#DejaVuSans-32"/>
       <use xlink:href="#DejaVuSans-30" x="63.623047"/>
       <use xlink:href="#DejaVuSans-31" x="127.246094"/>
       <use xlink:href="#DejaVuSans-36" x="190.869141"/>
      </g>
     </g>
    </g>
    <g id="xtick_7">
     <g id="line2d_7">
      <g>
       <use xlink:href="#ma938ad13f2" x="641.501531" y="454.519219" style="stroke: #000000; stroke-width: 0.8"/>
      </g>
     </g>
     <g id="text_7">
      <!-- 2018 -->
      <g transform="translate(628.776531 469.117656) scale(0.1 -0.1)">
       <use xlink:href="#DejaVuSans-32"/>
       <use xlink:href="#DejaVuSans-30" x="63.623047"/>
       <use xlink:href="#DejaVuSans-31" x="127.246094"/>
       <use xlink:href="#DejaVuSans-38" x="190.869141"/>
      </g>
     </g>
    </g>
   </g>
   <g id="matplotlib.axis_2">
    <g id="ytick_1">
     <g id="line2d_8">
      <path d="M 52.375 454.519219 
L 721.975 454.519219 
" clip-path="url(#p5a4f359187)" style="fill: none; stroke-dasharray: 2.96,1.28; stroke-dashoffset: 0; stroke: #808080; stroke-opacity: 0.5; stroke-width: 0.8"/>
     </g>
     <g id="line2d_9">
      <defs>
       <path id="ma131502979" d="M 0 0 
L -3.5 0 
" style="stroke: #000000; stroke-width: 0.8"/>
      </defs>
      <g>
       <use xlink:href="#ma131502979" x="52.375" y="454.519219" style="stroke: #000000; stroke-width: 0.8"/>
      </g>
     </g>
     <g id="text_8">
      <!-- 0 -->
      <g transform="translate(39.0125 458.318438) scale(0.1 -0.1)">
       <use xlink:href="#DejaVuSans-30"/>
      </g>
     </g>
    </g>
    <g id="ytick_2">
     <g id="line2d_10">
      <path d="M 52.375 365.815219 
L 721.975 365.815219 
" clip-path="url(#p5a4f359187)" style="fill: none; stroke-dasharray: 2.96,1.28; stroke-dashoffset: 0; stroke: #808080; stroke-opacity: 0.5; stroke-width: 0.8"/>
     </g>
     <g id="line2d_11">
      <g>
       <use xlink:href="#ma131502979" x="52.375" y="365.815219" style="stroke: #000000; stroke-width: 0.8"/>
      </g>
     </g>
     <g id="text_9">
      <!-- 100000 -->
      <g transform="translate(7.2 369.614438) scale(0.1 -0.1)">
       <use xlink:href="#DejaVuSans-31"/>
       <use xlink:href="#DejaVuSans-30" x="63.623047"/>
       <use xlink:href="#DejaVuSans-30" x="127.246094"/>
       <use xlink:href="#DejaVuSans-30" x="190.869141"/>
       <use xlink:href="#DejaVuSans-30" x="254.492188"/>
       <use xlink:href="#DejaVuSans-30" x="318.115234"/>
      </g>
     </g>
    </g>
    <g id="ytick_3">
     <g id="line2d_12">
      <path d="M 52.375 277.111219 
L 721.975 277.111219 
" clip-path="url(#p5a4f359187)" style="fill: none; stroke-dasharray: 2.96,1.28; stroke-dashoffset: 0; stroke: #808080; stroke-opacity: 0.5; stroke-width: 0.8"/>
     </g>
     <g id="line2d_13">
      <g>
       <use xlink:href="#ma131502979" x="52.375" y="277.111219" style="stroke: #000000; stroke-width: 0.8"/>
      </g>
     </g>
     <g id="text_10">
      <!-- 200000 -->
      <g transform="translate(7.2 280.910438) scale(0.1 -0.1)">
       <use xlink:href="#DejaVuSans-32"/>
       <use xlink:href="#DejaVuSans-30" x="63.623047"/>
       <use xlink:href="#DejaVuSans-30" x="127.246094"/>
       <use xlink:href="#DejaVuSans-30" x="190.869141"/>
       <use xlink:href="#DejaVuSans-30" x="254.492188"/>
       <use xlink:href="#DejaVuSans-30" x="318.115234"/>
      </g>
     </g>
    </g>
    <g id="ytick_4">
     <g id="line2d_14">
      <path d="M 52.375 188.407219 
L 721.975 188.407219 
" clip-path="url(#p5a4f359187)" style="fill: none; stroke-dasharray: 2.96,1.28; stroke-dashoffset: 0; stroke: #808080; stroke-opacity: 0.5; stroke-width: 0.8"/>
     </g>
     <g id="line2d_15">
      <g>
       <use xlink:href="#ma131502979" x="52.375" y="188.407219" style="stroke: #000000; stroke-width: 0.8"/>
      </g>
     </g>
     <g id="text_11">
      <!-- 300000 -->
      <g transform="translate(7.2 192.206438) scale(0.1 -0.1)">
       <defs>
        <path id="DejaVuSans-33" d="M 2597 2516 
Q 3050 2419 3304 2112 
Q 3559 1806 3559 1356 
Q 3559 666 3084 287 
Q 2609 -91 1734 -91 
Q 1441 -91 1130 -33 
Q 819 25 488 141 
L 488 750 
Q 750 597 1062 519 
Q 1375 441 1716 441 
Q 2309 441 2620 675 
Q 2931 909 2931 1356 
Q 2931 1769 2642 2001 
Q 2353 2234 1838 2234 
L 1294 2234 
L 1294 2753 
L 1863 2753 
Q 2328 2753 2575 2939 
Q 2822 3125 2822 3475 
Q 2822 3834 2567 4026 
Q 2313 4219 1838 4219 
Q 1578 4219 1281 4162 
Q 984 4106 628 3988 
L 628 4550 
Q 988 4650 1302 4700 
Q 1616 4750 1894 4750 
Q 2613 4750 3031 4423 
Q 3450 4097 3450 3541 
Q 3450 3153 3228 2886 
Q 3006 2619 2597 2516 
z
" transform="scale(0.015625)"/>
       </defs>
       <use xlink:href="#DejaVuSans-33"/>
       <use xlink:href="#DejaVuSans-30" x="63.623047"/>
       <use xlink:href="#DejaVuSans-30" x="127.246094"/>
       <use xlink:href="#DejaVuSans-30" x="190.869141"/>
       <use xlink:href="#DejaVuSans-30" x="254.492188"/>
       <use xlink:href="#DejaVuSans-30" x="318.115234"/>
      </g>
     </g>
    </g>
    <g id="ytick_5">
     <g id="line2d_16">
      <path d="M 52.375 99.703219 
L 721.975 99.703219 
" clip-path="url(#p5a4f359187)" style="fill: none; stroke-dasharray: 2.96,1.28; stroke-dashoffset: 0; stroke: #808080; stroke-opacity: 0.5; stroke-width: 0.8"/>
     </g>
     <g id="line2d_17">
      <g>
       <use xlink:href="#ma131502979" x="52.375" y="99.703219" style="stroke: #000000; stroke-width: 0.8"/>
      </g>
     </g>
     <g id="text_12">
      <!-- 400000 -->
      <g transform="translate(7.2 103.502438) scale(0.1 -0.1)">
       <use xlink:href="#DejaVuSans-34"/>
       <use xlink:href="#DejaVuSans-30" x="63.623047"/>
       <use xlink:href="#DejaVuSans-30" x="127.246094"/>
       <use xlink:href="#DejaVuSans-30" x="190.869141"/>
       <use xlink:href="#DejaVuSans-30" x="254.492188"/>
       <use xlink:href="#DejaVuSans-30" x="318.115234"/>
      </g>
     </g>
    </g>
    <g id="ytick_6">
     <g id="line2d_18">
      <path d="M 52.375 10.999219 
L 721.975 10.999219 
" clip-path="url(#p5a4f359187)" style="fill: none; stroke-dasharray: 2.96,1.28; stroke-dashoffset: 0; stroke: #808080; stroke-opacity: 0.5; stroke-width: 0.8"/>
     </g>
     <g id="line2d_19">
      <g>
       <use xlink:href="#ma131502979" x="52.375" y="10.999219" style="stroke: #000000; stroke-width: 0.8"/>
      </g>
     </g>
     <g id="text_13">
      <!-- 500000 -->
      <g transform="translate(7.2 14.798438) scale(0.1 -0.1)">
       <defs>
        <path id="DejaVuSans-35" d="M 691 4666 
L 3169 4666 
L 3169 4134 
L 1269 4134 
L 1269 2991 
Q 1406 3038 1543 3061 
Q 1681 3084 1819 3084 
Q 2600 3084 3056 2656 
Q 3513 2228 3513 1497 
Q 3513 744 3044 326 
Q 2575 -91 1722 -91 
Q 1428 -91 1123 -41 
Q 819 9 494 109 
L 494 744 
Q 775 591 1075 516 
Q 1375 441 1709 441 
Q 2250 441 2565 725 
Q 2881 1009 2881 1497 
Q 2881 1984 2565 2268 
Q 2250 2553 1709 2553 
Q 1456 2553 1204 2497 
Q 953 2441 691 2322 
L 691 4666 
z
" transform="scale(0.015625)"/>
       </defs>
       <use xlink:href="#DejaVuSans-35"/>
       <use xlink:href="#DejaVuSans-30" x="63.623047"/>
       <use xlink:href="#DejaVuSans-30" x="127.246094"/>
       <use xlink:href="#DejaVuSans-30" x="190.869141"/>
       <use xlink:href="#DejaVuSans-30" x="254.492188"/>
       <use xlink:href="#DejaVuSans-30" x="318.115234"/>
      </g>
     </g>
    </g>
   </g>
   <g id="line2d_20">
    <path d="M 179.285204 454.519219 
L 179.285204 450.566391 
" clip-path="url(#p5a4f359187)" style="fill: none; stroke: #000000; stroke-width: 1.3; stroke-linecap: square"/>
   </g>
   <g id="line2d_21">
    <path d="M 179.285204 450.566391 
" clip-path="url(#p5a4f359187)" style="fill: none; stroke: #000000; stroke-width: 1.5; stroke-linecap: square"/>
    <defs>
     <path id="m32aeb43eb0" d="M 0 2.5 
C 0.663008 2.5 1.29895 2.236584 1.767767 1.767767 
C 2.236584 1.29895 2.5 0.663008 2.5 0 
C 2.5 -0.663008 2.236584 -1.29895 1.767767 -1.767767 
C 1.29895 -2.236584 0.663008 -2.5 0 -2.5 
C -0.663008 -2.5 -1.29895 -2.236584 -1.767767 -1.767767 
C -2.236584 -1.29895 -2.5 -0.663008 -2.5 0 
C -2.5 0.663008 -2.236584 1.29895 -1.767767 1.767767 
C -1.29895 2.236584 -0.663008 2.5 0 2.5 
z
" style="stroke: #000000"/>
    </defs>
    <g clip-path="url(#p5a4f359187)">
     <use xlink:href="#m32aeb43eb0" x="179.285204" y="450.566391" style="stroke: #000000"/>
    </g>
   </g>
   <g id="line2d_22">
    <path d="M 333.146429 454.519219 
L 333.146429 417.69943 
" clip-path="url(#p5a4f359187)" style="fill: none; stroke: #000000; stroke-width: 1.3; stroke-linecap: square"/>
   </g>
   <g id="line2d_23">
    <path d="M 333.146429 417.69943 
" clip-path="url(#p5a4f359187)" style="fill: none; stroke: #000000; stroke-width: 1.5; stroke-linecap: square"/>
    <g clip-path="url(#p5a4f359187)">
     <use xlink:href="#m32aeb43eb0" x="333.146429" y="417.69943" style="stroke: #000000"/>
    </g>
   </g>
   <g id="line2d_24">
    <path d="M 437.281122 454.519219 
L 437.281122 342.596636 
" clip-path="url(#p5a4f359187)" style="fill: none; stroke: #000000; stroke-width: 1.3; stroke-linecap: square"/>
   </g>
   <g id="line2d_25">
    <path d="M 437.281122 342.596636 
" clip-path="url(#p5a4f359187)" style="fill: none; stroke: #000000; stroke-width: 1.5; stroke-linecap: square"/>
    <g clip-path="url(#p5a4f359187)">
     <use xlink:href="#m32aeb43eb0" x="437.281122" y="342.596636" style="stroke: #000000"/>
    </g>
   </g>
   <g id="line2d_26">
    <path d="M 595.317857 454.519219 
L 595.317857 187.21996 
" clip-path="url(#p5a4f359187)" style="fill: none; stroke: #000000; stroke-width: 1.3; stroke-linecap: square"/>
   </g>
   <g id="line2d_27">
    <path d="M 595.317857 187.21996 
" clip-path="url(#p5a4f359187)" style="fill: none; stroke: #000000; stroke-width: 1.5; stroke-linecap: square"/>
    <g clip-path="url(#p5a4f359187)">
     <use xlink:href="#m32aeb43eb0" x="595.317857" y="187.21996" style="stroke: #000000"/>
    </g>
   </g>
   <g id="line2d_28">
    <path d="M 718.432143 454.519219 
L 718.432143 45.832792 
" clip-path="url(#p5a4f359187)" style="fill: none; stroke: #000000; stroke-width: 1.3; stroke-linecap: square"/>
   </g>
   <g id="line2d_29">
    <path d="M 718.432143 45.832792 
" clip-path="url(#p5a4f359187)" style="fill: none; stroke: #000000; stroke-width: 1.5; stroke-linecap: square"/>
    <g clip-path="url(#p5a4f359187)">
     <use xlink:href="#m32aeb43eb0" x="718.432143" y="45.832792" style="stroke: #000000"/>
    </g>
   </g>
   <g id="patch_3">
    <path d="M 52.375 454.519219 
L 52.375 10.999219 
" style="fill: none; stroke: #000000; stroke-width: 0.8; stroke-linejoin: miter; stroke-linecap: square"/>
   </g>
   <g id="patch_4">
    <path d="M 52.375 454.519219 
L 721.975 454.519219 
" style="fill: none; stroke: #000000; stroke-width: 0.8; stroke-linejoin: miter; stroke-linecap: square"/>
   </g>
   <g id="text_14">
    <!-- 4244 -->
    <g transform="translate(159.79949 433.013821) scale(0.15 -0.15)">
     <defs>
      <path id="CMSS17-34" d="M 2253 1088 
L 2835 1088 
L 2835 1477 
L 2253 1477 
L 2253 4192 
L 1690 4192 
L 166 1477 
L 166 1088 
L 1747 1088 
L 1747 0 
L 2253 0 
L 2253 1088 
z
M 659 1477 
C 1030 2127 1766 3439 1766 3885 
L 1766 1477 
L 659 1477 
z
" transform="scale(0.015625)"/>
      <path id="CMSS17-32" d="M 1651 1357 
C 1830 1541 2099 1764 2285 1987 
C 2464 2204 2701 2511 2701 2957 
C 2701 3657 2227 4288 1421 4288 
C 787 4288 422 3893 250 3274 
L 499 2929 
C 640 3510 838 3880 1338 3880 
C 1888 3880 2195 3433 2195 2942 
C 2195 2355 1747 1901 1408 1563 
C 1030 1187 659 804 301 408 
L 301 0 
L 2701 0 
L 2701 433 
L 1613 433 
C 1536 433 1459 433 1382 433 
L 742 433 
L 742 439 
L 1651 1357 
z
" transform="scale(0.015625)"/>
     </defs>
     <use xlink:href="#CMSS17-34" transform="scale(0.996264)"/>
     <use xlink:href="#CMSS17-32" transform="translate(46.843624 0) scale(0.996264)"/>
     <use xlink:href="#CMSS17-34" transform="translate(93.687247 0) scale(0.996264)"/>
     <use xlink:href="#CMSS17-34" transform="translate(140.530871 0) scale(0.996264)"/>
    </g>
   </g>
   <g id="text_15">
    <!-- 39532 -->
    <g transform="translate(313.660714 401.711953) scale(0.15 -0.15)">
     <defs>
      <path id="CMSS17-33" d="M 1005 2025 
L 1440 2025 
C 2042 2025 2214 1507 2214 1146 
C 2214 653 1933 267 1472 267 
C 1114 267 608 444 320 912 
C 275 691 275 678 250 526 
C 550 88 1037 -128 1485 -128 
C 2214 -128 2752 473 2752 1138 
C 2752 1638 2400 2057 1920 2215 
C 2304 2424 2586 2816 2586 3273 
C 2586 3805 2093 4229 1491 4229 
C 941 4229 512 3892 333 3530 
C 378 3468 493 3284 550 3189 
C 691 3562 1056 3840 1485 3840 
C 1843 3840 2080 3607 2080 3271 
C 2080 2923 1856 2543 1478 2455 
C 1453 2455 1056 2417 1005 2411 
L 1005 2025 
z
" transform="scale(0.015625)"/>
      <path id="CMSS17-39" d="M 435 174 
C 614 21 845 -128 1235 -128 
C 2010 -128 2752 721 2752 2095 
C 2752 3932 1952 4229 1523 4229 
C 1094 4229 819 4041 582 3741 
C 301 3397 250 3090 250 2733 
C 250 2307 326 2045 506 1745 
C 749 1357 973 1275 1222 1275 
C 1600 1275 1978 1459 2234 1776 
C 2189 902 1798 267 1235 267 
C 1005 267 819 339 634 516 
L 435 174 
z
M 2214 2746 
C 2221 2703 2221 2622 2221 2596 
C 2221 2074 1914 1664 1466 1664 
C 1171 1664 1018 1813 902 2006 
C 762 2249 755 2485 755 2733 
C 755 2976 755 3244 934 3511 
C 1069 3703 1235 3840 1523 3840 
C 2112 3840 2208 3000 2214 2746 
z
" transform="scale(0.015625)"/>
      <path id="CMSS17-35" d="M 934 3752 
L 2502 3752 
L 2502 4160 
L 467 4160 
L 467 1781 
L 896 1781 
C 1011 2046 1248 2240 1555 2240 
C 1843 2240 2163 1989 2163 1266 
C 2163 493 1709 267 1376 267 
C 966 267 589 512 422 851 
L 218 499 
C 512 49 992 -128 1376 -128 
C 2118 -128 2701 497 2701 1253 
C 2701 2030 2182 2629 1562 2629 
C 1338 2629 1120 2553 934 2399 
L 934 3752 
z
" transform="scale(0.015625)"/>
     </defs>
     <use xlink:href="#CMSS17-33" transform="scale(0.996264)"/>
     <use xlink:href="#CMSS17-39" transform="translate(46.843624 0) scale(0.996264)"/>
     <use xlink:href="#CMSS17-35" transform="translate(93.687247 0) scale(0.996264)"/>
     <use xlink:href="#CMSS17-33" transform="translate(140.530871 0) scale(0.996264)"/>
     <use xlink:href="#CMSS17-32" transform="translate(187.374494 0) scale(0.996264)"/>
    </g>
   </g>
   <g id="text_16">
    <!-- 120167 -->
    <g transform="translate(417.795408 330.185483) scale(0.15 -0.15)">
     <defs>
      <path id="CMSS17-31" d="M 1818 4288 
L 1696 4288 
C 1350 3940 947 3890 538 3890 
L 538 3520 
C 723 3520 1024 3520 1325 3667 
L 1325 369 
L 570 369 
L 570 0 
L 2573 0 
L 2573 369 
L 1818 369 
L 1818 4288 
z
" transform="scale(0.015625)"/>
      <path id="CMSS17-30" d="M 2758 2044 
C 2758 2405 2752 3077 2490 3596 
C 2227 4096 1805 4229 1504 4229 
C 1069 4229 698 3975 506 3570 
C 301 3146 243 2709 243 2044 
C 243 1589 262 1031 493 543 
C 755 5 1197 -128 1498 -128 
C 1894 -128 2278 81 2496 518 
C 2720 974 2758 1474 2758 2044 
z
M 1498 261 
C 1011 261 864 811 819 995 
C 742 1310 730 1614 730 2114 
C 730 2506 730 2948 851 3297 
C 998 3701 1254 3840 1498 3840 
C 1971 3840 2125 3372 2176 3208 
C 2272 2873 2272 2481 2272 2114 
C 2272 1526 2272 261 1498 261 
z
" transform="scale(0.015625)"/>
      <path id="CMSS17-36" d="M 2496 4101 
C 2227 4210 2035 4229 1856 4229 
C 1024 4229 250 3368 250 2006 
C 250 265 986 -128 1510 -128 
C 1798 -128 2086 -39 2362 280 
C 2643 617 2752 898 2752 1389 
C 2752 2179 2362 2880 1779 2880 
C 1357 2880 992 2657 768 2376 
C 832 3258 1254 3840 1862 3840 
C 2029 3840 2246 3816 2496 3710 
L 2496 4101 
z
M 774 1369 
C 774 1420 774 1452 781 1548 
C 781 2045 1069 2491 1536 2491 
C 1837 2491 1990 2332 2106 2135 
C 2240 1886 2246 1650 2246 1388 
C 2246 1140 2246 891 2099 637 
C 1978 439 1818 267 1510 267 
C 902 267 800 1114 774 1369 
z
" transform="scale(0.015625)"/>
      <path id="CMSS17-37" d="M 1389 3776 
C 1466 3776 1542 3776 1619 3776 
L 2355 3776 
C 1440 2711 915 1365 915 -32 
L 1427 -32 
C 1427 1323 1875 2696 2752 3795 
L 2752 4209 
L 250 4209 
L 250 3776 
L 1389 3776 
z
" transform="scale(0.015625)"/>
     </defs>
     <use xlink:href="#CMSS17-31" transform="scale(0.996264)"/>
     <use xlink:href="#CMSS17-32" transform="translate(46.843624 0) scale(0.996264)"/>
     <use xlink:href="#CMSS17-30" transform="translate(93.687247 0) scale(0.996264)"/>
     <use xlink:href="#CMSS17-31" transform="translate(140.530871 0) scale(0.996264)"/>
     <use xlink:href="#CMSS17-36" transform="translate(187.374494 0) scale(0.996264)"/>
     <use xlink:href="#CMSS17-37" transform="translate(234.218118 0) scale(0.996264)"/>
    </g>
   </g>
   <g id="text_17">
    <!-- 286989 -->
    <g transform="translate(575.832143 182.207696) scale(0.15 -0.15)">
     <defs>
      <path id="CMSS17-38" d="M 1933 2222 
C 2419 2380 2669 2760 2669 3134 
C 2669 3722 2157 4229 1504 4229 
C 826 4229 333 3708 333 3144 
C 333 2780 576 2403 1069 2241 
C 442 1997 250 1512 250 1149 
C 250 446 819 -128 1498 -128 
C 2202 -128 2752 455 2752 1138 
C 2752 1557 2502 2000 1933 2222 
z
M 1504 2432 
C 1075 2432 787 2712 787 3136 
C 787 3566 1075 3840 1504 3840 
C 1901 3840 2214 3591 2214 3136 
C 2214 2687 1907 2432 1504 2432 
z
M 1504 267 
C 1139 267 749 517 749 1156 
C 749 1813 1184 2043 1498 2043 
C 1843 2043 2253 1800 2253 1156 
C 2253 491 1830 267 1504 267 
z
" transform="scale(0.015625)"/>
     </defs>
     <use xlink:href="#CMSS17-32" transform="scale(0.996264)"/>
     <use xlink:href="#CMSS17-38" transform="translate(46.843624 0) scale(0.996264)"/>
     <use xlink:href="#CMSS17-36" transform="translate(93.687247 0) scale(0.996264)"/>
     <use xlink:href="#CMSS17-39" transform="translate(140.530871 0) scale(0.996264)"/>
     <use xlink:href="#CMSS17-38" transform="translate(187.374494 0) scale(0.996264)"/>
     <use xlink:href="#CMSS17-39" transform="translate(234.218118 0) scale(0.996264)"/>
    </g>
   </g>
   <g id="text_18">
    <!-- 438791 -->
    <g transform="translate(723.746429 47.55325) scale(0.15 -0.15)">
     <use xlink:href="#CMSS17-34" transform="scale(0.996264)"/>
     <use xlink:href="#CMSS17-33" transform="translate(46.843624 0) scale(0.996264)"/>
     <use xlink:href="#CMSS17-38" transform="translate(93.687247 0) scale(0.996264)"/>
     <use xlink:href="#CMSS17-37" transform="translate(140.530871 0) scale(0.996264)"/>
     <use xlink:href="#CMSS17-39" transform="translate(187.374494 0) scale(0.996264)"/>
     <use xlink:href="#CMSS17-31" transform="translate(234.218118 0) scale(0.996264)"/>
    </g>
   </g>
   <g id="text_19">
    <!-- $\overline{T}_2$ : 16542 -->
    <g style="fill: #ffa600" transform="translate(733.868878 73.092019) scale(0.15 -0.15)">
     <defs>
      <path id="CMMI12-54" d="M 2669 3910 
C 2707 4064 2720 4121 2816 4147 
C 2867 4160 3078 4160 3213 4160 
C 3853 4160 4154 4134 4154 3634 
C 4154 3537 4128 3295 4090 3057 
L 4083 2980 
C 4083 2954 4109 2916 4147 2916 
C 4211 2916 4211 2948 4230 3050 
L 4416 4184 
C 4429 4243 4429 4256 4429 4275 
C 4429 4345 4390 4345 4262 4345 
L 762 4345 
C 614 4345 608 4339 570 4224 
L 179 3070 
C 173 3056 154 2986 154 2980 
C 154 2948 179 2916 218 2916 
C 269 2916 282 2941 307 3024 
C 576 3801 710 4160 1562 4160 
L 1990 4160 
C 2144 4160 2208 4160 2208 4089 
C 2208 4069 2208 4057 2176 3941 
L 1318 499 
C 1254 249 1242 185 563 185 
C 403 185 358 185 358 64 
C 358 0 429 0 461 0 
C 621 0 787 0 947 0 
L 1946 0 
C 2106 0 2278 0 2438 0 
C 2509 0 2573 0 2573 121 
C 2573 185 2528 185 2362 185 
C 1786 185 1786 243 1786 339 
C 1786 346 1786 391 1811 494 
L 2669 3910 
z
" transform="scale(0.015625)"/>
      <path id="CMR17-32" d="M 2669 989 
L 2554 989 
C 2490 536 2438 459 2413 420 
C 2381 369 1920 369 1830 369 
L 602 369 
C 832 619 1280 1072 1824 1597 
C 2214 1967 2669 2402 2669 3035 
C 2669 3790 2067 4224 1395 4224 
C 691 4224 262 3604 262 3030 
C 262 2780 448 2748 525 2748 
C 589 2748 781 2787 781 3010 
C 781 3207 614 3264 525 3264 
C 486 3264 448 3258 422 3245 
C 544 3790 915 4058 1306 4058 
C 1862 4058 2227 3617 2227 3035 
C 2227 2479 1901 2000 1536 1584 
L 262 146 
L 262 0 
L 2515 0 
L 2669 989 
z
" transform="scale(0.015625)"/>
      <path id="CMSS17-3a" d="M 1088 2749 
L 576 2749 
L 576 2240 
L 1088 2240 
L 1088 2749 
z
M 576 510 
L 576 0 
L 1088 0 
L 1088 510 
L 576 510 
z
" transform="scale(0.015625)"/>
     </defs>
     <use xlink:href="#CMMI12-54" transform="scale(0.996264)"/>
     <use xlink:href="#CMR17-32" transform="translate(70.723632 -14.943915) scale(0.697382)"/>
     <use xlink:href="#CMSS17-3a" transform="translate(134.434059 0) scale(0.996264)"/>
     <use xlink:href="#CMSS17-31" transform="translate(202.097071 0) scale(0.996264)"/>
     <use xlink:href="#CMSS17-36" transform="translate(248.940694 0) scale(0.996264)"/>
     <use xlink:href="#CMSS17-35" transform="translate(295.784318 0) scale(0.996264)"/>
     <use xlink:href="#CMSS17-34" transform="translate(342.627941 0) scale(0.996264)"/>
     <use xlink:href="#CMSS17-32" transform="translate(389.471565 0) scale(0.996264)"/>
     <path d="M 0 80.032884 
L 70.723632 80.032884 
L 70.723632 84.017834 
L 0 84.017834 
L 0 80.032884 
z
"/>
    </g>
   </g>
   <g id="text_20">
    <!-- $\overline{T}_1$ : 61919 -->
    <g style="fill: #f95d6a" transform="translate(733.868878 99.703219) scale(0.15 -0.15)">
     <defs>
      <path id="CMR17-31" d="M 1702 4058 
C 1702 4192 1696 4192 1606 4192 
C 1357 3916 979 3827 621 3827 
C 602 3827 570 3827 563 3808 
C 557 3795 557 3782 557 3648 
C 755 3648 1088 3686 1344 3839 
L 1344 461 
C 1344 236 1331 160 781 160 
L 589 160 
L 589 0 
C 896 0 1216 0 1523 0 
C 1830 0 2150 0 2458 0 
L 2458 160 
L 2266 160 
C 1715 160 1702 230 1702 458 
L 1702 4058 
z
" transform="scale(0.015625)"/>
     </defs>
     <use xlink:href="#CMMI12-54" transform="scale(0.996264)"/>
     <use xlink:href="#CMR17-31" transform="translate(70.723632 -14.943915) scale(0.697382)"/>
     <use xlink:href="#CMSS17-3a" transform="translate(134.434059 0) scale(0.996264)"/>
     <use xlink:href="#CMSS17-36" transform="translate(202.097071 0) scale(0.996264)"/>
     <use xlink:href="#CMSS17-31" transform="translate(248.940694 0) scale(0.996264)"/>
     <use xlink:href="#CMSS17-39" transform="translate(295.784318 0) scale(0.996264)"/>
     <use xlink:href="#CMSS17-31" transform="translate(342.627941 0) scale(0.996264)"/>
     <use xlink:href="#CMSS17-39" transform="translate(389.471565 0) scale(0.996264)"/>
     <path d="M 0 80.032884 
L 70.723632 80.032884 
L 70.723632 84.017834 
L 0 84.017834 
L 0 80.032884 
z
"/>
    </g>
   </g>
   <g id="text_21">
    <!-- $T_{1,2}$ : 360330 -->
    <g style="fill: #d45087" transform="translate(733.868878 192.842419) scale(0.15 -0.15)">
     <defs>
      <path id="CMMI12-3b" d="M 1248 -31 
C 1248 343 1126 619 864 619 
C 659 619 557 453 557 313 
C 557 172 653 0 870 0 
C 954 0 1024 26 1082 83 
C 1094 96 1101 96 1107 96 
C 1120 96 1120 5 1120 -27 
C 1120 -240 1082 -659 710 -1080 
C 640 -1157 640 -1170 640 -1183 
C 640 -1216 672 -1248 704 -1248 
C 755 -1248 1248 -771 1248 -31 
z
" transform="scale(0.015625)"/>
     </defs>
     <use xlink:href="#CMMI12-54" transform="scale(0.996264)"/>
     <use xlink:href="#CMR17-31" transform="translate(57.175044 -14.943915) scale(0.697382)"/>
     <use xlink:href="#CMMI12-3b" transform="translate(89.158226 -14.943915) scale(0.697382)"/>
     <use xlink:href="#CMR17-32" transform="translate(108.126158 -14.943915) scale(0.697382)"/>
     <use xlink:href="#CMSS17-3a" transform="translate(171.836585 0) scale(0.996264)"/>
     <use xlink:href="#CMSS17-33" transform="translate(239.499597 0) scale(0.996264)"/>
     <use xlink:href="#CMSS17-36" transform="translate(286.34322 0) scale(0.996264)"/>
     <use xlink:href="#CMSS17-30" transform="translate(333.186844 0) scale(0.996264)"/>
     <use xlink:href="#CMSS17-33" transform="translate(380.030467 0) scale(0.996264)"/>
     <use xlink:href="#CMSS17-33" transform="translate(426.874091 0) scale(0.996264)"/>
     <use xlink:href="#CMSS17-30" transform="translate(473.717714 0) scale(0.996264)"/>
    </g>
   </g>
  </g>
 </g>
 <defs>
  <clipPath id="p5a4f359187">
   <rect x="52.375" y="10.999219" width="669.6" height="443.52"/>
  </clipPath>
 </defs>
</svg>
